<?xml version="1.0" encoding="utf-8" standalone="no"?>
<!DOCTYPE svg PUBLIC "-//W3C//DTD SVG 1.1//EN"
  "http://www.w3.org/Graphics/SVG/1.1/DTD/svg11.dtd">
<!-- Created with matplotlib (https://matplotlib.org/) -->
<svg height="137.089688pt" version="1.1" viewBox="0 0 244.768125 137.089688" width="244.768125pt" xmlns="http://www.w3.org/2000/svg" xmlns:xlink="http://www.w3.org/1999/xlink">
 <metadata>
  <rdf:RDF xmlns:cc="http://creativecommons.org/ns#" xmlns:dc="http://purl.org/dc/elements/1.1/" xmlns:rdf="http://www.w3.org/1999/02/22-rdf-syntax-ns#">
   <cc:Work>
    <dc:type rdf:resource="http://purl.org/dc/dcmitype/StillImage"/>
    <dc:date>2021-03-08T11:48:19.432085</dc:date>
    <dc:format>image/svg+xml</dc:format>
    <dc:creator>
     <cc:Agent>
      <dc:title>Matplotlib v3.3.2, https://matplotlib.org/</dc:title>
     </cc:Agent>
    </dc:creator>
   </cc:Work>
  </rdf:RDF>
 </metadata>
 <defs>
  <style type="text/css">*{stroke-linecap:butt;stroke-linejoin:round;}</style>
 </defs>
 <g id="figure_1">
  <g id="patch_1">
   <path d="M 0 137.089688 
L 244.768125 137.089688 
L 244.768125 0 
L 0 0 
z
" style="fill:#ffffff;"/>
  </g>
  <g id="axes_1">
   <g id="patch_2">
    <path d="M 44.028125 100.36 
L 237.568125 100.36 
L 237.568125 7.2 
L 44.028125 7.2 
z
" style="fill:#ffffff;"/>
   </g>
   <g id="line2d_1">
    <path clip-path="url(#p157a292960)" d="M 57.530916 96.125455 
L 57.733458 22.155158 
L 57.935999 11.82331 
L 58.026018 11.434545 
L 58.071027 11.551317 
L 58.251065 12.854283 
L 60.051437 28.307314 
L 61.13166 35.210715 
L 62.189378 40.597398 
L 63.247097 44.888116 
L 64.304816 48.295933 
L 65.385039 51.045803 
L 66.465262 53.207368 
L 67.56799 54.934259 
L 68.715727 56.329095 
L 69.930978 57.462104 
L 71.258753 58.39777 
L 72.766565 59.186522 
L 74.589441 59.882542 
L 77.064953 60.572795 
L 82.601097 61.807109 
L 87.844681 63.103037 
L 93.020751 64.621573 
L 99.794651 66.859675 
L 121.016537 74.015929 
L 129.230734 76.46772 
L 137.287399 78.640219 
L 145.501597 80.624056 
L 154.053365 82.458805 
L 163.03272 84.156209 
L 172.574692 85.731628 
L 182.791804 87.19038 
L 193.796578 88.533898 
L 205.724044 89.763127 
L 218.776741 90.881522 
L 233.04469 91.880452 
L 233.04469 91.880452 
" style="fill:none;stroke:#f06043;stroke-linecap:round;stroke-width:2;"/>
   </g>
   <g id="line2d_2">
    <path clip-path="url(#p157a292960)" d="M 57.530916 96.125455 
L 57.733458 48.291528 
L 57.935999 41.715813 
L 58.003513 41.506441 
L 58.048523 41.55727 
L 58.206055 42.288508 
L 60.479025 55.639105 
L 61.581753 60.280609 
L 62.684481 63.993943 
L 63.787209 66.959368 
L 64.912441 69.366429 
L 66.060178 71.307589 
L 67.23042 72.863508 
L 68.468176 74.145067 
L 69.795951 75.199625 
L 71.258753 76.074149 
L 72.924097 76.806212 
L 74.927011 77.436534 
L 77.560055 78.017407 
L 81.723416 78.679275 
L 95.946355 80.825002 
L 129.50079 86.331857 
L 140.753116 87.812655 
L 152.478039 89.129367 
L 165.058139 90.315613 
L 178.808481 91.385115 
L 194.021625 92.341156 
L 211.102655 93.186983 
L 230.569178 93.923016 
L 233.04469 94.002309 
L 233.04469 94.002309 
" style="fill:none;stroke:#f5946b;stroke-linecap:round;stroke-width:2;"/>
   </g>
   <g id="line2d_3">
    <path clip-path="url(#p157a292960)" d="M 57.530916 96.125455 
L 57.733458 68.701595 
L 57.913495 65.148431 
L 58.003513 64.987093 
L 58.048523 65.048685 
L 58.251065 65.776302 
L 60.006427 73.091672 
L 61.154165 76.768983 
L 62.324406 79.794231 
L 63.517153 82.270636 
L 64.732404 84.287796 
L 65.97016 85.922981 
L 67.27543 87.284043 
L 68.670718 88.416068 
L 70.17853 89.351006 
L 71.866378 90.131336 
L 73.801778 90.776038 
L 76.142262 91.311937 
L 79.112876 91.751676 
L 83.253732 92.123432 
L 90.365202 92.506716 
L 113.229927 93.418538 
L 137.91753 94.222865 
L 163.122739 94.812776 
L 193.07643 95.282834 
L 230.996767 95.644924 
L 233.04469 95.659281 
L 233.04469 95.659281 
" style="fill:none;stroke:#f6c19f;stroke-linecap:round;stroke-width:2;"/>
   </g>
   <g id="matplotlib.axis_1">
    <g id="xtick_1">
     <g id="line2d_4">
      <defs>
       <path d="M 0 0 
L 0 3.5 
" id="m6d32cef66a" style="stroke:#262626;stroke-width:0.8;"/>
      </defs>
      <g>
       <use style="fill:#262626;stroke:#262626;stroke-width:0.8;" x="57.530916" xlink:href="#m6d32cef66a" y="100.36"/>
      </g>
     </g>
     <g id="text_1">
      <text style="fill:#262626;font-family:Arial;font-size:10px;font-stretch:normal;font-style:normal;font-weight:normal;text-anchor:middle;" transform="rotate(-0, 57.530916, 114.517813)" x="57.530916" y="114.517813">0</text>
     </g>
    </g>
    <g id="xtick_2">
     <g id="line2d_5">
      <g>
       <use style="fill:#262626;stroke:#262626;stroke-width:0.8;" x="91.287892" xlink:href="#m6d32cef66a" y="100.36"/>
      </g>
     </g>
     <g id="text_2">
      <text style="fill:#262626;font-family:Arial;font-size:10px;font-stretch:normal;font-style:normal;font-weight:normal;text-anchor:middle;" transform="rotate(-0, 91.287892, 114.517813)" x="91.287892" y="114.517813">25</text>
     </g>
    </g>
    <g id="xtick_3">
     <g id="line2d_6">
      <g>
       <use style="fill:#262626;stroke:#262626;stroke-width:0.8;" x="125.044869" xlink:href="#m6d32cef66a" y="100.36"/>
      </g>
     </g>
     <g id="text_3">
      <text style="fill:#262626;font-family:Arial;font-size:10px;font-stretch:normal;font-style:normal;font-weight:normal;text-anchor:middle;" transform="rotate(-0, 125.044869, 114.517813)" x="125.044869" y="114.517813">50</text>
     </g>
    </g>
    <g id="xtick_4">
     <g id="line2d_7">
      <g>
       <use style="fill:#262626;stroke:#262626;stroke-width:0.8;" x="158.801846" xlink:href="#m6d32cef66a" y="100.36"/>
      </g>
     </g>
     <g id="text_4">
      <text style="fill:#262626;font-family:Arial;font-size:10px;font-stretch:normal;font-style:normal;font-weight:normal;text-anchor:middle;" transform="rotate(-0, 158.801846, 114.517813)" x="158.801846" y="114.517813">75</text>
     </g>
    </g>
    <g id="xtick_5">
     <g id="line2d_8">
      <g>
       <use style="fill:#262626;stroke:#262626;stroke-width:0.8;" x="192.558823" xlink:href="#m6d32cef66a" y="100.36"/>
      </g>
     </g>
     <g id="text_5">
      <text style="fill:#262626;font-family:Arial;font-size:10px;font-stretch:normal;font-style:normal;font-weight:normal;text-anchor:middle;" transform="rotate(-0, 192.558823, 114.517813)" x="192.558823" y="114.517813">100</text>
     </g>
    </g>
    <g id="xtick_6">
     <g id="line2d_9">
      <g>
       <use style="fill:#262626;stroke:#262626;stroke-width:0.8;" x="226.315799" xlink:href="#m6d32cef66a" y="100.36"/>
      </g>
     </g>
     <g id="text_6">
      <text style="fill:#262626;font-family:Arial;font-size:10px;font-stretch:normal;font-style:normal;font-weight:normal;text-anchor:middle;" transform="rotate(-0, 226.315799, 114.517813)" x="226.315799" y="114.517813">125</text>
     </g>
    </g>
    <g id="text_7">
     <text style="fill:#262626;font-family:Arial;font-size:10px;font-stretch:normal;font-style:normal;font-weight:normal;text-anchor:middle;" transform="rotate(-0, 140.798125, 127.785)" x="140.798125" y="127.785">Time (min)</text>
    </g>
   </g>
   <g id="matplotlib.axis_2">
    <g id="ytick_1">
     <g id="line2d_10">
      <defs>
       <path d="M 0 0 
L -3.5 0 
" id="m3e6d242107" style="stroke:#262626;stroke-width:0.8;"/>
      </defs>
      <g>
       <use style="fill:#262626;stroke:#262626;stroke-width:0.8;" x="44.028125" xlink:href="#m3e6d242107" y="96.125455"/>
      </g>
     </g>
     <g id="text_8">
      <text style="fill:#262626;font-family:Arial;font-size:10px;font-stretch:normal;font-style:normal;font-weight:normal;text-anchor:end;" transform="rotate(-0, 37.028125, 99.704361)" x="37.028125" y="99.704361">100</text>
     </g>
    </g>
    <g id="ytick_2">
     <g id="line2d_11">
      <g>
       <use style="fill:#262626;stroke:#262626;stroke-width:0.8;" x="44.028125" xlink:href="#m3e6d242107" y="71.583235"/>
      </g>
     </g>
     <g id="text_9">
      <text style="fill:#262626;font-family:Arial;font-size:10px;font-stretch:normal;font-style:normal;font-weight:normal;text-anchor:end;" transform="rotate(-0, 37.028125, 75.162141)" x="37.028125" y="75.162141">200</text>
     </g>
    </g>
    <g id="ytick_3">
     <g id="line2d_12">
      <g>
       <use style="fill:#262626;stroke:#262626;stroke-width:0.8;" x="44.028125" xlink:href="#m3e6d242107" y="47.041016"/>
      </g>
     </g>
     <g id="text_10">
      <text style="fill:#262626;font-family:Arial;font-size:10px;font-stretch:normal;font-style:normal;font-weight:normal;text-anchor:end;" transform="rotate(-0, 37.028125, 50.619922)" x="37.028125" y="50.619922">300</text>
     </g>
    </g>
    <g id="ytick_4">
     <g id="line2d_13">
      <g>
       <use style="fill:#262626;stroke:#262626;stroke-width:0.8;" x="44.028125" xlink:href="#m3e6d242107" y="22.498796"/>
      </g>
     </g>
     <g id="text_11">
      <text style="fill:#262626;font-family:Arial;font-size:10px;font-stretch:normal;font-style:normal;font-weight:normal;text-anchor:end;" transform="rotate(-0, 37.028125, 26.077703)" x="37.028125" y="26.077703">400</text>
     </g>
    </g>
    <g id="text_12">
     <text style="fill:#262626;font-family:Arial;font-size:10px;font-stretch:normal;font-style:normal;font-weight:normal;text-anchor:middle;" transform="rotate(-90, 14.357813, 53.78)" x="14.357813" y="53.78">% of baseline</text>
    </g>
   </g>
   <g id="line2d_14">
    <path clip-path="url(#p157a292960)" d="M 57.530916 96.125455 
L 57.620934 95.757793 
L 60.681567 78.991203 
L 61.896818 74.125728 
L 63.044555 70.417292 
L 64.147283 67.582912 
L 65.205002 65.448685 
L 66.26272 63.800218 
L 67.320439 62.554595 
L 68.400662 61.619113 
L 69.548399 60.919009 
L 70.80866 60.415886 
L 72.248958 60.088118 
L 73.981816 59.930926 
L 76.232281 59.964002 
L 79.360427 60.249131 
L 83.658816 60.873723 
L 88.429802 61.788884 
L 93.223292 62.935075 
L 98.376858 64.401812 
L 104.610646 66.420308 
L 116.200541 70.465816 
L 126.485167 73.941402 
L 134.564337 76.435484 
L 142.350946 78.606482 
L 150.250078 80.576946 
L 158.464276 82.394895 
L 167.106062 84.078021 
L 176.310465 85.642195 
L 186.190006 87.093038 
L 196.857211 88.43213 
L 208.469611 89.662627 
L 221.207244 90.785015 
L 233.04469 91.651113 
L 233.04469 91.651113 
" style="fill:none;stroke:#000000;stroke-linecap:round;stroke-width:2;"/>
   </g>
   <g id="line2d_15">
    <path clip-path="url(#p157a292960)" d="M 57.530916 96.125455 
L 57.620934 95.830195 
L 60.434016 82.741955 
L 61.446725 79.58713 
L 62.39192 77.322947 
L 63.292106 75.708545 
L 64.169788 74.57516 
L 65.024965 73.824787 
L 65.880141 73.362917 
L 66.780327 73.126748 
L 67.793037 73.096098 
L 69.008288 73.292241 
L 70.651127 73.801071 
L 74.364395 75.266726 
L 77.695083 76.445353 
L 80.890744 77.332711 
L 84.739039 78.158294 
L 90.905313 79.220621 
L 107.986344 82.112231 
L 125.674999 85.118876 
L 136.859811 86.777002 
L 147.999613 88.201568 
L 159.724537 89.473796 
L 172.394655 90.621334 
L 186.30253 91.653848 
L 201.78573 92.576117 
L 219.271844 93.390082 
L 233.04469 93.896951 
L 233.04469 93.896951 
" style="fill:none;stroke:#000000;stroke-linecap:round;stroke-opacity:0.75;stroke-width:2;"/>
   </g>
   <g id="line2d_16">
    <path clip-path="url(#p157a292960)" d="M 57.530916 96.125455 
L 57.620934 95.915337 
L 58.296074 93.010314 
L 59.263774 89.461673 
L 60.16396 86.960081 
L 60.996632 85.271127 
L 61.76179 84.189406 
L 62.481939 83.529487 
L 63.179583 83.173331 
L 63.899732 83.049884 
L 64.687395 83.143971 
L 65.63259 83.495817 
L 66.847841 84.203323 
L 68.963278 85.741174 
L 71.956397 87.858262 
L 74.00432 89.0283 
L 76.029739 89.931859 
L 78.21269 90.659549 
L 80.688202 91.245696 
L 83.703825 91.723152 
L 87.732158 92.121964 
L 94.123478 92.505229 
L 110.236809 93.179338 
L 136.432223 94.087272 
L 160.962292 94.705276 
L 189.633218 95.197015 
L 225.550641 95.580412 
L 233.04469 95.637726 
L 233.04469 95.637726 
" style="fill:none;stroke:#000000;stroke-linecap:round;stroke-opacity:0.5;stroke-width:2;"/>
   </g>
   <g id="line2d_17">
    <path clip-path="url(#p157a292960)" d="M 44.028125 96.125455 
L 237.568125 96.125455 
" style="fill:none;stroke:#000000;stroke-dasharray:1.85,0.8;stroke-dashoffset:0;stroke-width:0.5;"/>
   </g>
   <g id="patch_3">
    <path d="M 44.028125 100.36 
L 44.028125 7.2 
" style="fill:none;stroke:#262626;stroke-linecap:square;stroke-linejoin:miter;stroke-width:0.8;"/>
   </g>
   <g id="patch_4">
    <path d="M 44.028125 100.36 
L 237.568125 100.36 
" style="fill:none;stroke:#262626;stroke-linecap:square;stroke-linejoin:miter;stroke-width:0.8;"/>
   </g>
   <g id="text_13">
    <!-- $V_{spine}^{0}=$0.08 $\mu m^3$ -->
    <g style="fill:#262626;" transform="translate(82.736125 16.516)">
     <text>
      <tspan style="font-family:DejaVu Sans;font-size:10px;font-style:oblique;font-weight:oblique;" x="0 60.40918 66.771484" y="-0.875">Vμm</tspan>
      <tspan style="font-family:DejaVu Sans;font-size:7px;font-style:book;font-weight:book;" x="7.543372 76.97681" y="-4.8046875 -4.703125">03</tspan>
      <tspan style="font-family:DejaVu Sans;font-size:7px;font-style:oblique;font-weight:oblique;" x="6.84082 10.487793 14.931152 16.875977 21.3125" y="1.859375">spine</tspan>
      <tspan style="font-family:DejaVu Sans;font-size:10px;font-style:book;font-weight:book;" x="27.84082" y="-0.875">=</tspan>
      <tspan style="font-family:Arial;font-size:10px;font-style:regular;font-weight:regular;" x="38.167969 43.729492 46.507812 52.069336 57.630859" y="-0.875">0.08 </tspan>
     </text>
    </g>
   </g>
   <g id="text_14">
    <!-- 0.15 $\mu m^3$ -->
    <g style="fill:#262626;" transform="translate(82.736125 35.148)">
     <text>
      <tspan style="font-family:Arial;font-size:10px;font-style:regular;font-weight:regular;" x="0 5.561523 8.339844 13.901367 19.462891" y="-0.9765625">0.15 </tspan>
      <tspan style="font-family:DejaVu Sans;font-size:10px;font-style:oblique;font-weight:oblique;" x="22.241211 28.603516" y="-0.9765625">μm</tspan>
      <tspan style="font-family:DejaVu Sans;font-size:7px;font-style:book;font-weight:book;" x="38.808841" y="-4.8046875">3</tspan>
     </text>
    </g>
   </g>
   <g id="text_15">
    <!-- 0.3 $\mu m^3$ -->
    <g style="fill:#262626;" transform="translate(82.736125 53.78)">
     <text>
      <tspan style="font-family:Arial;font-size:10px;font-style:regular;font-weight:regular;" x="0 5.561523 8.339844 13.901367" y="-0.9765625">0.3 </tspan>
      <tspan style="font-family:DejaVu Sans;font-size:10px;font-style:oblique;font-weight:oblique;" x="16.679688 23.041992" y="-0.9765625">μm</tspan>
      <tspan style="font-family:DejaVu Sans;font-size:7px;font-style:book;font-weight:book;" x="33.247318" y="-4.8046875">3</tspan>
     </text>
    </g>
   </g>
   <g id="legend_1">
    <g id="patch_5">
     <path d="M 172.668125 44.9 
L 230.568125 44.9 
Q 232.568125 44.9 232.568125 42.9 
L 232.568125 14.2 
Q 232.568125 12.2 230.568125 12.2 
L 172.668125 12.2 
Q 170.668125 12.2 170.668125 14.2 
L 170.668125 42.9 
Q 170.668125 44.9 172.668125 44.9 
z
" style="fill:#ffffff;opacity:0.8;stroke:#cccccc;stroke-linejoin:miter;"/>
    </g>
    <g id="line2d_18">
     <path d="M 174.668125 20.0125 
L 194.668125 20.0125 
" style="fill:none;stroke:#000000;stroke-linecap:round;stroke-width:2;"/>
    </g>
    <g id="line2d_19"/>
    <g id="text_16">
     <!-- $S_{exo}$ -->
     <g style="fill:#262626;" transform="translate(202.668125 23.5125)">
      <text>
       <tspan style="font-family:DejaVu Sans;font-size:10px;font-style:oblique;font-weight:oblique;" x="0" y="-0.578125">S</tspan>
       <tspan style="font-family:DejaVu Sans;font-size:7px;font-style:oblique;font-weight:oblique;" x="6.347656 10.654297 14.796875" y="1.0625">exo</tspan>
      </text>
     </g>
    </g>
    <g id="line2d_20">
     <path d="M 174.668125 34.3 
L 194.668125 34.3 
" style="fill:none;stroke:#f06043;stroke-linecap:round;stroke-width:2;"/>
    </g>
    <g id="line2d_21"/>
    <g id="text_17">
     <!-- $V_{spine}$ -->
     <g style="fill:#262626;" transform="translate(202.668125 37.8)">
      <text>
       <tspan style="font-family:DejaVu Sans;font-size:10px;font-style:oblique;font-weight:oblique;" x="0" y="-0.703125">V</tspan>
       <tspan style="font-family:DejaVu Sans;font-size:7px;font-style:oblique;font-weight:oblique;" x="6.84082 10.487793 14.931152 16.875977 21.3125" y="0.9375">spine</tspan>
      </text>
     </g>
    </g>
   </g>
  </g>
 </g>
 <defs>
  <clipPath id="p157a292960">
   <rect height="93.16" width="193.54" x="44.028125" y="7.2"/>
  </clipPath>
 </defs>
</svg>
