<?xml version="1.0" encoding="utf-8" standalone="no"?>
<!DOCTYPE svg PUBLIC "-//W3C//DTD SVG 1.1//EN"
  "http://www.w3.org/Graphics/SVG/1.1/DTD/svg11.dtd">
<!-- Created with matplotlib (https://matplotlib.org/) -->
<svg height="79.663163pt" version="1.1" viewBox="0 0 244.297188 79.663163" width="244.297188pt" xmlns="http://www.w3.org/2000/svg" xmlns:xlink="http://www.w3.org/1999/xlink">
 <metadata>
  <rdf:RDF xmlns:cc="http://creativecommons.org/ns#" xmlns:dc="http://purl.org/dc/elements/1.1/" xmlns:rdf="http://www.w3.org/1999/02/22-rdf-syntax-ns#">
   <cc:Work>
    <dc:type rdf:resource="http://purl.org/dc/dcmitype/StillImage"/>
    <dc:date>2021-03-08T11:14:38.544310</dc:date>
    <dc:format>image/svg+xml</dc:format>
    <dc:creator>
     <cc:Agent>
      <dc:title>Matplotlib v3.3.2, https://matplotlib.org/</dc:title>
     </cc:Agent>
    </dc:creator>
   </cc:Work>
  </rdf:RDF>
 </metadata>
 <defs>
  <style type="text/css">*{stroke-linecap:butt;stroke-linejoin:round;}</style>
 </defs>
 <g id="figure_1">
  <g id="patch_1">
   <path d="M 0 79.663163 
L 244.297188 79.663163 
L 244.297188 0 
L 0 0 
z
" style="fill:#ffffff;"/>
  </g>
  <g id="axes_1">
   <g id="patch_2">
    <path d="M 38.467188 38.917851 
L 230.147188 38.917851 
L 230.147188 8.182149 
L 38.467188 8.182149 
z
" style="fill:#ffffff;"/>
   </g>
   <g id="matplotlib.axis_1">
    <g id="xtick_1">
     <g id="line2d_1">
      <defs>
       <path d="M 0 0 
L 0 3.5 
" id="m0e691c0575" style="stroke:#262626;stroke-width:0.8;"/>
      </defs>
      <g>
       <use style="fill:#262626;stroke:#262626;stroke-width:0.8;" x="38.467188" xlink:href="#m0e691c0575" y="38.917851"/>
      </g>
     </g>
     <g id="text_1">
      <text style="fill:#262626;font-family:Arial;font-size:10px;font-stretch:normal;font-style:normal;font-weight:normal;text-anchor:middle;" transform="rotate(-0, 38.467188, 53.075663)" x="38.467188" y="53.075663">0.0</text>
     </g>
    </g>
    <g id="xtick_2">
     <g id="line2d_2">
      <g>
       <use style="fill:#262626;stroke:#262626;stroke-width:0.8;" x="76.803188" xlink:href="#m0e691c0575" y="38.917851"/>
      </g>
     </g>
     <g id="text_2">
      <text style="fill:#262626;font-family:Arial;font-size:10px;font-stretch:normal;font-style:normal;font-weight:normal;text-anchor:middle;" transform="rotate(-0, 76.803188, 53.075663)" x="76.803188" y="53.075663">0.1</text>
     </g>
    </g>
    <g id="xtick_3">
     <g id="line2d_3">
      <g>
       <use style="fill:#262626;stroke:#262626;stroke-width:0.8;" x="115.139188" xlink:href="#m0e691c0575" y="38.917851"/>
      </g>
     </g>
     <g id="text_3">
      <text style="fill:#262626;font-family:Arial;font-size:10px;font-stretch:normal;font-style:normal;font-weight:normal;text-anchor:middle;" transform="rotate(-0, 115.139188, 53.075663)" x="115.139188" y="53.075663">0.2</text>
     </g>
    </g>
    <g id="xtick_4">
     <g id="line2d_4">
      <g>
       <use style="fill:#262626;stroke:#262626;stroke-width:0.8;" x="153.475188" xlink:href="#m0e691c0575" y="38.917851"/>
      </g>
     </g>
     <g id="text_4">
      <text style="fill:#262626;font-family:Arial;font-size:10px;font-stretch:normal;font-style:normal;font-weight:normal;text-anchor:middle;" transform="rotate(-0, 153.475188, 53.075663)" x="153.475188" y="53.075663">0.3</text>
     </g>
    </g>
    <g id="xtick_5">
     <g id="line2d_5">
      <g>
       <use style="fill:#262626;stroke:#262626;stroke-width:0.8;" x="191.811188" xlink:href="#m0e691c0575" y="38.917851"/>
      </g>
     </g>
     <g id="text_5">
      <text style="fill:#262626;font-family:Arial;font-size:10px;font-stretch:normal;font-style:normal;font-weight:normal;text-anchor:middle;" transform="rotate(-0, 191.811188, 53.075663)" x="191.811188" y="53.075663">0.4</text>
     </g>
    </g>
    <g id="xtick_6">
     <g id="line2d_6">
      <g>
       <use style="fill:#262626;stroke:#262626;stroke-width:0.8;" x="230.147188" xlink:href="#m0e691c0575" y="38.917851"/>
      </g>
     </g>
     <g id="text_6">
      <text style="fill:#262626;font-family:Arial;font-size:10px;font-stretch:normal;font-style:normal;font-weight:normal;text-anchor:middle;" transform="rotate(-0, 230.147188, 53.075663)" x="230.147188" y="53.075663">0.5</text>
     </g>
    </g>
    <g id="text_7">
     <!-- $V_{spine}^{0}$ in $\mu m^3$ -->
     <g style="fill:#262626;" transform="translate(104.007188 68.263163)">
      <text>
       <tspan style="font-family:DejaVu Sans;font-size:10px;font-style:oblique;font-weight:oblique;" x="0 39.232422 45.594727" y="-0.875">Vμm</tspan>
       <tspan style="font-family:DejaVu Sans;font-size:7px;font-style:book;font-weight:book;" x="7.543372 55.800052" y="-4.8046875 -4.703125">03</tspan>
       <tspan style="font-family:DejaVu Sans;font-size:7px;font-style:oblique;font-weight:oblique;" x="6.84082 10.487793 14.931152 16.875977 21.3125" y="1.859375">spine</tspan>
       <tspan style="font-family:Arial;font-size:10px;font-style:regular;font-weight:regular;" x="25.892578 28.670898 30.892578 36.454102" y="-0.875"> in </tspan>
      </text>
     </g>
    </g>
   </g>
   <g id="matplotlib.axis_2">
    <g id="ytick_1">
     <g id="line2d_7">
      <defs>
       <path d="M 0 0 
L -3.5 0 
" id="m70979fe158" style="stroke:#262626;stroke-width:0.8;"/>
      </defs>
      <g>
       <use style="fill:#262626;stroke:#262626;stroke-width:0.8;" x="38.467188" xlink:href="#m70979fe158" y="37.521834"/>
      </g>
     </g>
     <g id="text_8">
      <text style="fill:#262626;font-family:Arial;font-size:10px;font-stretch:normal;font-style:normal;font-weight:normal;text-anchor:end;" transform="rotate(-0, 31.467188, 41.10074)" x="31.467188" y="41.10074">0</text>
     </g>
    </g>
    <g id="ytick_2">
     <g id="line2d_8">
      <g>
       <use style="fill:#262626;stroke:#262626;stroke-width:0.8;" x="38.467188" xlink:href="#m70979fe158" y="19.693316"/>
      </g>
     </g>
     <g id="text_9">
      <text style="fill:#262626;font-family:Arial;font-size:10px;font-stretch:normal;font-style:normal;font-weight:normal;text-anchor:end;" transform="rotate(-0, 31.467188, 23.272222)" x="31.467188" y="23.272222">25</text>
     </g>
    </g>
    <g id="text_10">
     <!-- $\Delta B$ in # -->
     <g style="fill:#262626;" transform="translate(14.357813 39.9)rotate(-90)">
      <text>
       <tspan style="font-family:DejaVu Sans;font-size:10px;font-style:book;font-weight:book;" x="0" y="-0.703125">Δ</tspan>
       <tspan style="font-family:DejaVu Sans;font-size:10px;font-style:oblique;font-weight:oblique;" x="6.84082" y="-0.703125">B</tspan>
       <tspan style="font-family:Arial;font-size:10px;font-style:regular;font-weight:regular;" x="13.701172 16.479492 18.701172 24.262695 27.041016" y="-0.703125"> in #</tspan>
      </text>
     </g>
    </g>
   </g>
   <g id="line2d_9">
    <path clip-path="url(#p0820f152b9)" d="M 38.850548 37.520773 
L 43.642548 37.273937 
L 48.434548 36.435272 
L 53.226548 34.76926 
L 58.018548 32.486573 
L 62.810548 30.131712 
L 67.602548 28.041453 
L 72.394548 26.341848 
L 77.186548 25.063185 
L 81.978548 24.193999 
L 86.770548 23.697714 
L 91.562548 23.518902 
L 96.354548 23.590795 
L 101.146548 23.845264 
L 105.938548 24.221639 
L 110.730548 24.671386 
L 115.522548 25.158664 
L 120.314548 25.658486 
L 125.106548 26.154173 
L 129.898548 26.635008 
L 134.690548 27.094412 
L 139.482548 27.528623 
L 144.274548 27.935785 
L 149.066548 28.315316 
L 153.858548 28.667489 
L 158.650548 28.993133 
L 163.442548 29.293438 
L 168.234548 29.569808 
L 173.026548 29.823762 
L 177.818548 30.056867 
L 182.610547 30.270688 
L 187.402548 30.466749 
L 192.194547 30.646518 
L 196.986548 30.811382 
L 201.778548 30.962647 
L 206.570548 31.101527 
L 211.362548 31.229146 
L 216.154548 31.346537 
L 220.946548 31.454645 
L 225.738548 31.554335 
L 230.530548 31.64639 
" style="fill:none;stroke:#98c698;stroke-linecap:round;stroke-width:2;"/>
   </g>
   <g id="line2d_10">
    <path clip-path="url(#p0820f152b9)" d="M 38.850548 36.592249 
L 43.642548 31.209009 
L 48.434548 28.458575 
L 53.226548 26.370787 
L 58.018548 24.559043 
L 62.810548 22.898081 
L 67.602548 21.346203 
L 72.394548 19.895288 
L 77.186548 18.551336 
L 81.978548 17.324129 
L 86.770548 16.221406 
L 91.562548 15.24482 
L 96.354548 14.38911 
L 101.146548 13.644232 
L 105.938548 12.997418 
L 110.730548 12.436658 
L 115.522548 11.950587 
L 120.314548 11.530047 
L 125.106548 11.167017 
L 129.898548 10.855261 
L 134.690548 10.588921 
L 139.482548 10.363317 
L 144.274548 10.174111 
L 149.066548 10.01757 
L 153.858548 9.889774 
L 158.650548 9.788255 
L 163.442548 9.709612 
L 168.234548 9.651578 
L 173.026548 9.611851 
L 177.818548 9.588343 
L 182.610547 9.579227 
L 187.402548 9.582634 
L 192.194547 9.597146 
L 196.986548 9.621738 
L 201.778548 9.654627 
L 206.570548 9.69544 
L 211.362548 9.742514 
L 216.154548 9.795553 
L 220.946548 9.853755 
L 225.738548 9.916152 
L 230.530548 9.982318 
" style="fill:none;stroke:#4a848b;stroke-linecap:round;stroke-width:2;"/>
   </g>
   <g id="patch_3">
    <path d="M 38.467188 38.917851 
L 38.467188 8.182149 
" style="fill:none;stroke:#262626;stroke-linecap:square;stroke-linejoin:miter;stroke-width:0.8;"/>
   </g>
   <g id="patch_4">
    <path d="M 38.467188 38.917851 
L 230.147188 38.917851 
" style="fill:none;stroke:#262626;stroke-linecap:square;stroke-linejoin:miter;stroke-width:0.8;"/>
   </g>
   <g id="legend_1">
    <g id="patch_5">
     <path d="M 121.531311 28.513568 
L 228.989188 28.513568 
Q 230.147188 28.513568 230.147188 27.355568 
L 230.147188 19.744432 
Q 230.147188 18.586432 228.989188 18.586432 
L 121.531311 18.586432 
Q 120.373311 18.586432 120.373311 19.744432 
L 120.373311 27.355568 
Q 120.373311 28.513568 121.531311 28.513568 
z
" style="fill:#ffffff;opacity:0.8;stroke:#cccccc;stroke-linejoin:miter;"/>
    </g>
    <g id="line2d_11">
     <path d="M 122.689311 23.020305 
L 134.269311 23.020305 
" style="fill:none;stroke:#98c698;stroke-linecap:round;stroke-width:2;"/>
    </g>
    <g id="line2d_12"/>
    <g id="text_11">
     <text style="fill:#262626;font-family:Arial;font-size:5.79px;font-stretch:normal;font-style:normal;font-weight:normal;text-anchor:start;" transform="rotate(-0, 138.901311, 25.046805)" x="138.901311" y="25.046805">after 20 min.</text>
    </g>
    <g id="line2d_13">
     <path d="M 182.660141 23.020305 
L 194.240141 23.020305 
" style="fill:none;stroke:#4a848b;stroke-linecap:round;stroke-width:2;"/>
    </g>
    <g id="line2d_14"/>
    <g id="text_12">
     <text style="fill:#262626;font-family:Arial;font-size:5.79px;font-stretch:normal;font-style:normal;font-weight:normal;text-anchor:start;" transform="rotate(-0, 198.872141, 25.046805)" x="198.872141" y="25.046805">after 1 min.</text>
    </g>
   </g>
  </g>
 </g>
 <defs>
  <clipPath id="p0820f152b9">
   <rect height="30.735701" width="191.68" x="38.467188" y="8.182149"/>
  </clipPath>
 </defs>
</svg>
