<?xml version="1.0" encoding="utf-8" standalone="no"?>
<!DOCTYPE svg PUBLIC "-//W3C//DTD SVG 1.1//EN"
  "http://www.w3.org/Graphics/SVG/1.1/DTD/svg11.dtd">
<!-- Created with matplotlib (https://matplotlib.org/) -->
<svg height="158.119268pt" version="1.1" viewBox="0 0 302.246719 158.119268" width="302.246719pt" xmlns="http://www.w3.org/2000/svg" xmlns:xlink="http://www.w3.org/1999/xlink">
 <metadata>
  <rdf:RDF xmlns:cc="http://creativecommons.org/ns#" xmlns:dc="http://purl.org/dc/elements/1.1/" xmlns:rdf="http://www.w3.org/1999/02/22-rdf-syntax-ns#">
   <cc:Work>
    <dc:type rdf:resource="http://purl.org/dc/dcmitype/StillImage"/>
    <dc:date>2021-02-25T11:00:20.658224</dc:date>
    <dc:format>image/svg+xml</dc:format>
    <dc:creator>
     <cc:Agent>
      <dc:title>Matplotlib v3.3.2, https://matplotlib.org/</dc:title>
     </cc:Agent>
    </dc:creator>
   </cc:Work>
  </rdf:RDF>
 </metadata>
 <defs>
  <style type="text/css">*{stroke-linecap:butt;stroke-linejoin:round;}</style>
 </defs>
 <g id="figure_1">
  <g id="patch_1">
   <path d="M 0 158.119268 
L 302.246719 158.119268 
L 302.246719 0 
L 0 0 
z
" style="fill:#ffffff;"/>
  </g>
  <g id="axes_1">
   <g id="patch_2">
    <path d="M 63.505313 121.273956 
L 286.705312 121.273956 
L 286.705312 9.673956 
L 63.505313 9.673956 
z
" style="fill:#ffffff;"/>
   </g>
   <g id="matplotlib.axis_1">
    <g id="xtick_1">
     <g id="line2d_1">
      <defs>
       <path d="M 0 0 
L 0 3.5 
" id="m95a7e7b3d5" style="stroke:#262626;stroke-width:0.8;"/>
      </defs>
      <g>
       <use style="fill:#262626;stroke:#262626;stroke-width:0.8;" x="63.505313" xlink:href="#m95a7e7b3d5" y="121.273956"/>
      </g>
     </g>
     <g id="text_1">
      <!-- 0 -->
      <g style="fill:#262626;" transform="translate(60.724844 135.431768)scale(0.1 -0.1)">
       <defs>
        <path d="M 4.15625 35.296875 
Q 4.15625 48 6.765625 55.734375 
Q 9.375 63.484375 14.515625 67.671875 
Q 19.671875 71.875 27.484375 71.875 
Q 33.25 71.875 37.59375 69.546875 
Q 41.9375 67.234375 44.765625 62.859375 
Q 47.609375 58.5 49.21875 52.21875 
Q 50.828125 45.953125 50.828125 35.296875 
Q 50.828125 22.703125 48.234375 14.96875 
Q 45.65625 7.234375 40.5 3 
Q 35.359375 -1.21875 27.484375 -1.21875 
Q 17.140625 -1.21875 11.234375 6.203125 
Q 4.15625 15.140625 4.15625 35.296875 
z
M 13.1875 35.296875 
Q 13.1875 17.671875 17.3125 11.828125 
Q 21.4375 6 27.484375 6 
Q 33.546875 6 37.671875 11.859375 
Q 41.796875 17.71875 41.796875 35.296875 
Q 41.796875 52.984375 37.671875 58.78125 
Q 33.546875 64.59375 27.390625 64.59375 
Q 21.34375 64.59375 17.71875 59.46875 
Q 13.1875 52.9375 13.1875 35.296875 
z
" id="ArialMT-48"/>
       </defs>
       <use xlink:href="#ArialMT-48"/>
      </g>
     </g>
    </g>
    <g id="xtick_2">
     <g id="line2d_2">
      <g>
       <use style="fill:#262626;stroke:#262626;stroke-width:0.8;" x="100.705313" xlink:href="#m95a7e7b3d5" y="121.273956"/>
      </g>
     </g>
     <g id="text_2">
      <!-- 25 -->
      <g style="fill:#262626;" transform="translate(95.144375 135.431768)scale(0.1 -0.1)">
       <defs>
        <path d="M 50.34375 8.453125 
L 50.34375 0 
L 3.03125 0 
Q 2.9375 3.171875 4.046875 6.109375 
Q 5.859375 10.9375 9.828125 15.625 
Q 13.8125 20.3125 21.34375 26.46875 
Q 33.015625 36.03125 37.109375 41.625 
Q 41.21875 47.21875 41.21875 52.203125 
Q 41.21875 57.421875 37.46875 61 
Q 33.734375 64.59375 27.734375 64.59375 
Q 21.390625 64.59375 17.578125 60.78125 
Q 13.765625 56.984375 13.71875 50.25 
L 4.6875 51.171875 
Q 5.609375 61.28125 11.65625 66.578125 
Q 17.71875 71.875 27.9375 71.875 
Q 38.234375 71.875 44.234375 66.15625 
Q 50.25 60.453125 50.25 52 
Q 50.25 47.703125 48.484375 43.546875 
Q 46.734375 39.40625 42.65625 34.8125 
Q 38.578125 30.21875 29.109375 22.21875 
Q 21.1875 15.578125 18.9375 13.203125 
Q 16.703125 10.84375 15.234375 8.453125 
z
" id="ArialMT-50"/>
        <path d="M 4.15625 18.75 
L 13.375 19.53125 
Q 14.40625 12.796875 18.140625 9.390625 
Q 21.875 6 27.15625 6 
Q 33.5 6 37.890625 10.78125 
Q 42.28125 15.578125 42.28125 23.484375 
Q 42.28125 31 38.0625 35.34375 
Q 33.84375 39.703125 27 39.703125 
Q 22.75 39.703125 19.328125 37.765625 
Q 15.921875 35.84375 13.96875 32.765625 
L 5.71875 33.84375 
L 12.640625 70.609375 
L 48.25 70.609375 
L 48.25 62.203125 
L 19.671875 62.203125 
L 15.828125 42.96875 
Q 22.265625 47.46875 29.34375 47.46875 
Q 38.71875 47.46875 45.15625 40.96875 
Q 51.609375 34.46875 51.609375 24.265625 
Q 51.609375 14.546875 45.953125 7.46875 
Q 39.0625 -1.21875 27.15625 -1.21875 
Q 17.390625 -1.21875 11.203125 4.25 
Q 5.03125 9.71875 4.15625 18.75 
z
" id="ArialMT-53"/>
       </defs>
       <use xlink:href="#ArialMT-50"/>
       <use x="55.615234" xlink:href="#ArialMT-53"/>
      </g>
     </g>
    </g>
    <g id="xtick_3">
     <g id="line2d_3">
      <g>
       <use style="fill:#262626;stroke:#262626;stroke-width:0.8;" x="137.905313" xlink:href="#m95a7e7b3d5" y="121.273956"/>
      </g>
     </g>
     <g id="text_3">
      <!-- 50 -->
      <g style="fill:#262626;" transform="translate(132.344375 135.431768)scale(0.1 -0.1)">
       <use xlink:href="#ArialMT-53"/>
       <use x="55.615234" xlink:href="#ArialMT-48"/>
      </g>
     </g>
    </g>
    <g id="xtick_4">
     <g id="line2d_4">
      <g>
       <use style="fill:#262626;stroke:#262626;stroke-width:0.8;" x="175.105312" xlink:href="#m95a7e7b3d5" y="121.273956"/>
      </g>
     </g>
     <g id="text_4">
      <!-- 75 -->
      <g style="fill:#262626;" transform="translate(169.544375 135.431768)scale(0.1 -0.1)">
       <defs>
        <path d="M 4.734375 62.203125 
L 4.734375 70.65625 
L 51.078125 70.65625 
L 51.078125 63.8125 
Q 44.234375 56.546875 37.515625 44.484375 
Q 30.8125 32.421875 27.15625 19.671875 
Q 24.515625 10.6875 23.78125 0 
L 14.75 0 
Q 14.890625 8.453125 18.0625 20.40625 
Q 21.234375 32.375 27.171875 43.484375 
Q 33.109375 54.59375 39.796875 62.203125 
z
" id="ArialMT-55"/>
       </defs>
       <use xlink:href="#ArialMT-55"/>
       <use x="55.615234" xlink:href="#ArialMT-53"/>
      </g>
     </g>
    </g>
    <g id="xtick_5">
     <g id="line2d_5">
      <g>
       <use style="fill:#262626;stroke:#262626;stroke-width:0.8;" x="212.305313" xlink:href="#m95a7e7b3d5" y="121.273956"/>
      </g>
     </g>
     <g id="text_5">
      <!-- 100 -->
      <g style="fill:#262626;" transform="translate(203.963906 135.431768)scale(0.1 -0.1)">
       <defs>
        <path d="M 37.25 0 
L 28.46875 0 
L 28.46875 56 
Q 25.296875 52.984375 20.140625 49.953125 
Q 14.984375 46.921875 10.890625 45.40625 
L 10.890625 53.90625 
Q 18.265625 57.375 23.78125 62.296875 
Q 29.296875 67.234375 31.59375 71.875 
L 37.25 71.875 
z
" id="ArialMT-49"/>
       </defs>
       <use xlink:href="#ArialMT-49"/>
       <use x="55.615234" xlink:href="#ArialMT-48"/>
       <use x="111.230469" xlink:href="#ArialMT-48"/>
      </g>
     </g>
    </g>
    <g id="xtick_6">
     <g id="line2d_6">
      <g>
       <use style="fill:#262626;stroke:#262626;stroke-width:0.8;" x="249.505313" xlink:href="#m95a7e7b3d5" y="121.273956"/>
      </g>
     </g>
     <g id="text_6">
      <!-- 125 -->
      <g style="fill:#262626;" transform="translate(241.163906 135.431768)scale(0.1 -0.1)">
       <use xlink:href="#ArialMT-49"/>
       <use x="55.615234" xlink:href="#ArialMT-50"/>
       <use x="111.230469" xlink:href="#ArialMT-53"/>
      </g>
     </g>
    </g>
    <g id="xtick_7">
     <g id="line2d_7">
      <g>
       <use style="fill:#262626;stroke:#262626;stroke-width:0.8;" x="286.705312" xlink:href="#m95a7e7b3d5" y="121.273956"/>
      </g>
     </g>
     <g id="text_7">
      <!-- 150 -->
      <g style="fill:#262626;" transform="translate(278.363906 135.431768)scale(0.1 -0.1)">
       <use xlink:href="#ArialMT-49"/>
       <use x="55.615234" xlink:href="#ArialMT-53"/>
       <use x="111.230469" xlink:href="#ArialMT-48"/>
      </g>
     </g>
    </g>
    <g id="text_8">
     <!-- Bound AMPARs $B$ (#) -->
     <g style="fill:#262626;" transform="translate(126.655312 148.719268)scale(0.1 -0.1)">
      <defs>
       <path d="M 7.328125 0 
L 7.328125 71.578125 
L 34.1875 71.578125 
Q 42.390625 71.578125 47.34375 69.40625 
Q 52.296875 67.234375 55.09375 62.71875 
Q 57.90625 58.203125 57.90625 53.265625 
Q 57.90625 48.6875 55.421875 44.625 
Q 52.9375 40.578125 47.90625 38.09375 
Q 54.390625 36.1875 57.875 31.59375 
Q 61.375 27 61.375 20.75 
Q 61.375 15.71875 59.25 11.390625 
Q 57.125 7.078125 54 4.734375 
Q 50.875 2.390625 46.15625 1.1875 
Q 41.453125 0 34.625 0 
z
M 16.796875 41.5 
L 32.28125 41.5 
Q 38.578125 41.5 41.3125 42.328125 
Q 44.921875 43.40625 46.75 45.890625 
Q 48.578125 48.390625 48.578125 52.15625 
Q 48.578125 55.71875 46.875 58.421875 
Q 45.171875 61.140625 41.984375 62.140625 
Q 38.8125 63.140625 31.109375 63.140625 
L 16.796875 63.140625 
z
M 16.796875 8.453125 
L 34.625 8.453125 
Q 39.203125 8.453125 41.0625 8.796875 
Q 44.34375 9.375 46.53125 10.734375 
Q 48.734375 12.109375 50.140625 14.71875 
Q 51.5625 17.328125 51.5625 20.75 
Q 51.5625 24.75 49.515625 27.703125 
Q 47.46875 30.671875 43.828125 31.859375 
Q 40.1875 33.0625 33.34375 33.0625 
L 16.796875 33.0625 
z
" id="ArialMT-66"/>
       <path d="M 3.328125 25.921875 
Q 3.328125 40.328125 11.328125 47.265625 
Q 18.015625 53.03125 27.640625 53.03125 
Q 38.328125 53.03125 45.109375 46.015625 
Q 51.90625 39.015625 51.90625 26.65625 
Q 51.90625 16.65625 48.90625 10.90625 
Q 45.90625 5.171875 40.15625 2 
Q 34.421875 -1.171875 27.640625 -1.171875 
Q 16.75 -1.171875 10.03125 5.8125 
Q 3.328125 12.796875 3.328125 25.921875 
z
M 12.359375 25.921875 
Q 12.359375 15.96875 16.703125 11.015625 
Q 21.046875 6.0625 27.640625 6.0625 
Q 34.1875 6.0625 38.53125 11.03125 
Q 42.875 16.015625 42.875 26.21875 
Q 42.875 35.84375 38.5 40.796875 
Q 34.125 45.75 27.640625 45.75 
Q 21.046875 45.75 16.703125 40.8125 
Q 12.359375 35.890625 12.359375 25.921875 
z
" id="ArialMT-111"/>
       <path d="M 40.578125 0 
L 40.578125 7.625 
Q 34.515625 -1.171875 24.125 -1.171875 
Q 19.53125 -1.171875 15.546875 0.578125 
Q 11.578125 2.34375 9.640625 5 
Q 7.71875 7.671875 6.9375 11.53125 
Q 6.390625 14.109375 6.390625 19.734375 
L 6.390625 51.859375 
L 15.1875 51.859375 
L 15.1875 23.09375 
Q 15.1875 16.21875 15.71875 13.8125 
Q 16.546875 10.359375 19.234375 8.375 
Q 21.921875 6.390625 25.875 6.390625 
Q 29.828125 6.390625 33.296875 8.421875 
Q 36.765625 10.453125 38.203125 13.9375 
Q 39.65625 17.4375 39.65625 24.078125 
L 39.65625 51.859375 
L 48.4375 51.859375 
L 48.4375 0 
z
" id="ArialMT-117"/>
       <path d="M 6.59375 0 
L 6.59375 51.859375 
L 14.5 51.859375 
L 14.5 44.484375 
Q 20.21875 53.03125 31 53.03125 
Q 35.6875 53.03125 39.625 51.34375 
Q 43.5625 49.65625 45.515625 46.921875 
Q 47.46875 44.1875 48.25 40.4375 
Q 48.734375 37.984375 48.734375 31.890625 
L 48.734375 0 
L 39.9375 0 
L 39.9375 31.546875 
Q 39.9375 36.921875 38.90625 39.578125 
Q 37.890625 42.234375 35.28125 43.8125 
Q 32.671875 45.40625 29.15625 45.40625 
Q 23.53125 45.40625 19.453125 41.84375 
Q 15.375 38.28125 15.375 28.328125 
L 15.375 0 
z
" id="ArialMT-110"/>
       <path d="M 40.234375 0 
L 40.234375 6.546875 
Q 35.296875 -1.171875 25.734375 -1.171875 
Q 19.53125 -1.171875 14.328125 2.25 
Q 9.125 5.671875 6.265625 11.796875 
Q 3.421875 17.921875 3.421875 25.875 
Q 3.421875 33.640625 6 39.96875 
Q 8.59375 46.296875 13.765625 49.65625 
Q 18.953125 53.03125 25.34375 53.03125 
Q 30.03125 53.03125 33.6875 51.046875 
Q 37.359375 49.078125 39.65625 45.90625 
L 39.65625 71.578125 
L 48.390625 71.578125 
L 48.390625 0 
z
M 12.453125 25.875 
Q 12.453125 15.921875 16.640625 10.984375 
Q 20.84375 6.0625 26.5625 6.0625 
Q 32.328125 6.0625 36.34375 10.765625 
Q 40.375 15.484375 40.375 25.140625 
Q 40.375 35.796875 36.265625 40.765625 
Q 32.171875 45.75 26.171875 45.75 
Q 20.3125 45.75 16.375 40.96875 
Q 12.453125 36.1875 12.453125 25.875 
z
" id="ArialMT-100"/>
       <path id="ArialMT-32"/>
       <path d="M -0.140625 0 
L 27.34375 71.578125 
L 37.546875 71.578125 
L 66.84375 0 
L 56.0625 0 
L 47.703125 21.6875 
L 17.78125 21.6875 
L 9.90625 0 
z
M 20.515625 29.390625 
L 44.78125 29.390625 
L 37.3125 49.21875 
Q 33.890625 58.25 32.234375 64.0625 
Q 30.859375 57.171875 28.375 50.390625 
z
" id="ArialMT-65"/>
       <path d="M 7.421875 0 
L 7.421875 71.578125 
L 21.6875 71.578125 
L 38.625 20.90625 
Q 40.96875 13.8125 42.046875 10.296875 
Q 43.265625 14.203125 45.84375 21.78125 
L 62.984375 71.578125 
L 75.734375 71.578125 
L 75.734375 0 
L 66.609375 0 
L 66.609375 59.90625 
L 45.796875 0 
L 37.25 0 
L 16.546875 60.9375 
L 16.546875 0 
z
" id="ArialMT-77"/>
       <path d="M 7.71875 0 
L 7.71875 71.578125 
L 34.71875 71.578125 
Q 41.84375 71.578125 45.609375 70.90625 
Q 50.875 70.015625 54.4375 67.546875 
Q 58.015625 65.09375 60.1875 60.640625 
Q 62.359375 56.203125 62.359375 50.875 
Q 62.359375 41.75 56.546875 35.421875 
Q 50.734375 29.109375 35.546875 29.109375 
L 17.1875 29.109375 
L 17.1875 0 
z
M 17.1875 37.546875 
L 35.6875 37.546875 
Q 44.875 37.546875 48.734375 40.96875 
Q 52.59375 44.390625 52.59375 50.59375 
Q 52.59375 55.078125 50.3125 58.265625 
Q 48.046875 61.46875 44.34375 62.5 
Q 41.9375 63.140625 35.5 63.140625 
L 17.1875 63.140625 
z
" id="ArialMT-80"/>
       <path d="M 7.859375 0 
L 7.859375 71.578125 
L 39.59375 71.578125 
Q 49.171875 71.578125 54.140625 69.640625 
Q 59.125 67.71875 62.109375 62.828125 
Q 65.09375 57.953125 65.09375 52.046875 
Q 65.09375 44.4375 60.15625 39.203125 
Q 55.21875 33.984375 44.921875 32.5625 
Q 48.6875 30.765625 50.640625 29 
Q 54.78125 25.203125 58.5 19.484375 
L 70.953125 0 
L 59.03125 0 
L 49.5625 14.890625 
Q 45.40625 21.34375 42.71875 24.75 
Q 40.046875 28.171875 37.921875 29.53125 
Q 35.796875 30.90625 33.59375 31.453125 
Q 31.984375 31.78125 28.328125 31.78125 
L 17.328125 31.78125 
L 17.328125 0 
z
M 17.328125 39.984375 
L 37.703125 39.984375 
Q 44.1875 39.984375 47.84375 41.328125 
Q 51.515625 42.671875 53.421875 45.625 
Q 55.328125 48.578125 55.328125 52.046875 
Q 55.328125 57.125 51.640625 60.390625 
Q 47.953125 63.671875 39.984375 63.671875 
L 17.328125 63.671875 
z
" id="ArialMT-82"/>
       <path d="M 3.078125 15.484375 
L 11.765625 16.84375 
Q 12.5 11.625 15.84375 8.84375 
Q 19.1875 6.0625 25.203125 6.0625 
Q 31.25 6.0625 34.171875 8.515625 
Q 37.109375 10.984375 37.109375 14.3125 
Q 37.109375 17.28125 34.515625 19 
Q 32.71875 20.171875 25.53125 21.96875 
Q 15.875 24.421875 12.140625 26.203125 
Q 8.40625 27.984375 6.46875 31.125 
Q 4.546875 34.28125 4.546875 38.09375 
Q 4.546875 41.546875 6.125 44.5 
Q 7.71875 47.46875 10.453125 49.421875 
Q 12.5 50.921875 16.03125 51.96875 
Q 19.578125 53.03125 23.640625 53.03125 
Q 29.734375 53.03125 34.34375 51.265625 
Q 38.96875 49.515625 41.15625 46.5 
Q 43.359375 43.5 44.1875 38.484375 
L 35.59375 37.3125 
Q 35.015625 41.3125 32.203125 43.546875 
Q 29.390625 45.796875 24.265625 45.796875 
Q 18.21875 45.796875 15.625 43.796875 
Q 13.03125 41.796875 13.03125 39.109375 
Q 13.03125 37.40625 14.109375 36.03125 
Q 15.1875 34.625 17.484375 33.6875 
Q 18.796875 33.203125 25.25 31.453125 
Q 34.578125 28.953125 38.25 27.359375 
Q 41.9375 25.78125 44.03125 22.75 
Q 46.140625 19.734375 46.140625 15.234375 
Q 46.140625 10.84375 43.578125 6.953125 
Q 41.015625 3.078125 36.171875 0.953125 
Q 31.34375 -1.171875 25.25 -1.171875 
Q 15.140625 -1.171875 9.84375 3.03125 
Q 4.546875 7.234375 3.078125 15.484375 
z
" id="ArialMT-115"/>
       <path d="M 16.890625 72.90625 
L 42.09375 72.90625 
Q 52.34375 72.90625 57.421875 69.09375 
Q 62.5 65.28125 62.5 57.625 
Q 62.5 50.59375 58.125 45.484375 
Q 53.765625 40.375 46.6875 39.3125 
Q 52.734375 37.9375 55.765625 34.078125 
Q 58.796875 30.21875 58.796875 23.78125 
Q 58.796875 12.796875 50.65625 6.390625 
Q 42.53125 0 28.421875 0 
L 2.6875 0 
z
M 19.28125 34.8125 
L 14.109375 8.109375 
L 29.984375 8.109375 
Q 38.921875 8.109375 43.75 12.203125 
Q 48.578125 16.3125 48.578125 23.78125 
Q 48.578125 29.546875 45.375 32.171875 
Q 42.1875 34.8125 35.109375 34.8125 
z
M 25.09375 64.796875 
L 20.796875 42.828125 
L 35.5 42.828125 
Q 43.359375 42.828125 47.78125 46.234375 
Q 52.203125 49.65625 52.203125 55.71875 
Q 52.203125 60.453125 49.21875 62.625 
Q 46.234375 64.796875 39.703125 64.796875 
z
" id="DejaVuSans-Oblique-66"/>
       <path d="M 23.390625 -21.046875 
Q 16.109375 -11.859375 11.078125 0.4375 
Q 6.0625 12.75 6.0625 25.921875 
Q 6.0625 37.546875 9.8125 48.1875 
Q 14.203125 60.546875 23.390625 72.796875 
L 29.6875 72.796875 
Q 23.78125 62.640625 21.875 58.296875 
Q 18.890625 51.5625 17.1875 44.234375 
Q 15.09375 35.109375 15.09375 25.875 
Q 15.09375 2.390625 29.6875 -21.046875 
z
" id="ArialMT-40"/>
       <path d="M 5.03125 -1.21875 
L 9.28125 19.578125 
L 1.03125 19.578125 
L 1.03125 26.859375 
L 10.75 26.859375 
L 14.359375 44.578125 
L 1.03125 44.578125 
L 1.03125 51.859375 
L 15.828125 51.859375 
L 20.0625 72.796875 
L 27.390625 72.796875 
L 23.140625 51.859375 
L 38.53125 51.859375 
L 42.78125 72.796875 
L 50.140625 72.796875 
L 45.90625 51.859375 
L 54.34375 51.859375 
L 54.34375 44.578125 
L 44.4375 44.578125 
L 40.765625 26.859375 
L 54.34375 26.859375 
L 54.34375 19.578125 
L 39.3125 19.578125 
L 35.0625 -1.21875 
L 27.734375 -1.21875 
L 31.9375 19.578125 
L 16.609375 19.578125 
L 12.359375 -1.21875 
z
M 18.0625 26.859375 
L 33.40625 26.859375 
L 37.0625 44.578125 
L 21.6875 44.578125 
z
" id="ArialMT-35"/>
       <path d="M 12.359375 -21.046875 
L 6.0625 -21.046875 
Q 20.65625 2.390625 20.65625 25.875 
Q 20.65625 35.0625 18.5625 44.09375 
Q 16.890625 51.421875 13.921875 58.15625 
Q 12.015625 62.546875 6.0625 72.796875 
L 12.359375 72.796875 
Q 21.53125 60.546875 25.921875 48.1875 
Q 29.6875 37.546875 29.6875 25.921875 
Q 29.6875 12.75 24.625 0.4375 
Q 19.578125 -11.859375 12.359375 -21.046875 
z
" id="ArialMT-41"/>
      </defs>
      <use transform="translate(0 0.09375)" xlink:href="#ArialMT-66"/>
      <use transform="translate(66.699219 0.09375)" xlink:href="#ArialMT-111"/>
      <use transform="translate(122.314453 0.09375)" xlink:href="#ArialMT-117"/>
      <use transform="translate(177.929688 0.09375)" xlink:href="#ArialMT-110"/>
      <use transform="translate(233.544922 0.09375)" xlink:href="#ArialMT-100"/>
      <use transform="translate(289.160156 0.09375)" xlink:href="#ArialMT-32"/>
      <use transform="translate(316.943359 0.09375)" xlink:href="#ArialMT-65"/>
      <use transform="translate(383.642578 0.09375)" xlink:href="#ArialMT-77"/>
      <use transform="translate(466.943359 0.09375)" xlink:href="#ArialMT-80"/>
      <use transform="translate(533.642578 0.09375)" xlink:href="#ArialMT-65"/>
      <use transform="translate(600.341797 0.09375)" xlink:href="#ArialMT-82"/>
      <use transform="translate(672.558594 0.09375)" xlink:href="#ArialMT-115"/>
      <use transform="translate(722.558594 0.09375)" xlink:href="#ArialMT-32"/>
      <use transform="translate(750.341797 0.09375)" xlink:href="#DejaVuSans-Oblique-66"/>
      <use transform="translate(818.945312 0.09375)" xlink:href="#ArialMT-32"/>
      <use transform="translate(846.728516 0.09375)" xlink:href="#ArialMT-40"/>
      <use transform="translate(880.029297 0.09375)" xlink:href="#ArialMT-35"/>
      <use transform="translate(935.644531 0.09375)" xlink:href="#ArialMT-41"/>
     </g>
    </g>
   </g>
   <g id="matplotlib.axis_2">
    <g id="ytick_1">
     <g id="line2d_8">
      <defs>
       <path d="M 0 0 
L -3.5 0 
" id="m95fbde8b6c" style="stroke:#262626;stroke-width:0.8;"/>
      </defs>
      <g>
       <use style="fill:#262626;stroke:#262626;stroke-width:0.8;" x="63.505313" xlink:href="#m95fbde8b6c" y="121.273956"/>
      </g>
     </g>
     <g id="text_9">
      <!-- 0.00 -->
      <g style="fill:#262626;" transform="translate(37.044375 124.852862)scale(0.1 -0.1)">
       <defs>
        <path d="M 9.078125 0 
L 9.078125 10.015625 
L 19.09375 10.015625 
L 19.09375 0 
z
" id="ArialMT-46"/>
       </defs>
       <use xlink:href="#ArialMT-48"/>
       <use x="55.615234" xlink:href="#ArialMT-46"/>
       <use x="83.398438" xlink:href="#ArialMT-48"/>
       <use x="139.013672" xlink:href="#ArialMT-48"/>
      </g>
     </g>
    </g>
    <g id="ytick_2">
     <g id="line2d_9">
      <g>
       <use style="fill:#262626;stroke:#262626;stroke-width:0.8;" x="63.505313" xlink:href="#m95fbde8b6c" y="93.650193"/>
      </g>
     </g>
     <g id="text_10">
      <!-- 0.25 -->
      <g style="fill:#262626;" transform="translate(37.044375 97.2291)scale(0.1 -0.1)">
       <use xlink:href="#ArialMT-48"/>
       <use x="55.615234" xlink:href="#ArialMT-46"/>
       <use x="83.398438" xlink:href="#ArialMT-50"/>
       <use x="139.013672" xlink:href="#ArialMT-53"/>
      </g>
     </g>
    </g>
    <g id="ytick_3">
     <g id="line2d_10">
      <g>
       <use style="fill:#262626;stroke:#262626;stroke-width:0.8;" x="63.505313" xlink:href="#m95fbde8b6c" y="66.026431"/>
      </g>
     </g>
     <g id="text_11">
      <!-- 0.50 -->
      <g style="fill:#262626;" transform="translate(37.044375 69.605337)scale(0.1 -0.1)">
       <use xlink:href="#ArialMT-48"/>
       <use x="55.615234" xlink:href="#ArialMT-46"/>
       <use x="83.398438" xlink:href="#ArialMT-53"/>
       <use x="139.013672" xlink:href="#ArialMT-48"/>
      </g>
     </g>
    </g>
    <g id="ytick_4">
     <g id="line2d_11">
      <g>
       <use style="fill:#262626;stroke:#262626;stroke-width:0.8;" x="63.505313" xlink:href="#m95fbde8b6c" y="38.402669"/>
      </g>
     </g>
     <g id="text_12">
      <!-- 0.75 -->
      <g style="fill:#262626;" transform="translate(37.044375 41.981575)scale(0.1 -0.1)">
       <use xlink:href="#ArialMT-48"/>
       <use x="55.615234" xlink:href="#ArialMT-46"/>
       <use x="83.398438" xlink:href="#ArialMT-55"/>
       <use x="139.013672" xlink:href="#ArialMT-53"/>
      </g>
     </g>
    </g>
    <g id="ytick_5">
     <g id="line2d_12">
      <g>
       <use style="fill:#262626;stroke:#262626;stroke-width:0.8;" x="63.505313" xlink:href="#m95fbde8b6c" y="10.778906"/>
      </g>
     </g>
     <g id="text_13">
      <!-- 1.00 -->
      <g style="fill:#262626;" transform="translate(37.044375 14.357812)scale(0.1 -0.1)">
       <use xlink:href="#ArialMT-49"/>
       <use x="55.615234" xlink:href="#ArialMT-46"/>
       <use x="83.398438" xlink:href="#ArialMT-48"/>
       <use x="139.013672" xlink:href="#ArialMT-48"/>
      </g>
     </g>
    </g>
    <g id="text_14">
     <!-- Cooperative unbinding -->
     <g style="fill:#262626;" transform="translate(14.479687 115.506768)rotate(-90)scale(0.1 -0.1)">
      <defs>
       <path d="M 58.796875 25.09375 
L 68.265625 22.703125 
Q 65.28125 11.03125 57.546875 4.90625 
Q 49.8125 -1.21875 38.625 -1.21875 
Q 27.046875 -1.21875 19.796875 3.484375 
Q 12.546875 8.203125 8.765625 17.140625 
Q 4.984375 26.078125 4.984375 36.328125 
Q 4.984375 47.515625 9.25 55.828125 
Q 13.53125 64.15625 21.40625 68.46875 
Q 29.296875 72.796875 38.765625 72.796875 
Q 49.515625 72.796875 56.828125 67.328125 
Q 64.15625 61.859375 67.046875 51.953125 
L 57.71875 49.75 
Q 55.21875 57.5625 50.484375 61.125 
Q 45.75 64.703125 38.578125 64.703125 
Q 30.328125 64.703125 24.78125 60.734375 
Q 19.234375 56.78125 16.984375 50.109375 
Q 14.75 43.453125 14.75 36.375 
Q 14.75 27.25 17.40625 20.4375 
Q 20.0625 13.625 25.671875 10.25 
Q 31.296875 6.890625 37.84375 6.890625 
Q 45.796875 6.890625 51.3125 11.46875 
Q 56.84375 16.0625 58.796875 25.09375 
z
" id="ArialMT-67"/>
       <path d="M 6.59375 -19.875 
L 6.59375 51.859375 
L 14.59375 51.859375 
L 14.59375 45.125 
Q 17.4375 49.078125 21 51.046875 
Q 24.5625 53.03125 29.640625 53.03125 
Q 36.28125 53.03125 41.359375 49.609375 
Q 46.4375 46.1875 49.015625 39.953125 
Q 51.609375 33.734375 51.609375 26.3125 
Q 51.609375 18.359375 48.75 11.984375 
Q 45.90625 5.609375 40.453125 2.21875 
Q 35.015625 -1.171875 29 -1.171875 
Q 24.609375 -1.171875 21.109375 0.6875 
Q 17.625 2.546875 15.375 5.375 
L 15.375 -19.875 
z
M 14.546875 25.640625 
Q 14.546875 15.625 18.59375 10.84375 
Q 22.65625 6.0625 28.421875 6.0625 
Q 34.28125 6.0625 38.453125 11.015625 
Q 42.625 15.96875 42.625 26.375 
Q 42.625 36.28125 38.546875 41.203125 
Q 34.46875 46.140625 28.8125 46.140625 
Q 23.1875 46.140625 18.859375 40.890625 
Q 14.546875 35.640625 14.546875 25.640625 
z
" id="ArialMT-112"/>
       <path d="M 42.09375 16.703125 
L 51.171875 15.578125 
Q 49.03125 7.625 43.21875 3.21875 
Q 37.40625 -1.171875 28.375 -1.171875 
Q 17 -1.171875 10.328125 5.828125 
Q 3.65625 12.84375 3.65625 25.484375 
Q 3.65625 38.578125 10.390625 45.796875 
Q 17.140625 53.03125 27.875 53.03125 
Q 38.28125 53.03125 44.875 45.953125 
Q 51.46875 38.875 51.46875 26.03125 
Q 51.46875 25.25 51.421875 23.6875 
L 12.75 23.6875 
Q 13.234375 15.140625 17.578125 10.59375 
Q 21.921875 6.0625 28.421875 6.0625 
Q 33.25 6.0625 36.671875 8.59375 
Q 40.09375 11.140625 42.09375 16.703125 
z
M 13.234375 30.90625 
L 42.1875 30.90625 
Q 41.609375 37.453125 38.875 40.71875 
Q 34.671875 45.796875 27.984375 45.796875 
Q 21.921875 45.796875 17.796875 41.75 
Q 13.671875 37.703125 13.234375 30.90625 
z
" id="ArialMT-101"/>
       <path d="M 6.5 0 
L 6.5 51.859375 
L 14.40625 51.859375 
L 14.40625 44 
Q 17.4375 49.515625 20 51.265625 
Q 22.5625 53.03125 25.640625 53.03125 
Q 30.078125 53.03125 34.671875 50.203125 
L 31.640625 42.046875 
Q 28.421875 43.953125 25.203125 43.953125 
Q 22.3125 43.953125 20.015625 42.21875 
Q 17.71875 40.484375 16.75 37.40625 
Q 15.28125 32.71875 15.28125 27.15625 
L 15.28125 0 
z
" id="ArialMT-114"/>
       <path d="M 40.4375 6.390625 
Q 35.546875 2.25 31.03125 0.53125 
Q 26.515625 -1.171875 21.34375 -1.171875 
Q 12.796875 -1.171875 8.203125 3 
Q 3.609375 7.171875 3.609375 13.671875 
Q 3.609375 17.484375 5.34375 20.625 
Q 7.078125 23.78125 9.890625 25.6875 
Q 12.703125 27.59375 16.21875 28.5625 
Q 18.796875 29.25 24.03125 29.890625 
Q 34.671875 31.15625 39.703125 32.90625 
Q 39.75 34.71875 39.75 35.203125 
Q 39.75 40.578125 37.25 42.78125 
Q 33.890625 45.75 27.25 45.75 
Q 21.046875 45.75 18.09375 43.578125 
Q 15.140625 41.40625 13.71875 35.890625 
L 5.125 37.0625 
Q 6.296875 42.578125 8.984375 45.96875 
Q 11.671875 49.359375 16.75 51.1875 
Q 21.828125 53.03125 28.515625 53.03125 
Q 35.15625 53.03125 39.296875 51.46875 
Q 43.453125 49.90625 45.40625 47.53125 
Q 47.359375 45.171875 48.140625 41.546875 
Q 48.578125 39.3125 48.578125 33.453125 
L 48.578125 21.734375 
Q 48.578125 9.46875 49.140625 6.21875 
Q 49.703125 2.984375 51.375 0 
L 42.1875 0 
Q 40.828125 2.734375 40.4375 6.390625 
z
M 39.703125 26.03125 
Q 34.90625 24.078125 25.34375 22.703125 
Q 19.921875 21.921875 17.671875 20.9375 
Q 15.4375 19.96875 14.203125 18.09375 
Q 12.984375 16.21875 12.984375 13.921875 
Q 12.984375 10.40625 15.640625 8.0625 
Q 18.3125 5.71875 23.4375 5.71875 
Q 28.515625 5.71875 32.46875 7.9375 
Q 36.421875 10.15625 38.28125 14.015625 
Q 39.703125 17 39.703125 22.796875 
z
" id="ArialMT-97"/>
       <path d="M 25.78125 7.859375 
L 27.046875 0.09375 
Q 23.34375 -0.6875 20.40625 -0.6875 
Q 15.625 -0.6875 12.984375 0.828125 
Q 10.359375 2.34375 9.28125 4.8125 
Q 8.203125 7.28125 8.203125 15.1875 
L 8.203125 45.015625 
L 1.765625 45.015625 
L 1.765625 51.859375 
L 8.203125 51.859375 
L 8.203125 64.703125 
L 16.9375 69.96875 
L 16.9375 51.859375 
L 25.78125 51.859375 
L 25.78125 45.015625 
L 16.9375 45.015625 
L 16.9375 14.703125 
Q 16.9375 10.9375 17.40625 9.859375 
Q 17.875 8.796875 18.921875 8.15625 
Q 19.96875 7.515625 21.921875 7.515625 
Q 23.390625 7.515625 25.78125 7.859375 
z
" id="ArialMT-116"/>
       <path d="M 6.640625 61.46875 
L 6.640625 71.578125 
L 15.4375 71.578125 
L 15.4375 61.46875 
z
M 6.640625 0 
L 6.640625 51.859375 
L 15.4375 51.859375 
L 15.4375 0 
z
" id="ArialMT-105"/>
       <path d="M 21 0 
L 1.265625 51.859375 
L 10.546875 51.859375 
L 21.6875 20.796875 
Q 23.484375 15.765625 25 10.359375 
Q 26.171875 14.453125 28.265625 20.21875 
L 39.796875 51.859375 
L 48.828125 51.859375 
L 29.203125 0 
z
" id="ArialMT-118"/>
       <path d="M 14.703125 0 
L 6.546875 0 
L 6.546875 71.578125 
L 15.328125 71.578125 
L 15.328125 46.046875 
Q 20.90625 53.03125 29.546875 53.03125 
Q 34.328125 53.03125 38.59375 51.09375 
Q 42.875 49.171875 45.625 45.671875 
Q 48.390625 42.1875 49.953125 37.25 
Q 51.515625 32.328125 51.515625 26.703125 
Q 51.515625 13.375 44.921875 6.09375 
Q 38.328125 -1.171875 29.109375 -1.171875 
Q 19.921875 -1.171875 14.703125 6.5 
z
M 14.59375 26.3125 
Q 14.59375 17 17.140625 12.84375 
Q 21.296875 6.0625 28.375 6.0625 
Q 34.125 6.0625 38.328125 11.0625 
Q 42.53125 16.0625 42.53125 25.984375 
Q 42.53125 36.140625 38.5 40.96875 
Q 34.46875 45.796875 28.765625 45.796875 
Q 23 45.796875 18.796875 40.796875 
Q 14.59375 35.796875 14.59375 26.3125 
z
" id="ArialMT-98"/>
       <path d="M 4.984375 -4.296875 
L 13.53125 -5.5625 
Q 14.0625 -9.515625 16.5 -11.328125 
Q 19.78125 -13.765625 25.4375 -13.765625 
Q 31.546875 -13.765625 34.859375 -11.328125 
Q 38.1875 -8.890625 39.359375 -4.5 
Q 40.046875 -1.8125 39.984375 6.78125 
Q 34.234375 0 25.640625 0 
Q 14.9375 0 9.078125 7.71875 
Q 3.21875 15.4375 3.21875 26.21875 
Q 3.21875 33.640625 5.90625 39.90625 
Q 8.59375 46.1875 13.6875 49.609375 
Q 18.796875 53.03125 25.6875 53.03125 
Q 34.859375 53.03125 40.828125 45.609375 
L 40.828125 51.859375 
L 48.921875 51.859375 
L 48.921875 7.03125 
Q 48.921875 -5.078125 46.453125 -10.125 
Q 44 -15.1875 38.640625 -18.109375 
Q 33.296875 -21.046875 25.484375 -21.046875 
Q 16.21875 -21.046875 10.5 -16.875 
Q 4.78125 -12.703125 4.984375 -4.296875 
z
M 12.25 26.859375 
Q 12.25 16.65625 16.296875 11.96875 
Q 20.359375 7.28125 26.46875 7.28125 
Q 32.515625 7.28125 36.609375 11.9375 
Q 40.71875 16.609375 40.71875 26.5625 
Q 40.71875 36.078125 36.5 40.90625 
Q 32.28125 45.75 26.3125 45.75 
Q 20.453125 45.75 16.34375 40.984375 
Q 12.25 36.234375 12.25 26.859375 
z
" id="ArialMT-103"/>
      </defs>
      <use xlink:href="#ArialMT-67"/>
      <use x="72.216797" xlink:href="#ArialMT-111"/>
      <use x="127.832031" xlink:href="#ArialMT-111"/>
      <use x="183.447266" xlink:href="#ArialMT-112"/>
      <use x="239.0625" xlink:href="#ArialMT-101"/>
      <use x="294.677734" xlink:href="#ArialMT-114"/>
      <use x="327.978516" xlink:href="#ArialMT-97"/>
      <use x="383.59375" xlink:href="#ArialMT-116"/>
      <use x="411.376953" xlink:href="#ArialMT-105"/>
      <use x="433.59375" xlink:href="#ArialMT-118"/>
      <use x="483.59375" xlink:href="#ArialMT-101"/>
      <use x="539.208984" xlink:href="#ArialMT-32"/>
      <use x="566.992188" xlink:href="#ArialMT-117"/>
      <use x="622.607422" xlink:href="#ArialMT-110"/>
      <use x="678.222656" xlink:href="#ArialMT-98"/>
      <use x="733.837891" xlink:href="#ArialMT-105"/>
      <use x="756.054688" xlink:href="#ArialMT-110"/>
      <use x="811.669922" xlink:href="#ArialMT-100"/>
      <use x="867.285156" xlink:href="#ArialMT-105"/>
      <use x="889.501953" xlink:href="#ArialMT-110"/>
      <use x="945.117188" xlink:href="#ArialMT-103"/>
     </g>
     <!--  $\langle \hat{k}_{BU}^{coop} \rangle/k_{BU}$ -->
     <g style="fill:#262626;" transform="translate(30.144375 91.973956)rotate(-90)scale(0.1 -0.1)">
      <defs>
       <path d="M 8.9375 31.34375 
L 22.703125 75.875 
L 31 75.875 
L 17.234375 31.34375 
L 31 -13.1875 
L 22.703125 -13.1875 
z
" id="DejaVuSans-10216"/>
       <path d="M -28.609375 79.984375 
L -21.390625 79.984375 
L -9.421875 61.625 
L -16.21875 61.625 
L -25 73.578125 
L -33.796875 61.625 
L -40.578125 61.625 
z
M -25 56 
z
" id="DejaVuSans-770"/>
       <path d="M 18.3125 75.984375 
L 27.296875 75.984375 
L 18.703125 31.6875 
L 49.515625 54.6875 
L 61.1875 54.6875 
L 26.8125 28.515625 
L 51.90625 0 
L 41.015625 0 
L 17.671875 26.703125 
L 12.5 0 
L 3.515625 0 
z
" id="DejaVuSans-Oblique-107"/>
       <path d="M 53.609375 52.59375 
L 51.8125 43.703125 
Q 48.578125 46.046875 44.9375 47.21875 
Q 41.3125 48.390625 37.40625 48.390625 
Q 33.109375 48.390625 29.21875 46.875 
Q 25.34375 45.359375 22.703125 42.578125 
Q 18.5 38.328125 16.203125 32.609375 
Q 13.921875 26.90625 13.921875 20.796875 
Q 13.921875 13.421875 17.609375 9.8125 
Q 21.296875 6.203125 28.8125 6.203125 
Q 32.515625 6.203125 36.6875 7.328125 
Q 40.875 8.453125 45.40625 10.6875 
L 43.703125 1.8125 
Q 39.796875 0.203125 35.671875 -0.609375 
Q 31.546875 -1.421875 27.203125 -1.421875 
Q 16.3125 -1.421875 10.453125 4.015625 
Q 4.59375 9.46875 4.59375 19.578125 
Q 4.59375 28.078125 7.640625 35.234375 
Q 10.6875 42.390625 16.703125 48.09375 
Q 20.796875 52 26.3125 54 
Q 31.84375 56 38.375 56 
Q 42.1875 56 45.9375 55.140625 
Q 49.703125 54.296875 53.609375 52.59375 
z
" id="DejaVuSans-Oblique-99"/>
       <path d="M 25.390625 -1.421875 
Q 15.765625 -1.421875 10.171875 4.515625 
Q 4.59375 10.453125 4.59375 20.703125 
Q 4.59375 26.65625 6.515625 32.828125 
Q 8.453125 39.015625 11.53125 43.21875 
Q 16.359375 49.75 22.3125 52.875 
Q 28.265625 56 35.796875 56 
Q 45.125 56 50.859375 50.1875 
Q 56.59375 44.390625 56.59375 35.015625 
Q 56.59375 28.515625 54.6875 22.0625 
Q 52.78125 15.625 49.703125 11.375 
Q 44.921875 4.828125 38.96875 1.703125 
Q 33.015625 -1.421875 25.390625 -1.421875 
z
M 13.921875 21 
Q 13.921875 13.578125 17.015625 9.890625 
Q 20.125 6.203125 26.421875 6.203125 
Q 35.453125 6.203125 41.375 14.078125 
Q 47.3125 21.96875 47.3125 34.078125 
Q 47.3125 41.15625 44.140625 44.765625 
Q 40.96875 48.390625 34.8125 48.390625 
Q 29.734375 48.390625 25.78125 46.015625 
Q 21.828125 43.65625 18.703125 38.8125 
Q 16.40625 35.203125 15.15625 30.5625 
Q 13.921875 25.921875 13.921875 21 
z
" id="DejaVuSans-Oblique-111"/>
       <path d="M 49.609375 33.6875 
Q 49.609375 40.875 46.484375 44.671875 
Q 43.359375 48.484375 37.5 48.484375 
Q 33.5 48.484375 29.859375 46.4375 
Q 26.21875 44.390625 23.390625 40.484375 
Q 20.609375 36.625 18.9375 31.15625 
Q 17.28125 25.6875 17.28125 20.3125 
Q 17.28125 13.484375 20.40625 9.796875 
Q 23.53125 6.109375 29.296875 6.109375 
Q 33.546875 6.109375 37.1875 8.109375 
Q 40.828125 10.109375 43.40625 13.921875 
Q 46.1875 17.921875 47.890625 23.34375 
Q 49.609375 28.765625 49.609375 33.6875 
z
M 21.78125 46.390625 
Q 25.390625 51.125 30.296875 53.5625 
Q 35.203125 56 41.21875 56 
Q 49.609375 56 54.25 50.5 
Q 58.890625 45.015625 58.890625 35.109375 
Q 58.890625 27 56 19.65625 
Q 53.125 12.3125 47.703125 6.5 
Q 44.09375 2.640625 39.546875 0.609375 
Q 35.015625 -1.421875 29.984375 -1.421875 
Q 24.171875 -1.421875 20.21875 1 
Q 16.265625 3.421875 14.3125 8.203125 
L 8.6875 -20.796875 
L -0.296875 -20.796875 
L 14.40625 54.6875 
L 23.390625 54.6875 
z
" id="DejaVuSans-Oblique-112"/>
       <path d="M 15.484375 72.90625 
L 25.390625 72.90625 
L 16.796875 28.609375 
Q 16.265625 25.640625 16.046875 23.703125 
Q 15.828125 21.78125 15.828125 20.3125 
Q 15.828125 13.578125 19.578125 10.078125 
Q 23.34375 6.59375 30.609375 6.59375 
Q 40.046875 6.59375 45.28125 11.765625 
Q 50.53125 16.9375 52.78125 28.609375 
L 61.375 72.90625 
L 71.296875 72.90625 
L 62.5 27.390625 
Q 59.625 12.640625 51.5625 5.609375 
Q 43.5 -1.421875 29.5 -1.421875 
Q 18.5625 -1.421875 12.1875 4.078125 
Q 5.8125 9.578125 5.8125 19 
Q 5.8125 20.703125 6.046875 22.828125 
Q 6.296875 24.953125 6.78125 27.390625 
z
" id="DejaVuSans-Oblique-85"/>
       <path d="M 30.078125 31.34375 
L 16.3125 -13.1875 
L 8.015625 -13.1875 
L 21.78125 31.34375 
L 8.015625 75.875 
L 16.3125 75.875 
z
" id="DejaVuSans-10217"/>
       <path d="M 25.390625 72.90625 
L 33.6875 72.90625 
L 8.296875 -9.28125 
L 0 -9.28125 
z
" id="DejaVuSans-47"/>
      </defs>
      <use transform="translate(0 0.53125)" xlink:href="#ArialMT-32"/>
      <use transform="translate(27.783203 0.53125)" xlink:href="#DejaVuSans-10216"/>
      <use transform="translate(127.852539 33.015625)" xlink:href="#DejaVuSans-770"/>
      <use transform="translate(66.796875 0.53125)" xlink:href="#DejaVuSans-Oblique-107"/>
      <use transform="translate(125.664062 51.279688)scale(0.7)" xlink:href="#DejaVuSans-Oblique-99"/>
      <use transform="translate(164.150391 51.279688)scale(0.7)" xlink:href="#DejaVuSans-Oblique-111"/>
      <use transform="translate(206.977539 51.279688)scale(0.7)" xlink:href="#DejaVuSans-Oblique-111"/>
      <use transform="translate(249.804688 51.279688)scale(0.7)" xlink:href="#DejaVuSans-Oblique-112"/>
      <use transform="translate(125.664062 -26.8125)scale(0.7)" xlink:href="#DejaVuSans-Oblique-66"/>
      <use transform="translate(173.686523 -26.8125)scale(0.7)" xlink:href="#DejaVuSans-Oblique-85"/>
      <use transform="translate(296.972656 0.53125)" xlink:href="#DejaVuSans-10217"/>
      <use transform="translate(335.986328 0.53125)" xlink:href="#DejaVuSans-47"/>
      <use transform="translate(369.677734 0.53125)" xlink:href="#DejaVuSans-Oblique-107"/>
      <use transform="translate(427.587891 -15.875)scale(0.7)" xlink:href="#DejaVuSans-Oblique-66"/>
      <use transform="translate(475.610352 -15.875)scale(0.7)" xlink:href="#DejaVuSans-Oblique-85"/>
     </g>
    </g>
   </g>
   <g id="line2d_13">
    <path clip-path="url(#pd082d69904)" d="M 64.993313 10.778906 
L 66.481313 17.658897 
L 67.969313 23.811433 
L 69.457313 29.115801 
L 70.945312 33.927936 
L 72.433312 38.765475 
L 73.921312 42.497458 
L 75.409312 46.913981 
L 76.897312 50.975525 
L 78.385312 54.554965 
L 79.873312 57.77227 
L 81.361312 60.997135 
L 82.849312 64.13408 
L 84.337312 66.961021 
L 85.825312 69.679512 
L 87.313312 72.775726 
L 88.801312 75.365117 
L 90.289312 77.756372 
L 91.777312 79.992327 
L 93.265312 82.093573 
L 94.753313 83.974609 
L 96.241312 85.673245 
L 97.729312 87.43713 
L 99.217313 89.012962 
L 100.705313 90.335342 
" style="fill:none;stroke:#98c698;stroke-linecap:round;stroke-width:3;"/>
   </g>
   <g id="line2d_14">
    <path clip-path="url(#pd082d69904)" d="M 64.993313 11.340386 
L 66.481313 17.577698 
L 67.969313 23.361103 
L 69.457313 28.738409 
L 70.945312 33.750939 
L 72.433312 38.434591 
L 73.921312 42.820706 
L 75.409312 46.936763 
L 76.897312 50.806958 
L 78.385312 54.452682 
L 79.873312 57.892913 
L 81.361312 61.144549 
L 82.849312 64.222684 
L 84.337312 67.140845 
L 85.825312 69.911186 
L 87.313312 72.544661 
L 88.801312 75.05117 
L 90.289312 77.439677 
L 91.777312 79.718324 
L 93.265312 81.89452 
L 94.753313 83.975023 
L 96.241312 85.966008 
L 97.729312 87.873133 
L 99.217313 89.701584 
" style="fill:none;stroke:#000000;stroke-dasharray:5.55,2.4;stroke-dashoffset:0;stroke-width:1.5;"/>
   </g>
   <g id="line2d_15">
    <path clip-path="url(#pd082d69904)" d="M 64.993313 10.778906 
L 66.481313 15.372906 
L 67.969313 19.363526 
L 69.457313 23.452025 
L 70.945312 26.851375 
L 72.433312 30.141282 
L 73.921312 32.999457 
L 75.409312 35.747357 
L 76.897312 38.791921 
L 78.385312 41.319098 
L 79.873312 43.751554 
L 81.361312 45.736977 
L 82.849312 48.099352 
L 84.337312 50.742154 
L 85.825312 53.329285 
L 87.313312 55.289952 
L 88.801312 57.376124 
L 90.289312 59.285141 
L 91.777312 61.779591 
L 93.265312 64.448074 
L 94.753313 65.774946 
L 96.241312 67.638795 
L 97.729312 69.041381 
L 99.217313 70.78832 
L 100.705313 72.445449 
L 102.193313 74.35994 
L 103.681313 75.424813 
L 105.169313 76.585036 
L 106.657313 78.160784 
L 108.145313 79.560359 
L 109.633313 81.007413 
L 111.121313 82.144965 
L 112.609313 83.480111 
L 114.097313 84.770493 
L 115.585313 85.920476 
L 117.073313 87.047076 
L 118.561312 88.295362 
L 120.049312 89.414133 
L 121.537312 90.601477 
L 123.025312 91.637364 
L 124.513313 92.646827 
L 126.001313 93.575271 
L 127.489313 94.302476 
L 128.977312 95.075227 
L 130.465312 95.823337 
L 131.953312 96.645717 
L 133.441312 97.310655 
L 134.929313 98.004306 
L 136.417313 98.723946 
" style="fill:none;stroke:#5b9e8d;stroke-linecap:round;stroke-width:3;"/>
   </g>
   <g id="line2d_16">
    <path clip-path="url(#pd082d69904)" d="M 64.993313 11.84651 
L 66.481313 15.706542 
L 67.969313 19.389758 
L 69.457313 22.908035 
L 70.945312 26.272209 
L 72.433312 29.492189 
L 73.921312 32.57705 
L 75.409312 35.535123 
L 76.897312 38.374066 
L 78.385312 41.100935 
L 79.873312 43.722237 
L 81.361312 46.243986 
L 82.849312 48.671748 
L 84.337312 51.010681 
L 85.825312 53.265573 
L 87.313312 55.440874 
L 88.801312 57.540723 
L 90.289312 59.568981 
L 91.777312 61.529247 
L 93.265312 63.424883 
L 94.753313 65.259033 
L 96.241312 67.034643 
L 97.729312 68.754469 
L 99.217313 70.421101 
L 100.705313 72.036969 
L 102.193313 73.604356 
L 103.681313 75.125414 
L 105.169313 76.602166 
L 106.657313 78.036519 
L 108.145313 79.430275 
L 109.633313 80.785133 
L 111.121313 82.102698 
L 112.609313 83.38449 
L 114.097313 84.631946 
L 115.585313 85.846427 
L 117.073313 87.029224 
L 118.561312 88.18156 
L 120.049312 89.304598 
L 121.537312 90.399441 
L 123.025312 91.467137 
L 124.513313 92.508684 
L 126.001313 93.525031 
L 127.489313 94.517081 
L 128.977312 95.485695 
L 130.465312 96.431695 
L 131.953312 97.355862 
L 133.441312 98.258944 
L 134.929313 99.141656 
" style="fill:none;stroke:#000000;stroke-dasharray:5.55,2.4;stroke-dashoffset:0;stroke-width:1.5;"/>
   </g>
   <g id="line2d_17">
    <path clip-path="url(#pd082d69904)" d="M 64.993313 10.778906 
L 66.481313 13.187601 
L 67.969313 15.963785 
L 69.457313 18.57571 
L 70.945312 21.183961 
L 72.433312 22.864479 
L 73.921312 24.548635 
L 75.409312 27.287229 
L 76.897312 28.823243 
L 78.385312 30.212628 
L 79.873312 32.082241 
L 81.361312 34.324654 
L 82.849312 35.646063 
L 84.337312 36.881626 
L 85.825312 38.185724 
L 87.313312 39.138116 
L 88.801312 40.976181 
L 90.289312 42.281298 
L 91.777312 43.912826 
L 93.265312 44.979298 
L 94.753313 46.086336 
L 96.241312 47.379713 
L 97.729312 49.01712 
L 99.217313 50.861646 
L 100.705313 52.056055 
L 102.193313 53.131159 
L 103.681313 54.84451 
L 105.169313 56.194711 
L 106.657313 56.950355 
L 108.145313 58.269407 
L 109.633313 59.303962 
L 111.121313 59.971919 
L 112.609313 61.137377 
L 114.097313 62.289736 
L 115.585313 63.903636 
L 117.073313 64.668104 
L 118.561312 65.876562 
L 120.049312 66.473779 
L 121.537312 67.773038 
L 123.025312 68.772672 
L 124.513313 70.035416 
L 126.001313 71.242963 
L 127.489313 72.132176 
L 128.977312 73.003558 
L 130.465312 74.13189 
L 131.953312 75.38378 
L 133.441312 75.791666 
L 134.929313 76.00667 
L 136.417313 76.594293 
L 137.905313 77.396946 
L 139.393313 78.457202 
L 140.881313 78.912201 
L 142.369313 79.987064 
L 143.857313 81.175707 
L 145.345313 81.683557 
L 146.833313 82.385503 
L 148.321313 83.173471 
L 149.809313 84.462209 
L 151.297313 85.463224 
L 152.785313 85.918393 
L 154.273313 86.927437 
L 155.761313 87.108238 
L 157.249313 88.180947 
L 158.737313 88.8196 
L 160.225313 89.613979 
L 161.713313 89.993842 
L 163.201313 90.617911 
L 164.689312 91.314972 
L 166.177312 91.67685 
L 167.665312 92.35629 
L 169.153312 92.971106 
L 170.641312 93.461643 
L 172.129312 94.144436 
L 173.617312 94.511538 
L 175.105312 95.012758 
L 176.593312 95.587568 
L 178.081312 95.874482 
L 179.569312 96.468978 
L 181.057312 96.884308 
L 182.545312 97.376077 
L 184.033313 97.95898 
L 185.521313 98.43328 
L 187.009313 98.929494 
L 188.497313 99.324284 
L 189.985313 99.743088 
L 191.473313 100.256426 
L 192.961312 100.632859 
L 194.449312 100.944279 
L 195.937312 101.303722 
L 197.425312 101.749114 
L 198.913312 102.127609 
L 200.401312 102.485898 
L 201.889312 102.898443 
L 203.377312 103.292041 
L 204.865312 103.643117 
L 206.353313 103.983216 
L 207.841313 104.308798 
L 209.329313 104.629632 
L 210.817313 104.931383 
L 212.305313 105.252174 
" style="fill:none;stroke:#406582;stroke-linecap:round;stroke-width:3;"/>
   </g>
   <g id="line2d_18">
    <path clip-path="url(#pd082d69904)" d="M 64.993313 11.747505 
L 66.481313 13.962294 
L 67.969313 16.118333 
L 69.457313 18.21793 
L 70.945312 20.263271 
L 72.433312 22.256434 
L 73.921312 24.199388 
L 75.409312 26.094009 
L 76.897312 27.942078 
L 78.385312 29.745289 
L 79.873312 31.505256 
L 81.361312 33.223516 
L 82.849312 34.901534 
L 84.337312 36.540708 
L 85.825312 38.142372 
L 87.313312 39.707797 
L 88.801312 41.2382 
L 90.289312 42.734744 
L 91.777312 44.19854 
L 93.265312 45.630651 
L 94.753313 47.032095 
L 96.241312 48.403846 
L 97.729312 49.746839 
L 99.217313 51.061967 
L 100.705313 52.350091 
L 102.193313 53.612032 
L 103.681313 54.848581 
L 105.169313 56.060497 
L 106.657313 57.248509 
L 108.145313 58.413317 
L 109.633313 59.555594 
L 111.121313 60.675987 
L 112.609313 61.77512 
L 114.097313 62.853593 
L 115.585313 63.911981 
L 117.073313 64.950842 
L 118.561312 65.97071 
L 120.049312 66.972102 
L 121.537312 67.955514 
L 123.025312 68.921428 
L 124.513313 69.870307 
L 126.001313 70.802595 
L 127.489313 71.718726 
L 128.977312 72.619116 
L 130.465312 73.504166 
L 131.953312 74.374266 
L 133.441312 75.229791 
L 134.929313 76.071104 
L 136.417313 76.898557 
L 137.905313 77.712488 
L 139.393313 78.513228 
L 140.881313 79.301094 
L 142.369313 80.076394 
L 143.857313 80.839426 
L 145.345313 81.59048 
L 146.833313 82.329834 
L 148.321313 83.057761 
L 149.809313 83.774523 
L 151.297313 84.480375 
L 152.785313 85.175565 
L 154.273313 85.860332 
L 155.761313 86.534908 
L 157.249313 87.19952 
L 158.737313 87.854387 
L 160.225313 88.499721 
L 161.713313 89.13573 
L 163.201313 89.762613 
L 164.689312 90.380567 
L 166.177312 90.989779 
L 167.665312 91.590435 
L 169.153312 92.182714 
L 170.641312 92.766789 
L 172.129312 93.34283 
L 173.617312 93.911001 
L 175.105312 94.471463 
L 176.593312 95.024371 
L 178.081312 95.569878 
L 179.569312 96.10813 
L 181.057312 96.639272 
L 182.545312 97.163443 
L 184.033313 97.680781 
L 185.521313 98.191416 
L 187.009313 98.69548 
L 188.497313 99.193098 
L 189.985313 99.684393 
L 191.473313 100.169484 
L 192.961312 100.648489 
L 194.449312 101.121521 
L 195.937312 101.588691 
L 197.425312 102.050108 
L 198.913312 102.505877 
L 200.401312 102.956102 
L 201.889312 103.400882 
L 203.377312 103.840316 
L 204.865312 104.2745 
L 206.353313 104.703528 
L 207.841313 105.12749 
L 209.329313 105.546476 
L 210.817313 105.960573 
" style="fill:none;stroke:#000000;stroke-dasharray:5.55,2.4;stroke-dashoffset:0;stroke-width:1.5;"/>
   </g>
   <g id="line2d_19">
    <path clip-path="url(#pd082d69904)" d="M 64.993313 10.778906 
L 67.969313 14.440096 
L 70.945312 18.925907 
L 72.433312 20.768328 
L 73.921312 21.979023 
L 76.897312 25.299089 
L 78.385312 25.280594 
L 79.873312 26.791922 
L 81.361312 27.298753 
L 82.849312 28.775824 
L 85.825312 32.137279 
L 87.313312 33.021036 
L 88.801312 35.079486 
L 91.777312 36.726334 
L 93.265312 37.817241 
L 94.753313 39.115062 
L 96.241312 39.834542 
L 97.729312 40.739461 
L 99.217313 41.95005 
L 100.705313 43.00763 
L 102.193313 43.592158 
L 103.681313 44.337843 
L 105.169313 46.09786 
L 106.657313 47.104058 
L 108.145313 48.312791 
L 109.633313 49.273111 
L 111.121313 49.983671 
L 112.609313 50.542587 
L 114.097313 51.766049 
L 115.585313 52.251287 
L 118.561312 53.513134 
L 120.049312 54.989056 
L 121.537312 56.181782 
L 123.025312 56.943356 
L 124.513313 57.342767 
L 128.977312 59.936585 
L 130.465312 61.067477 
L 131.953312 61.892716 
L 133.441312 63.241979 
L 137.905313 65.025103 
L 139.393313 65.539938 
L 140.881313 66.830594 
L 142.369313 67.328958 
L 145.345313 68.714449 
L 149.809313 71.293091 
L 151.297313 71.830928 
L 152.785313 71.980198 
L 154.273313 72.674406 
L 155.761313 73.190787 
L 158.737313 73.793041 
L 160.225313 74.637181 
L 161.713313 75.107662 
L 163.201313 76.109814 
L 164.689312 76.8273 
L 166.177312 77.064498 
L 170.641312 78.767992 
L 172.129312 79.893066 
L 173.617312 80.415532 
L 176.593312 82.188723 
L 178.081312 82.626371 
L 181.057312 83.999721 
L 182.545312 84.136039 
L 184.033313 84.78952 
L 185.521313 84.620023 
L 187.009313 85.065569 
L 188.497313 86.367957 
L 191.473313 87.100421 
L 192.961312 88.272162 
L 194.449312 88.320286 
L 197.425312 89.544897 
L 198.913312 89.752345 
L 200.401312 90.643888 
L 201.889312 91.216998 
L 203.377312 91.402624 
L 204.865312 92.08444 
L 206.353313 92.262411 
L 209.329313 93.289953 
L 215.281313 95.272366 
L 216.769313 95.523658 
L 221.233313 97.005072 
L 222.721313 97.286109 
L 227.185313 98.573205 
L 230.161313 99.114157 
L 231.649313 99.454501 
L 233.137313 99.994407 
L 236.113313 100.468036 
L 237.601313 100.793059 
L 239.089313 100.97334 
L 242.065313 101.717606 
L 246.529313 102.564911 
L 250.993313 103.419507 
L 256.945312 104.494846 
L 267.361312 106.284805 
L 276.289312 107.624762 
L 277.777312 107.845738 
L 277.777312 107.845738 
" style="fill:none;stroke:#342d53;stroke-linecap:round;stroke-width:3;"/>
   </g>
   <g id="line2d_20">
    <path clip-path="url(#pd082d69904)" d="M 64.993313 11.346217 
L 69.457313 16.147071 
L 73.921312 20.676732 
L 78.385312 24.957547 
L 84.337312 30.312397 
L 90.289312 35.30178 
L 96.241312 39.961874 
L 102.193313 44.324237 
L 108.145313 48.416518 
L 114.097313 52.263047 
L 120.049312 55.885315 
L 127.489313 60.12661 
L 134.929313 64.079806 
L 142.369313 67.773292 
L 149.809313 71.231848 
L 157.249313 74.477197 
L 166.177312 78.116952 
L 175.105312 81.506001 
L 184.033313 84.669385 
L 194.449312 88.103728 
L 204.865312 91.290509 
L 215.281313 94.255562 
L 227.185313 97.401243 
L 239.089313 100.315215 
L 252.481313 103.347078 
L 265.873312 106.146926 
L 276.289312 108.180737 
L 276.289312 108.180737 
" style="fill:none;stroke:#000000;stroke-dasharray:5.55,2.4;stroke-dashoffset:0;stroke-width:1.5;"/>
   </g>
   <g id="patch_3">
    <path d="M 63.505313 121.273956 
L 63.505313 9.673956 
" style="fill:none;stroke:#262626;stroke-linecap:square;stroke-linejoin:miter;stroke-width:0.8;"/>
   </g>
   <g id="patch_4">
    <path d="M 63.505313 121.273956 
L 286.705312 121.273956 
" style="fill:none;stroke:#262626;stroke-linecap:square;stroke-linejoin:miter;stroke-width:0.8;"/>
   </g>
   <g id="text_15">
    <!-- $k_{UB}$=0.0005 $(\# s)^{-1}$ -->
    <g style="fill:#262626;" transform="translate(175.105312 65.473956)scale(0.1 -0.1)">
     <defs>
      <path d="M 52.828125 42.09375 
L 5.5625 42.09375 
L 5.5625 50.296875 
L 52.828125 50.296875 
z
M 52.828125 20.359375 
L 5.5625 20.359375 
L 5.5625 28.5625 
L 52.828125 28.5625 
z
" id="ArialMT-61"/>
      <path d="M 31 75.875 
Q 24.46875 64.65625 21.28125 53.65625 
Q 18.109375 42.671875 18.109375 31.390625 
Q 18.109375 20.125 21.3125 9.0625 
Q 24.515625 -2 31 -13.1875 
L 23.1875 -13.1875 
Q 15.875 -1.703125 12.234375 9.375 
Q 8.59375 20.453125 8.59375 31.390625 
Q 8.59375 42.28125 12.203125 53.3125 
Q 15.828125 64.359375 23.1875 75.875 
z
" id="DejaVuSans-40"/>
      <path d="M 51.125 44 
L 36.921875 44 
L 32.8125 27.6875 
L 47.125 27.6875 
z
M 43.796875 71.78125 
L 38.71875 51.515625 
L 52.984375 51.515625 
L 58.109375 71.78125 
L 65.921875 71.78125 
L 60.890625 51.515625 
L 76.125 51.515625 
L 76.125 44 
L 58.984375 44 
L 54.984375 27.6875 
L 70.515625 27.6875 
L 70.515625 20.21875 
L 53.078125 20.21875 
L 48 0 
L 40.1875 0 
L 45.21875 20.21875 
L 30.90625 20.21875 
L 25.875 0 
L 18.015625 0 
L 23.09375 20.21875 
L 7.71875 20.21875 
L 7.71875 27.6875 
L 24.90625 27.6875 
L 29 44 
L 13.28125 44 
L 13.28125 51.515625 
L 30.90625 51.515625 
L 35.890625 71.78125 
z
" id="DejaVuSans-35"/>
      <path d="M 50 53.078125 
L 48.296875 44.578125 
Q 44.734375 46.53125 40.765625 47.5 
Q 36.8125 48.484375 32.625 48.484375 
Q 25.53125 48.484375 21.453125 46.0625 
Q 17.390625 43.65625 17.390625 39.5 
Q 17.390625 34.671875 26.859375 32.078125 
Q 27.59375 31.890625 27.9375 31.78125 
L 30.8125 30.90625 
Q 39.796875 28.421875 42.796875 25.6875 
Q 45.796875 22.953125 45.796875 18.21875 
Q 45.796875 9.515625 38.890625 4.046875 
Q 31.984375 -1.421875 20.796875 -1.421875 
Q 16.453125 -1.421875 11.671875 -0.578125 
Q 6.890625 0.25 1.125 2 
L 2.875 11.28125 
Q 7.8125 8.734375 12.59375 7.421875 
Q 17.390625 6.109375 21.78125 6.109375 
Q 28.375 6.109375 32.5 8.9375 
Q 36.625 11.765625 36.625 16.109375 
Q 36.625 20.796875 25.78125 23.6875 
L 24.859375 23.921875 
L 21.78125 24.703125 
Q 14.9375 26.515625 11.765625 29.46875 
Q 8.59375 32.421875 8.59375 37.015625 
Q 8.59375 45.75 15.15625 50.875 
Q 21.734375 56 33.015625 56 
Q 37.453125 56 41.671875 55.265625 
Q 45.90625 54.546875 50 53.078125 
z
" id="DejaVuSans-Oblique-115"/>
      <path d="M 8.015625 75.875 
L 15.828125 75.875 
Q 23.140625 64.359375 26.78125 53.3125 
Q 30.421875 42.28125 30.421875 31.390625 
Q 30.421875 20.453125 26.78125 9.375 
Q 23.140625 -1.703125 15.828125 -13.1875 
L 8.015625 -13.1875 
Q 14.5 -2 17.703125 9.0625 
Q 20.90625 20.125 20.90625 31.390625 
Q 20.90625 42.671875 17.703125 53.65625 
Q 14.5 64.65625 8.015625 75.875 
z
" id="DejaVuSans-41"/>
      <path d="M 10.59375 35.5 
L 73.1875 35.5 
L 73.1875 27.203125 
L 10.59375 27.203125 
z
" id="DejaVuSans-8722"/>
      <path d="M 12.40625 8.296875 
L 28.515625 8.296875 
L 28.515625 63.921875 
L 10.984375 60.40625 
L 10.984375 69.390625 
L 28.421875 72.90625 
L 38.28125 72.90625 
L 38.28125 8.296875 
L 54.390625 8.296875 
L 54.390625 0 
L 12.40625 0 
z
" id="DejaVuSans-49"/>
     </defs>
     <use transform="translate(0 0.684375)" xlink:href="#DejaVuSans-Oblique-107"/>
     <use transform="translate(57.910156 -15.721875)scale(0.7)" xlink:href="#DejaVuSans-Oblique-85"/>
     <use transform="translate(109.145508 -15.721875)scale(0.7)" xlink:href="#DejaVuSans-Oblique-66"/>
     <use transform="translate(159.902344 0.684375)" xlink:href="#ArialMT-61"/>
     <use transform="translate(218.300781 0.684375)" xlink:href="#ArialMT-48"/>
     <use transform="translate(273.916016 0.684375)" xlink:href="#ArialMT-46"/>
     <use transform="translate(301.699219 0.684375)" xlink:href="#ArialMT-48"/>
     <use transform="translate(357.314453 0.684375)" xlink:href="#ArialMT-48"/>
     <use transform="translate(412.929688 0.684375)" xlink:href="#ArialMT-48"/>
     <use transform="translate(468.544922 0.684375)" xlink:href="#ArialMT-53"/>
     <use transform="translate(524.160156 0.684375)" xlink:href="#ArialMT-32"/>
     <use transform="translate(551.943359 0.684375)" xlink:href="#DejaVuSans-40"/>
     <use transform="translate(590.957031 0.684375)" xlink:href="#DejaVuSans-35"/>
     <use transform="translate(674.746094 0.684375)" xlink:href="#DejaVuSans-Oblique-115"/>
     <use transform="translate(726.845703 0.684375)" xlink:href="#DejaVuSans-41"/>
     <use transform="translate(766.816406 38.965625)scale(0.7)" xlink:href="#DejaVuSans-8722"/>
     <use transform="translate(825.46875 38.965625)scale(0.7)" xlink:href="#DejaVuSans-49"/>
    </g>
   </g>
   <g id="legend_1">
    <g id="patch_5">
     <path d="M 161.338812 35.739046 
L 285.039312 35.739046 
Q 286.705312 35.739046 286.705312 34.073046 
L 286.705312 11.339956 
Q 286.705312 9.673956 285.039312 9.673956 
L 161.338812 9.673956 
Q 159.672812 9.673956 159.672812 11.339956 
L 159.672812 34.073046 
Q 159.672812 35.739046 161.338812 35.739046 
z
" style="fill:#ffffff;opacity:0.8;stroke:#cccccc;stroke-linejoin:miter;"/>
    </g>
    <g id="line2d_21">
     <path d="M 163.004812 16.052914 
L 179.664812 16.052914 
" style="fill:none;stroke:#98c698;stroke-linecap:round;stroke-width:3;"/>
    </g>
    <g id="line2d_22"/>
    <g id="text_16">
     <!-- $P=25$ -->
     <g style="fill:#262626;" transform="translate(186.328812 18.968414)scale(0.0833 -0.0833)">
      <defs>
       <path d="M 16.890625 72.90625 
L 39.703125 72.90625 
Q 49.65625 72.90625 54.875 68.265625 
Q 60.109375 63.625 60.109375 54.6875 
Q 60.109375 42.671875 52.390625 35.984375 
Q 44.671875 29.296875 30.71875 29.296875 
L 18.3125 29.296875 
L 12.59375 0 
L 2.6875 0 
z
M 25.203125 64.796875 
L 19.921875 37.40625 
L 32.328125 37.40625 
Q 40.71875 37.40625 45.203125 41.703125 
Q 49.703125 46 49.703125 54 
Q 49.703125 59.125 46.65625 61.953125 
Q 43.609375 64.796875 38.09375 64.796875 
z
" id="DejaVuSans-Oblique-80"/>
       <path d="M 10.59375 45.40625 
L 73.1875 45.40625 
L 73.1875 37.203125 
L 10.59375 37.203125 
z
M 10.59375 25.484375 
L 73.1875 25.484375 
L 73.1875 17.1875 
L 10.59375 17.1875 
z
" id="DejaVuSans-61"/>
       <path d="M 19.1875 8.296875 
L 53.609375 8.296875 
L 53.609375 0 
L 7.328125 0 
L 7.328125 8.296875 
Q 12.9375 14.109375 22.625 23.890625 
Q 32.328125 33.6875 34.8125 36.53125 
Q 39.546875 41.84375 41.421875 45.53125 
Q 43.3125 49.21875 43.3125 52.78125 
Q 43.3125 58.59375 39.234375 62.25 
Q 35.15625 65.921875 28.609375 65.921875 
Q 23.96875 65.921875 18.8125 64.3125 
Q 13.671875 62.703125 7.8125 59.421875 
L 7.8125 69.390625 
Q 13.765625 71.78125 18.9375 73 
Q 24.125 74.21875 28.421875 74.21875 
Q 39.75 74.21875 46.484375 68.546875 
Q 53.21875 62.890625 53.21875 53.421875 
Q 53.21875 48.921875 51.53125 44.890625 
Q 49.859375 40.875 45.40625 35.40625 
Q 44.1875 33.984375 37.640625 27.21875 
Q 31.109375 20.453125 19.1875 8.296875 
z
" id="DejaVuSans-50"/>
       <path d="M 10.796875 72.90625 
L 49.515625 72.90625 
L 49.515625 64.59375 
L 19.828125 64.59375 
L 19.828125 46.734375 
Q 21.96875 47.46875 24.109375 47.828125 
Q 26.265625 48.1875 28.421875 48.1875 
Q 40.625 48.1875 47.75 41.5 
Q 54.890625 34.8125 54.890625 23.390625 
Q 54.890625 11.625 47.5625 5.09375 
Q 40.234375 -1.421875 26.90625 -1.421875 
Q 22.3125 -1.421875 17.546875 -0.640625 
Q 12.796875 0.140625 7.71875 1.703125 
L 7.71875 11.625 
Q 12.109375 9.234375 16.796875 8.0625 
Q 21.484375 6.890625 26.703125 6.890625 
Q 35.15625 6.890625 40.078125 11.328125 
Q 45.015625 15.765625 45.015625 23.390625 
Q 45.015625 31 40.078125 35.4375 
Q 35.15625 39.890625 26.703125 39.890625 
Q 22.75 39.890625 18.8125 39.015625 
Q 14.890625 38.140625 10.796875 36.28125 
z
" id="DejaVuSans-53"/>
      </defs>
      <use transform="translate(0 0.78125)" xlink:href="#DejaVuSans-Oblique-80"/>
      <use transform="translate(79.785156 0.78125)" xlink:href="#DejaVuSans-61"/>
      <use transform="translate(183.056641 0.78125)" xlink:href="#DejaVuSans-50"/>
      <use transform="translate(246.679688 0.78125)" xlink:href="#DejaVuSans-53"/>
     </g>
    </g>
    <g id="line2d_23">
     <path d="M 163.004812 27.835959 
L 179.664812 27.835959 
" style="fill:none;stroke:#5b9e8d;stroke-linecap:round;stroke-width:3;"/>
    </g>
    <g id="line2d_24"/>
    <g id="text_17">
     <!-- $P=49$ -->
     <g style="fill:#262626;" transform="translate(186.328812 30.751459)scale(0.0833 -0.0833)">
      <defs>
       <path d="M 37.796875 64.3125 
L 12.890625 25.390625 
L 37.796875 25.390625 
z
M 35.203125 72.90625 
L 47.609375 72.90625 
L 47.609375 25.390625 
L 58.015625 25.390625 
L 58.015625 17.1875 
L 47.609375 17.1875 
L 47.609375 0 
L 37.796875 0 
L 37.796875 17.1875 
L 4.890625 17.1875 
L 4.890625 26.703125 
z
" id="DejaVuSans-52"/>
       <path d="M 10.984375 1.515625 
L 10.984375 10.5 
Q 14.703125 8.734375 18.5 7.8125 
Q 22.3125 6.890625 25.984375 6.890625 
Q 35.75 6.890625 40.890625 13.453125 
Q 46.046875 20.015625 46.78125 33.40625 
Q 43.953125 29.203125 39.59375 26.953125 
Q 35.25 24.703125 29.984375 24.703125 
Q 19.046875 24.703125 12.671875 31.3125 
Q 6.296875 37.9375 6.296875 49.421875 
Q 6.296875 60.640625 12.9375 67.421875 
Q 19.578125 74.21875 30.609375 74.21875 
Q 43.265625 74.21875 49.921875 64.515625 
Q 56.59375 54.828125 56.59375 36.375 
Q 56.59375 19.140625 48.40625 8.859375 
Q 40.234375 -1.421875 26.421875 -1.421875 
Q 22.703125 -1.421875 18.890625 -0.6875 
Q 15.09375 0.046875 10.984375 1.515625 
z
M 30.609375 32.421875 
Q 37.25 32.421875 41.125 36.953125 
Q 45.015625 41.5 45.015625 49.421875 
Q 45.015625 57.28125 41.125 61.84375 
Q 37.25 66.40625 30.609375 66.40625 
Q 23.96875 66.40625 20.09375 61.84375 
Q 16.21875 57.28125 16.21875 49.421875 
Q 16.21875 41.5 20.09375 36.953125 
Q 23.96875 32.421875 30.609375 32.421875 
z
" id="DejaVuSans-57"/>
      </defs>
      <use transform="translate(0 0.78125)" xlink:href="#DejaVuSans-Oblique-80"/>
      <use transform="translate(79.785156 0.78125)" xlink:href="#DejaVuSans-61"/>
      <use transform="translate(183.056641 0.78125)" xlink:href="#DejaVuSans-52"/>
      <use transform="translate(246.679688 0.78125)" xlink:href="#DejaVuSans-57"/>
     </g>
    </g>
    <g id="line2d_25">
     <path d="M 228.895112 16.052914 
L 245.555112 16.052914 
" style="fill:none;stroke:#406582;stroke-linecap:round;stroke-width:3;"/>
    </g>
    <g id="line2d_26"/>
    <g id="text_18">
     <!-- $P=100$ -->
     <g style="fill:#262626;" transform="translate(252.219112 18.968414)scale(0.0833 -0.0833)">
      <defs>
       <path d="M 31.78125 66.40625 
Q 24.171875 66.40625 20.328125 58.90625 
Q 16.5 51.421875 16.5 36.375 
Q 16.5 21.390625 20.328125 13.890625 
Q 24.171875 6.390625 31.78125 6.390625 
Q 39.453125 6.390625 43.28125 13.890625 
Q 47.125 21.390625 47.125 36.375 
Q 47.125 51.421875 43.28125 58.90625 
Q 39.453125 66.40625 31.78125 66.40625 
z
M 31.78125 74.21875 
Q 44.046875 74.21875 50.515625 64.515625 
Q 56.984375 54.828125 56.984375 36.375 
Q 56.984375 17.96875 50.515625 8.265625 
Q 44.046875 -1.421875 31.78125 -1.421875 
Q 19.53125 -1.421875 13.0625 8.265625 
Q 6.59375 17.96875 6.59375 36.375 
Q 6.59375 54.828125 13.0625 64.515625 
Q 19.53125 74.21875 31.78125 74.21875 
z
" id="DejaVuSans-48"/>
      </defs>
      <use transform="translate(0 0.78125)" xlink:href="#DejaVuSans-Oblique-80"/>
      <use transform="translate(79.785156 0.78125)" xlink:href="#DejaVuSans-61"/>
      <use transform="translate(183.056641 0.78125)" xlink:href="#DejaVuSans-49"/>
      <use transform="translate(246.679688 0.78125)" xlink:href="#DejaVuSans-48"/>
      <use transform="translate(310.302734 0.78125)" xlink:href="#DejaVuSans-48"/>
     </g>
    </g>
    <g id="line2d_27">
     <path d="M 228.895112 27.835959 
L 245.555112 27.835959 
" style="fill:none;stroke:#342d53;stroke-linecap:round;stroke-width:3;"/>
    </g>
    <g id="line2d_28"/>
    <g id="text_19">
     <!-- $P=144$ -->
     <g style="fill:#262626;" transform="translate(252.219112 30.751459)scale(0.0833 -0.0833)">
      <use transform="translate(0 0.09375)" xlink:href="#DejaVuSans-Oblique-80"/>
      <use transform="translate(79.785156 0.09375)" xlink:href="#DejaVuSans-61"/>
      <use transform="translate(183.056641 0.09375)" xlink:href="#DejaVuSans-49"/>
      <use transform="translate(246.679688 0.09375)" xlink:href="#DejaVuSans-52"/>
      <use transform="translate(310.302734 0.09375)" xlink:href="#DejaVuSans-52"/>
     </g>
    </g>
   </g>
  </g>
 </g>
 <defs>
  <clipPath id="pd082d69904">
   <rect height="111.6" width="223.2" x="63.505313" y="9.673956"/>
  </clipPath>
 </defs>
</svg>
