<?xml version="1.0" encoding="utf-8" standalone="no"?>
<!DOCTYPE svg PUBLIC "-//W3C//DTD SVG 1.1//EN"
  "http://www.w3.org/Graphics/SVG/1.1/DTD/svg11.dtd">
<!-- Created with matplotlib (https://matplotlib.org/) -->
<svg height="137.089688pt" version="1.1" viewBox="0 0 245.048438 137.089688" width="245.048438pt" xmlns="http://www.w3.org/2000/svg" xmlns:xlink="http://www.w3.org/1999/xlink">
 <metadata>
  <rdf:RDF xmlns:cc="http://creativecommons.org/ns#" xmlns:dc="http://purl.org/dc/elements/1.1/" xmlns:rdf="http://www.w3.org/1999/02/22-rdf-syntax-ns#">
   <cc:Work>
    <dc:type rdf:resource="http://purl.org/dc/dcmitype/StillImage"/>
    <dc:date>2021-02-26T13:31:00.827257</dc:date>
    <dc:format>image/svg+xml</dc:format>
    <dc:creator>
     <cc:Agent>
      <dc:title>Matplotlib v3.3.2, https://matplotlib.org/</dc:title>
     </cc:Agent>
    </dc:creator>
   </cc:Work>
  </rdf:RDF>
 </metadata>
 <defs>
  <style type="text/css">*{stroke-linecap:butt;stroke-linejoin:round;}</style>
 </defs>
 <g id="figure_1">
  <g id="patch_1">
   <path d="M 0 137.089688 
L 245.048438 137.089688 
L 245.048438 0 
L 0 0 
z
" style="fill:#ffffff;"/>
  </g>
  <g id="axes_1">
   <g id="patch_2">
    <path d="M 54.868438 100.36 
L 237.848438 100.36 
L 237.848438 7.2 
L 54.868438 7.2 
z
" style="fill:#ffffff;"/>
   </g>
   <g id="line2d_1">
    <path clip-path="url(#pc8380b9025)" d="M 54.868438 22.726667 
L 237.848438 22.726667 
" style="fill:none;stroke:#000000;stroke-linecap:round;stroke-width:1.5;"/>
   </g>
   <g id="matplotlib.axis_1">
    <g id="xtick_1">
     <g id="line2d_2">
      <defs>
       <path d="M 0 0 
L 0 3.5 
" id="m92befe9c74" style="stroke:#262626;stroke-width:0.8;"/>
      </defs>
      <g>
       <use style="fill:#262626;stroke:#262626;stroke-width:0.8;" x="54.868438" xlink:href="#m92befe9c74" y="100.36"/>
      </g>
     </g>
     <g id="text_1">
      <text style="fill:#262626;font-family:Arial;font-size:10px;font-stretch:normal;font-style:normal;font-weight:normal;text-anchor:middle;" transform="rotate(-0, 54.868438, 114.517813)" x="54.868438" y="114.517813">0</text>
     </g>
    </g>
    <g id="xtick_2">
     <g id="line2d_3">
      <g>
       <use style="fill:#262626;stroke:#262626;stroke-width:0.8;" x="107.148438" xlink:href="#m92befe9c74" y="100.36"/>
      </g>
     </g>
     <g id="text_2">
      <text style="fill:#262626;font-family:Arial;font-size:10px;font-stretch:normal;font-style:normal;font-weight:normal;text-anchor:middle;" transform="rotate(-0, 107.148438, 114.517813)" x="107.148438" y="114.517813">10</text>
     </g>
    </g>
    <g id="xtick_3">
     <g id="line2d_4">
      <g>
       <use style="fill:#262626;stroke:#262626;stroke-width:0.8;" x="159.428438" xlink:href="#m92befe9c74" y="100.36"/>
      </g>
     </g>
     <g id="text_3">
      <text style="fill:#262626;font-family:Arial;font-size:10px;font-stretch:normal;font-style:normal;font-weight:normal;text-anchor:middle;" transform="rotate(-0, 159.428438, 114.517813)" x="159.428438" y="114.517813">20</text>
     </g>
    </g>
    <g id="xtick_4">
     <g id="line2d_5">
      <g>
       <use style="fill:#262626;stroke:#262626;stroke-width:0.8;" x="211.708438" xlink:href="#m92befe9c74" y="100.36"/>
      </g>
     </g>
     <g id="text_4">
      <text style="fill:#262626;font-family:Arial;font-size:10px;font-stretch:normal;font-style:normal;font-weight:normal;text-anchor:middle;" transform="rotate(-0, 211.708438, 114.517813)" x="211.708438" y="114.517813">30</text>
     </g>
    </g>
    <g id="text_5">
     <text style="fill:#262626;font-family:Arial;font-size:10px;font-stretch:normal;font-style:normal;font-weight:normal;text-anchor:middle;" transform="rotate(-0, 146.358438, 127.785)" x="146.358438" y="127.785">Time (min)</text>
    </g>
   </g>
   <g id="matplotlib.axis_2">
    <g id="ytick_1">
     <g id="line2d_6">
      <defs>
       <path d="M 0 0 
L -3.5 0 
" id="m4b1aff6d53" style="stroke:#262626;stroke-width:0.8;"/>
      </defs>
      <g>
       <use style="fill:#262626;stroke:#262626;stroke-width:0.8;" x="54.868438" xlink:href="#m4b1aff6d53" y="100.36"/>
      </g>
     </g>
     <g id="text_6">
      <text style="fill:#262626;font-family:Arial;font-size:10px;font-stretch:normal;font-style:normal;font-weight:normal;text-anchor:end;" transform="rotate(-0, 47.868438, 103.938906)" x="47.868438" y="103.938906">0</text>
     </g>
    </g>
    <g id="ytick_2">
     <g id="line2d_7">
      <g>
       <use style="fill:#262626;stroke:#262626;stroke-width:0.8;" x="54.868438" xlink:href="#m4b1aff6d53" y="61.543333"/>
      </g>
     </g>
     <g id="text_7">
      <text style="fill:#262626;font-family:Arial;font-size:10px;font-stretch:normal;font-style:normal;font-weight:normal;text-anchor:end;" transform="rotate(-0, 47.868438, 65.12224)" x="47.868438" y="65.12224">50</text>
     </g>
    </g>
    <g id="ytick_3">
     <g id="line2d_8">
      <g>
       <use style="fill:#262626;stroke:#262626;stroke-width:0.8;" x="54.868438" xlink:href="#m4b1aff6d53" y="22.726667"/>
      </g>
     </g>
     <g id="text_8">
      <text style="fill:#262626;font-family:Arial;font-size:10px;font-stretch:normal;font-style:normal;font-weight:normal;text-anchor:end;" transform="rotate(-0, 47.868438, 26.305573)" x="47.868438" y="26.305573">100</text>
     </g>
    </g>
    <g id="text_9">
     <text style="fill:#262626;font-family:Arial;font-size:10px;font-stretch:normal;font-style:normal;font-weight:normal;" transform="translate(14.357813 72.581563)rotate(-90)">AMPAR </text>
     <text style="fill:#262626;font-family:Arial;font-size:10px;font-stretch:normal;font-style:normal;font-weight:normal;" transform="translate(25.080938 85.451094)rotate(-90)"> Recovery (%)</text>
    </g>
   </g>
   <g id="line2d_9">
    <path clip-path="url(#pc8380b9025)" d="M 54.824871 100.36 
L 54.868438 100.36 
L 55.478371 98.378485 
L 55.739771 97.559625 
L 58.876571 88.85846 
L 59.835038 86.858192 
L 61.969804 81.351205 
L 62.492604 79.96977 
L 62.710438 79.319683 
L 62.884704 79.025894 
L 63.320371 77.925746 
L 63.668904 77.225653 
L 63.756038 77.188148 
L 64.191704 76.288027 
L 64.496671 75.600435 
L 65.934371 72.743803 
L 66.108638 72.468766 
L 66.675004 71.024822 
L 66.936404 70.668525 
L 67.546337 69.543374 
L 67.938438 68.787023 
L 68.156271 68.380718 
L 70.116771 65.186541 
L 70.247471 64.986514 
L 70.465304 64.58646 
L 70.639571 64.180156 
L 72.556504 60.529667 
L 72.730771 60.317139 
L 74.342737 57.93557 
L 74.429871 57.835557 
L 74.865537 57.11671 
L 74.952671 56.991694 
L 75.606171 56.060319 
L 75.867571 55.797784 
L 76.216104 55.272713 
L 76.564638 54.666382 
L 78.655838 51.80975 
L 78.786537 51.740991 
L 80.049971 50.184532 
L 80.267804 49.86574 
L 80.790604 49.296913 
L 80.834171 49.296913 
L 81.052004 48.940616 
L 82.359004 47.571682 
L 82.446138 47.55293 
L 82.794671 47.052863 
L 83.012504 46.852836 
L 83.970971 45.4589 
L 84.014537 45.508906 
L 84.058104 45.433896 
L 84.450204 44.977585 
L 85.539371 43.983702 
L 85.713638 43.977451 
L 85.931471 43.677411 
L 86.323571 43.246103 
L 86.497838 43.214849 
L 86.672104 43.14609 
L 86.977071 42.758538 
L 87.325604 42.283474 
L 87.804838 42.033441 
L 88.240504 41.552126 
L 88.981138 40.958297 
L 89.111838 40.852033 
L 89.416804 40.664508 
L 89.547504 40.564494 
L 89.591071 40.60825 
L 89.634638 40.551993 
L 89.939604 40.239451 
L 90.549537 39.870651 
L 90.680237 39.870651 
L 91.246604 39.56436 
L 91.464438 39.383086 
L 91.595138 39.26432 
L 91.725838 39.158056 
L 91.856537 39.089297 
L 92.117938 38.945527 
L 92.335771 38.858016 
L 92.466471 38.901772 
L 92.640737 38.776755 
L 92.989271 38.407955 
L 93.555638 38.22043 
L 93.729904 38.076661 
L 93.860604 37.926641 
L 94.296271 37.632852 
L 94.601237 37.457828 
L 94.731938 37.401571 
L 95.341871 36.788989 
L 95.516138 36.65147 
L 95.733971 36.357681 
L 95.864671 36.338928 
L 95.951804 36.188908 
L 95.995371 36.207661 
L 96.169638 36.101397 
L 96.343904 36.05139 
L 96.692438 35.963878 
L 96.866704 36.001383 
L 98.609371 35.126266 
L 98.740071 35.070009 
L 98.783638 34.994999 
L 98.870771 35.063758 
L 99.088604 35.032504 
L 99.306438 34.976246 
L 100.003504 34.569942 
L 100.177771 34.438674 
L 100.352037 34.413671 
L 100.787704 34.082376 
L 101.615471 33.901102 
L 101.833304 33.744831 
L 102.138271 33.713577 
L 102.443237 33.788587 
L 103.183871 33.594811 
L 103.271004 33.457293 
L 103.314571 33.51355 
L 103.358138 33.551055 
L 103.401704 33.451042 
L 103.663104 33.357279 
L 103.837371 33.232263 
L 104.142338 33.1385 
L 105.318638 32.582175 
L 105.449338 32.594677 
L 105.710737 32.338393 
L 105.972138 32.119614 
L 106.538504 32.225878 
L 106.625638 32.132115 
L 106.669204 32.163369 
L 106.930604 32.132115 
L 107.235571 32.000848 
L 107.409838 31.825824 
L 107.889071 31.850828 
L 108.063338 31.813323 
L 108.760404 31.744563 
L 108.891104 31.700807 
L 109.588171 31.507032 
L 109.806004 31.488279 
L 110.241671 31.425771 
L 110.415938 31.250747 
L 110.459504 31.288252 
L 110.633771 31.169486 
L 110.764471 31.150734 
L 110.851604 31.219493 
L 110.895171 31.169486 
L 111.200138 31.038219 
L 112.507138 30.538152 
L 112.594271 30.60066 
L 112.637838 30.538152 
L 112.768537 30.594409 
L 112.942804 30.613162 
L 113.988404 30.275617 
L 114.162671 30.106844 
L 114.467638 29.863061 
L 114.511204 29.819306 
L 114.554771 29.863061 
L 114.772604 29.950573 
L 114.903304 29.85056 
L 114.946871 29.894316 
L 115.034004 29.856811 
L 115.164704 29.694289 
L 115.295404 29.813055 
L 115.469671 29.694289 
L 115.643938 29.744296 
L 115.818204 29.563021 
L 115.992471 29.531767 
L 116.123171 29.450506 
L 116.253871 29.4005 
L 116.994504 29.300486 
L 117.691571 29.100459 
L 117.865838 29.087958 
L 118.127237 28.962941 
L 118.257938 28.950439 
L 118.388638 28.762914 
L 118.432204 28.800419 
L 118.519338 28.775416 
L 118.606471 28.637897 
L 118.693604 28.737911 
L 118.998571 28.787917 
L 119.259971 28.869178 
L 119.347104 28.88168 
L 119.521371 28.950439 
L 120.087738 28.781667 
L 120.218438 28.637897 
L 120.262004 28.669152 
L 120.392704 28.619145 
L 120.610537 28.537884 
L 120.741237 28.50663 
L 121.046204 28.275349 
L 121.307604 28.125329 
L 121.481871 28.181586 
L 121.525438 28.200339 
L 121.699704 28.019065 
L 121.786838 28.050319 
L 121.961104 27.944055 
L 122.178938 27.925302 
L 122.440338 27.862794 
L 122.527471 27.787784 
L 122.571037 27.856543 
L 122.614604 27.825289 
L 122.788871 27.61276 
L 122.832438 27.644014 
L 123.006704 27.68777 
L 123.224537 27.581506 
L 124.008737 27.412733 
L 124.270138 27.150198 
L 124.357271 27.23771 
L 124.444404 27.362727 
L 124.575104 27.268964 
L 125.272171 26.962673 
L 125.577138 27.125195 
L 125.620704 27.068937 
L 125.664271 27.106442 
L 125.838537 27.243961 
L 126.012804 27.206456 
L 126.143504 27.143947 
L 126.404904 27.050185 
L 126.666304 27.168951 
L 127.232671 26.868911 
L 127.494071 26.912666 
L 127.581204 26.987676 
L 127.624771 26.918917 
L 127.755471 26.900165 
L 127.886171 26.906416 
L 128.104004 27.000178 
L 128.234704 26.912666 
L 128.365404 27.056436 
L 128.975338 26.943921 
L 129.106037 26.968924 
L 129.672404 27.075188 
L 129.803104 27.081439 
L 130.020938 27.031432 
L 130.151638 26.86266 
L 130.413037 27.006429 
L 130.630871 27.050185 
L 130.805138 27.075188 
L 130.979404 26.993927 
L 131.197237 26.881412 
L 131.545771 26.700138 
L 132.460671 26.600125 
L 132.765638 26.518864 
L 132.939904 26.512613 
L 133.070604 26.518864 
L 133.593404 26.337589 
L 133.854804 26.281332 
L 134.029071 26.381345 
L 134.203338 26.34384 
L 134.334037 26.300084 
L 134.464738 26.293834 
L 134.682571 26.050051 
L 134.943971 26.081305 
L 135.118237 25.987543 
L 135.248938 25.96879 
L 135.379638 25.912533 
L 135.510338 25.931285 
L 135.815304 25.837522 
L 136.120271 25.843773 
L 136.207404 25.781265 
L 136.250971 25.81877 
L 136.468804 25.950038 
L 136.643071 25.81877 
L 136.686638 25.768763 
L 136.730204 25.850024 
L 136.904471 25.925034 
L 137.165871 25.912533 
L 137.340138 25.856275 
L 137.557971 25.737509 
L 138.603571 25.943787 
L 139.039238 25.700004 
L 139.431338 25.637496 
L 139.605604 25.775014 
L 141.304704 25.381211 
L 141.435404 25.462472 
L 141.478971 25.381211 
L 142.001771 25.362459 
L 142.132471 25.331205 
L 142.219604 25.44372 
L 142.263171 25.406215 
L 142.393871 25.431218 
L 142.785971 25.418716 
L 143.178071 25.137429 
L 143.395904 25.343706 
L 143.526604 25.356208 
L 143.700871 25.337456 
L 143.788004 25.29995 
L 143.831571 25.343706 
L 144.397938 25.318703 
L 144.702904 24.9249 
L 144.877171 24.99991 
L 145.095004 24.931151 
L 145.312838 24.906148 
L 145.487104 24.712372 
L 146.140604 24.899897 
L 146.227737 24.806134 
L 146.271304 24.831138 
L 146.706971 24.643613 
L 147.055504 24.668616 
L 147.273338 24.693619 
L 147.447604 24.643613 
L 147.578304 24.668616 
L 147.665438 24.62486 
L 147.709004 24.674867 
L 147.926838 24.956154 
L 148.493204 24.681118 
L 148.623904 24.737375 
L 148.972438 24.749877 
L 149.190271 24.818636 
L 149.320971 24.787382 
L 150.671537 24.712372 
L 151.020071 24.512345 
L 151.237904 24.506094 
L 151.586438 24.581104 
L 151.760704 24.62486 
L 152.022104 24.556101 
L 152.152804 24.643613 
L 152.196371 24.581104 
L 152.501338 24.656114 
L 152.719171 24.574853 
L 152.849871 24.637362 
L 153.590504 24.643613 
L 154.374704 24.168549 
L 154.679671 24.256061 
L 155.071771 24.037281 
L 155.246037 24.074786 
L 155.376738 23.943519 
L 155.551004 23.899763 
L 155.768838 24.087288 
L 156.073804 24.231057 
L 156.248071 24.187302 
L 156.422338 24.181051 
L 156.596604 24.356074 
L 157.903604 24.068536 
L 158.034304 24.012278 
L 158.208571 24.181051 
L 158.600671 24.387328 
L 158.731371 24.418582 
L 158.862071 24.512345 
L 159.079904 24.387328 
L 159.951238 24.374827 
L 159.994804 24.543599 
L 160.081938 24.443586 
L 160.256204 24.481091 
L 160.866138 24.381077 
L 161.388938 24.274813 
L 161.606771 24.356074 
L 161.911738 24.343572 
L 161.998871 24.393579 
L 162.042438 24.343572 
L 162.434537 24.287315 
L 163.088037 24.349823 
L 163.218738 24.262312 
L 163.828671 24.443586 
L 164.177204 24.24981 
L 164.307904 24.243559 
L 164.787138 24.168549 
L 164.830704 24.256061 
L 164.874271 24.193552 
L 165.092104 24.056034 
L 165.353504 23.937268 
L 165.484204 23.862258 
L 165.614904 23.862258 
L 165.963438 23.837255 
L 166.268404 23.705987 
L 166.486238 23.712238 
L 166.616938 23.587221 
L 166.747638 23.705987 
L 166.921904 23.662231 
L 167.270438 23.643479 
L 167.444704 23.749743 
L 167.662537 23.630977 
L 167.836804 23.824753 
L 167.880371 23.793499 
L 168.403171 23.705987 
L 168.751704 23.599723 
L 168.969537 23.768495 
L 169.143804 23.712238 
L 169.318071 23.65598 
L 169.579471 23.568469 
L 169.753737 23.643479 
L 169.928004 23.605974 
L 170.189404 23.637228 
L 170.363671 23.856007 
L 170.625071 23.674733 
L 170.755771 23.687235 
L 170.799338 23.643479 
L 170.842904 23.712238 
L 171.060738 23.768495 
L 171.278571 23.774746 
L 171.539971 23.868509 
L 171.932071 23.937268 
L 172.019204 24.012278 
L 172.237037 23.981024 
L 172.411304 23.912265 
L 173.151938 23.680984 
L 173.195504 23.743492 
L 173.239071 23.64973 
L 173.413338 23.605974 
L 173.544037 23.637228 
L 173.892571 23.618475 
L 173.936138 23.680984 
L 173.979704 23.643479 
L 174.153971 23.605974 
L 174.415371 23.818502 
L 174.589638 23.787248 
L 174.894604 23.65598 
L 175.068871 23.549716 
L 175.243138 23.57472 
L 175.373838 23.568469 
L 175.504537 23.493459 
L 175.722371 23.587221 
L 175.940204 23.680984 
L 176.070904 23.712238 
L 176.201604 23.662231 
L 176.375871 23.806 
L 176.463004 23.762245 
L 176.506571 23.806 
L 176.724404 23.812251 
L 176.898671 23.643479 
L 177.116504 23.437201 
L 177.247204 23.443452 
L 177.421471 23.387194 
L 177.465037 23.330937 
L 177.508604 23.380944 
L 177.639304 23.349689 
L 177.813571 23.324686 
L 178.118537 23.380944 
L 178.292804 23.412198 
L 178.423504 23.493459 
L 178.728471 23.237174 
L 179.294838 23.480957 
L 179.338404 23.437201 
L 179.381971 23.487208 
L 179.512671 23.493459 
L 179.686938 23.43095 
L 180.122604 23.555967 
L 180.296871 23.449703 
L 180.471138 23.499709 
L 180.993938 23.599723 
L 181.124638 23.605974 
L 181.298904 23.643479 
L 181.734571 23.899763 
L 182.170238 24.006027 
L 182.475204 24.081037 
L 182.780171 24.043532 
L 183.172271 24.049783 
L 183.302971 23.987275 
L 183.477238 23.981024 
L 183.825771 24.137295 
L 183.956471 24.156047 
L 184.043604 24.049783 
L 184.261438 23.999776 
L 184.522838 24.212305 
L 184.740671 24.049783 
L 184.958504 24.09979 
L 185.089204 24.112291 
L 185.176338 24.02478 
L 185.219904 24.074786 
L 185.350604 24.049783 
L 185.437737 23.893512 
L 185.481304 23.987275 
L 185.699138 23.968522 
L 186.178371 23.999776 
L 186.439771 24.031031 
L 186.744738 24.118542 
L 186.875438 24.112291 
L 186.962571 24.062285 
L 187.006138 24.112291 
L 187.572504 24.274813 
L 187.790338 24.193552 
L 188.487404 23.931017 
L 188.618104 24.043532 
L 188.748804 24.043532 
L 188.835938 24.006027 
L 189.140904 23.806 
L 189.445871 23.862258 
L 189.620138 23.843505 
L 189.707271 23.962271 
L 189.750838 23.868509 
L 190.142938 23.956021 
L 190.230071 23.937268 
L 190.360771 23.981024 
L 190.840004 24.006027 
L 191.057838 23.943519 
L 191.232104 23.943519 
L 191.537071 23.793499 
L 191.711338 23.774746 
L 191.972738 23.79975 
L 192.147004 23.824753 
L 192.408404 23.956021 
L 192.713371 24.049783 
L 193.018338 23.956021 
L 193.497571 23.824753 
L 193.671838 23.899763 
L 193.846104 23.924766 
L 194.238204 24.02478 
L 194.412471 23.893512 
L 194.456037 23.956021 
L 194.717438 24.037281 
L 195.022404 24.118542 
L 195.196671 23.981024 
L 195.283804 23.956021 
L 195.327371 24.02478 
L 195.370938 23.987275 
L 195.719471 23.818502 
L 196.285838 23.968522 
L 197.157171 23.618475 
L 197.418571 23.474706 
L 197.549271 23.468455 
L 197.810671 23.349689 
L 198.028504 23.412198 
L 198.289904 23.50596 
L 198.812704 23.50596 
L 199.030537 23.449703 
L 199.684037 23.443452 
L 199.771171 23.487208 
L 199.945438 23.480957 
L 200.468238 23.555967 
L 200.555371 23.605974 
L 200.729638 23.518462 
L 200.773204 23.57472 
L 200.816771 23.518462 
L 201.121738 23.343439 
L 201.688104 23.318435 
L 201.818804 23.362191 
L 202.036638 23.474706 
L 202.254471 23.530964 
L 202.428738 23.493459 
L 202.603004 23.549716 
L 202.820838 23.693485 
L 203.038671 23.624726 
L 203.343638 23.587221 
L 203.605037 23.637228 
L 203.735737 23.668482 
L 203.779304 23.737241 
L 203.822871 23.687235 
L 204.127838 23.512211 
L 204.694204 23.50596 
L 204.868471 23.493459 
L 204.955604 23.487208 
L 205.521971 23.074653 
L 206.131904 22.974639 
L 206.175471 23.068402 
L 206.219037 22.999643 
L 206.698271 22.737107 
L 207.003238 22.874626 
L 207.221071 22.83087 
L 207.351771 22.837121 
L 207.526037 22.812117 
L 207.700304 22.98089 
L 207.918138 22.930883 
L 208.223104 23.118408 
L 208.397371 23.105907 
L 208.658771 23.037148 
L 208.789471 22.955887 
L 208.963738 23.030897 
L 209.094438 23.018395 
L 209.268704 22.924632 
L 209.355838 23.037148 
L 209.399404 22.974639 
L 209.530104 22.930883 
L 209.704371 22.993392 
L 209.835071 22.974639 
L 209.965771 22.955887 
L 210.052904 22.90588 
L 210.096471 22.962137 
L 210.357871 22.843372 
L 210.662838 22.999643 
L 210.749971 22.930883 
L 210.793537 22.999643 
L 212.144104 22.705853 
L 212.187671 22.812117 
L 212.274804 22.768362 
L 212.797604 22.887127 
L 212.928304 22.98089 
L 213.059004 22.924632 
L 213.276838 23.012144 
L 213.756071 22.793365 
L 213.799638 22.849622 
L 213.886771 22.780863 
L 214.017471 22.75586 
L 214.191738 22.887127 
L 214.366004 22.837121 
L 214.540271 22.799616 
L 214.583838 22.837121 
L 214.627404 22.768362 
L 214.845238 22.60584 
L 215.019504 22.430816 
L 215.150204 22.387061 
L 215.193771 22.343305 
L 215.237338 22.424566 
L 215.324471 22.512077 
L 215.934404 22.787114 
L 216.021537 22.737107 
L 216.195804 22.849622 
L 216.239371 22.899629 
L 216.282938 22.855873 
L 216.370071 22.855873 
L 216.500771 22.90588 
L 216.936438 22.75586 
L 217.154271 22.799616 
L 217.284971 22.712104 
L 217.328537 22.749609 
L 217.502804 22.768362 
L 217.677071 22.812117 
L 217.851338 22.793365 
L 218.025604 22.712104 
L 218.156304 22.83087 
L 218.417704 22.768362 
L 219.027638 22.774612 
L 219.245471 22.630843 
L 220.029671 22.624592 
L 220.378204 22.818368 
L 220.683171 22.637094 
L 220.813871 22.580836 
L 221.118838 22.474572 
L 221.205971 22.537081 
L 221.380238 22.587087 
L 221.554504 22.524579 
L 221.728771 22.60584 
L 221.946604 22.512077 
L 222.164438 22.487074 
L 222.556537 22.749609 
L 222.687238 22.543331 
L 222.730804 22.593338 
L 222.861504 22.624592 
L 223.035771 22.580836 
L 223.253604 22.512077 
L 223.427871 22.493325 
L 223.515004 22.518328 
L 223.689271 22.399562 
L 223.863537 22.555833 
L 223.907104 22.487074 
L 224.124938 22.318301 
L 224.647738 22.143278 
L 224.778438 22.187034 
L 224.952704 22.093271 
L 225.606204 22.105773 
L 226.216138 21.999509 
L 226.433971 21.911997 
L 226.695371 21.930749 
L 226.738938 21.874492 
L 226.782504 21.955753 
L 227.131037 21.918248 
L 227.305304 21.886994 
L 227.392438 21.918248 
L 227.436004 21.874492 
L 227.653838 21.880743 
L 227.828104 21.905746 
L 228.089504 22.01201 
L 228.743004 22.3058 
L 229.091537 22.174532 
L 229.657904 22.16203 
L 230.093571 22.124525 
L 230.137138 22.193285 
L 230.180704 22.149529 
L 230.572804 21.818234 
L 231.139171 21.693218 
L 231.313438 21.849489 
L 231.574838 21.836987 
L 231.836238 21.849489 
L 232.751138 21.624458 
L 232.881838 21.555699 
L 233.535338 21.724472 
L 233.709604 21.918248 
L 234.188838 21.799482 
L 235.016604 22.062017 
L 235.278004 22.062017 
L 235.626537 21.937 
L 235.800804 21.849489 
L 235.887938 21.836987 
L 235.931504 21.730723 
L 236.018638 21.805733 
L 236.846404 22.024512 
L 237.020671 22.093271 
L 237.543471 21.993258 
L 237.717738 22.080769 
L 237.892004 21.974505 
L 237.892004 21.974505 
" style="fill:none;stroke:#d55e00;stroke-linecap:round;stroke-width:2;"/>
   </g>
   <g id="line2d_10">
    <path clip-path="url(#pc8380b9025)" d="M 54.824871 100.36 
L 54.868438 100.36 
L 57.264604 91.1024 
L 57.613138 89.705339 
L 58.048804 88.272386 
L 58.266638 87.543484 
L 58.745871 85.986286 
L 60.967771 78.893302 
L 62.492604 74.539221 
L 62.971837 73.189097 
L 64.583804 69.113875 
L 64.801638 68.619658 
L 66.239337 65.36169 
L 66.631438 64.44228 
L 69.289004 59.11633 
L 69.463271 58.809861 
L 69.724671 58.387429 
L 70.465304 57.045588 
L 70.596004 56.835753 
L 70.857404 56.316687 
L 71.118804 55.863884 
L 71.510904 55.148788 
L 71.685171 54.93067 
L 72.643638 53.345861 
L 73.732804 51.581589 
L 73.819938 51.520847 
L 74.255604 50.830599 
L 74.909104 49.751052 
L 75.126938 49.414211 
L 77.261704 46.838208 
L 77.392404 46.738812 
L 77.697371 46.390927 
L 77.784504 46.288771 
L 78.133037 45.744856 
L 79.004371 44.78127 
L 79.396471 44.179374 
L 79.570737 43.99991 
L 81.008438 42.238398 
L 81.226271 42.147286 
L 81.400537 41.989909 
L 81.487671 42.003714 
L 81.749071 41.680678 
L 81.879771 41.542629 
L 82.228304 41.21131 
L 83.361037 40.059977 
L 84.145237 39.322793 
L 84.711604 38.831337 
L 84.842304 38.762312 
L 84.973004 38.731941 
L 85.321537 38.350924 
L 85.539371 38.19907 
L 85.931471 37.831858 
L 86.628537 37.296226 
L 86.759237 37.285182 
L 93.119971 32.544562 
L 93.294237 32.492103 
L 93.468504 32.384425 
L 93.599204 32.450688 
L 93.860604 32.392708 
L 95.211171 31.746636 
L 95.603271 31.509191 
L 95.821104 31.321444 
L 96.082504 31.222048 
L 96.256771 31.249658 
L 96.431037 31.186155 
L 96.823138 31.034301 
L 97.563771 30.66985 
L 97.912304 30.645001 
L 98.086571 30.567693 
L 98.609371 30.272267 
L 98.783638 30.206004 
L 99.262871 29.899534 
L 99.611404 29.709025 
L 99.785671 29.626196 
L 99.916371 29.623435 
L 100.134204 29.537844 
L 100.439171 29.546127 
L 100.831271 29.512995 
L 101.092671 29.300399 
L 101.528338 29.22033 
L 101.702604 29.123695 
L 101.833304 29.115413 
L 102.181838 28.919382 
L 102.661071 28.739918 
L 102.791771 28.681937 
L 102.966037 28.706786 
L 103.401704 28.659849 
L 103.619537 28.568736 
L 104.795838 28.309203 
L 104.882971 28.306442 
L 105.144371 28.173915 
L 105.754304 28.118695 
L 106.015704 28.082802 
L 106.451371 27.955797 
L 106.756338 27.856401 
L 108.586138 27.260027 
L 108.760404 27.193763 
L 109.196071 27.138544 
L 110.241671 26.970123 
L 110.895171 26.865206 
L 111.113004 26.903859 
L 111.287271 26.865206 
L 111.417971 26.854162 
L 111.722938 26.801703 
L 111.897204 26.798942 
L 112.115037 26.721634 
L 112.289304 26.760288 
L 112.376438 26.727156 
L 112.594271 26.636043 
L 113.117071 26.484189 
L 113.334904 26.481428 
L 113.683438 26.387554 
L 113.988404 26.40412 
L 114.249804 26.227417 
L 114.554771 26.279876 
L 114.685471 26.340617 
L 114.859737 26.249505 
L 115.034004 26.293681 
L 115.338971 26.307486 
L 115.513238 26.266071 
L 115.774638 26.12526 
L 115.992471 25.970645 
L 116.123171 25.989972 
L 116.428138 25.832595 
L 116.602404 25.909903 
L 116.907371 25.65037 
L 118.214371 25.473667 
L 118.345071 25.490233 
L 118.737171 25.498516 
L 119.085704 25.42673 
L 119.216404 25.51232 
L 119.782771 25.440535 
L 120.000604 25.393598 
L 121.394737 25.12026 
L 121.525438 25.139587 
L 121.699704 25.073323 
L 122.440338 24.979449 
L 122.788871 24.971166 
L 123.137404 24.993254 
L 123.355237 25.004298 
L 123.573071 24.780658 
L 123.834471 24.728199 
L 123.965171 24.717155 
L 124.095871 24.642609 
L 124.705804 24.915947 
L 124.880071 24.822073 
L 125.185037 24.860727 
L 125.359304 24.932513 
L 125.664271 24.777897 
L 126.361338 24.684023 
L 126.492037 24.711633 
L 127.406938 24.697828 
L 127.581204 24.639848 
L 127.755471 24.603955 
L 128.713938 24.628804 
L 128.844638 24.623282 
L 129.541704 24.518364 
L 129.715971 24.463144 
L 130.108071 24.460383 
L 130.282338 24.474188 
L 131.022971 24.485232 
L 131.153671 24.537691 
L 131.284371 24.493515 
L 131.415071 24.523886 
L 132.547804 24.349944 
L 132.765638 24.319573 
L 133.027037 24.374793 
L 133.941938 24.482471 
L 134.203338 24.289202 
L 134.377604 24.297485 
L 135.597471 23.927512 
L 135.858871 24.029669 
L 135.989571 23.97721 
L 136.468804 24.013103 
L 136.643071 23.993776 
L 136.860904 24.037952 
L 137.165871 23.963405 
L 137.427271 23.996537 
L 137.601537 24.015864 
L 137.819371 24.08765 
L 138.255037 24.007581 
L 138.472871 24.073845 
L 138.690704 24.015864 
L 138.995671 23.905424 
L 139.257071 23.72596 
L 139.605604 23.731482 
L 139.867004 23.830878 
L 140.041271 23.819834 
L 140.389804 23.728721 
L 140.564071 23.742526 
L 140.781904 23.684545 
L 140.912604 23.679023 
L 140.999738 23.621042 
L 141.043304 23.659696 
L 141.958204 23.786702 
L 142.088904 23.814312 
L 142.393871 23.913707 
L 142.742404 23.783941 
L 143.134504 23.8364 
L 143.570171 23.966166 
L 143.744438 23.960644 
L 144.485071 24.010342 
L 144.702904 24.071084 
L 145.443537 23.883336 
L 145.574238 23.864009 
L 146.184171 23.695589 
L 146.402004 23.731482 
L 146.532704 23.75357 
L 147.404037 23.996537 
L 147.665438 23.941317 
L 147.839704 23.966166 
L 148.013971 23.935795 
L 148.231804 23.908185 
L 148.493204 23.905424 
L 148.667471 23.913707 
L 148.928871 23.933034 
L 151.020071 23.632086 
L 151.237904 23.645891 
L 151.630004 23.527169 
L 151.760704 23.499559 
L 151.847838 23.549257 
L 151.978537 23.596193 
L 152.327071 23.436056 
L 152.588471 23.513364 
L 152.849871 23.4471 
L 153.329104 23.455383 
L 153.503371 23.361509 
L 153.764771 23.284202 
L 154.156871 23.342182 
L 155.681704 23.231743 
L 155.855971 23.240026 
L 156.030237 23.367031 
L 156.596604 23.33666 
L 157.685771 23.36427 
L 157.772904 23.438817 
L 157.816471 23.367031 
L 158.077871 23.353226 
L 158.339271 23.452622 
L 158.862071 23.466427 
L 159.123471 23.518886 
L 159.733404 23.39188 
L 159.994804 23.413968 
L 162.303838 23.226221 
L 162.783071 23.176523 
L 163.000904 23.215177 
L 163.175171 23.215177 
L 163.393004 23.077127 
L 163.915804 23.190328 
L 164.046504 23.165479 
L 164.264338 23.209655 
L 164.874271 23.253831 
L 165.048537 23.162718 
L 165.309938 23.256592 
L 165.919871 23.137869 
L 166.137704 23.234504 
L 166.399104 23.234504 
L 166.573371 23.231743 
L 166.791204 23.226221 
L 167.009037 23.322855 
L 167.401138 23.331138 
L 167.749671 23.165479 
L 169.492338 23.162718 
L 169.840871 23.295245 
L 170.015138 23.253831 
L 170.189404 23.204133 
L 170.363671 23.270397 
L 170.668638 23.209655 
L 171.104304 23.234504 
L 171.278571 23.187567 
L 171.539971 23.273158 
L 171.801371 23.220699 
L 172.106338 23.328377 
L 172.237037 23.259353 
L 172.542004 23.317333 
L 173.021238 23.300767 
L 173.718304 23.242787 
L 173.979704 23.36427 
L 174.153971 23.389119 
L 174.546071 23.358748 
L 174.763904 23.320094 
L 174.938171 23.270397 
L 176.027338 23.016385 
L 176.419438 23.157196 
L 176.898671 23.052278 
L 177.116504 22.980493 
L 179.207704 22.657457 
L 179.381971 22.577388 
L 179.774071 22.447622 
L 179.948338 22.453143 
L 180.514704 22.38688 
L 180.645404 22.450383 
L 180.993938 22.317855 
L 181.168204 22.444861 
L 181.342471 22.453143 
L 181.691004 22.585671 
L 181.908838 22.513885 
L 182.910871 22.279201 
L 183.259404 22.33166 
L 183.477238 22.254352 
L 183.695071 22.226742 
L 183.956471 22.223981 
L 184.217871 22.179805 
L 185.960537 22.168762 
L 186.309071 22.166001 
L 186.831871 22.102498 
L 186.919004 22.0528 
L 186.962571 22.119064 
L 187.093271 22.088693 
L 187.398238 22.072127 
L 187.572504 22.066605 
L 187.790338 22.168762 
L 188.443838 22.268157 
L 188.487404 22.345465 
L 188.530971 22.295767 
L 188.661671 22.334421 
L 188.923071 22.494558 
L 189.794404 22.483514 
L 189.968671 22.425534 
L 190.230071 22.328899 
L 190.273638 22.273679 
L 190.317204 22.334421 
L 190.927138 22.345465 
L 191.275671 22.265396 
L 191.449938 22.35927 
L 191.667771 22.337182 
L 193.410438 22.444861 
L 193.846104 22.602237 
L 194.063938 22.624325 
L 194.238204 22.596715 
L 194.412471 22.707155 
L 194.586737 22.734764 
L 194.848138 22.781701 
L 195.109537 22.831399 
L 195.283804 22.892141 
L 195.414504 22.870053 
L 195.719471 22.770657 
L 196.242271 22.928034 
L 196.460104 22.991537 
L 197.375004 22.97221 
L 197.592838 22.875575 
L 197.897804 22.914229 
L 198.638438 22.856248 
L 198.812704 22.845204 
L 198.943404 22.809311 
L 199.030537 22.870053 
L 199.335504 23.024668 
L 199.901871 23.0578 
L 200.947471 23.212416 
L 201.078171 23.240026 
L 201.513838 23.179284 
L 202.080204 23.154435 
L 202.864404 23.010863 
L 203.082238 23.146152 
L 203.343638 23.126825 
L 203.692171 23.234504 
L 203.866438 23.201372 
L 204.040704 23.154435 
L 205.086304 22.91699 
L 205.391271 23.060561 
L 207.090371 23.143391 
L 207.308204 23.267636 
L 207.482471 23.143391 
L 207.700304 23.273158 
L 207.874571 23.256592 
L 208.135971 23.256592 
L 208.310238 23.182045 
L 208.484504 23.165479 
L 208.615204 23.162718 
L 208.833037 23.226221 
L 209.050871 23.0578 
L 209.181571 23.08541 
L 209.355838 23.079888 
L 209.530104 23.104737 
L 209.747938 22.986015 
L 210.009338 22.894902 
L 210.532138 22.988776 
L 210.749971 23.03019 
L 211.752004 22.86177 
L 211.882704 22.872814 
L 212.100537 22.914229 
L 214.061037 23.303528 
L 214.235304 23.333899 
L 215.629438 23.33666 
L 215.890838 23.350465 
L 216.762171 23.206894 
L 216.849304 23.184806 
L 217.067138 23.256592 
L 217.241404 23.179284 
L 217.459238 23.157196 
L 217.677071 23.079888 
L 218.156304 23.002581 
L 218.330571 23.008102 
L 218.853371 23.063322 
L 218.940504 23.08541 
L 219.071204 23.077127 
L 219.506871 23.008102 
L 219.681138 23.060561 
L 219.986104 22.9446 
L 220.160371 22.941839 
L 221.118838 22.950122 
L 221.249538 23.005342 
L 221.554504 23.071605 
L 224.081371 23.129586 
L 224.124938 23.193089 
L 224.168504 23.151674 
L 224.429904 23.063322 
L 224.647738 23.115781 
L 224.822004 23.068844 
L 224.996271 23.143391 
L 225.214104 23.068844 
L 225.344804 23.074366 
L 225.736904 23.066083 
L 225.911171 23.005342 
L 225.998304 23.032951 
L 226.129004 22.903185 
L 226.172571 22.930795 
L 226.303271 22.872814 
L 226.521104 22.729242 
L 230.485671 22.892141 
L 230.703504 22.820355 
L 230.964904 22.847965 
L 231.313438 22.850726 
L 231.749104 22.947361 
L 231.923371 22.994298 
L 232.533304 23.043995 
L 232.707571 23.107498 
L 232.925404 23.041234 
L 233.230371 23.021907 
L 233.491771 23.008102 
L 233.709604 22.905946 
L 233.840304 22.792745 
L 233.883871 22.825877 
L 234.058138 22.712677 
L 234.188838 22.707155 
L 234.755204 22.842443 
L 235.582971 22.679545 
L 235.713671 22.627086 
L 236.018638 22.682306 
L 236.236471 22.629847 
L 236.672138 22.593954 
L 236.846404 22.654696 
L 237.456338 22.635369 
L 237.630604 22.574627 
L 237.848438 22.585671 
L 237.892004 22.624325 
L 237.892004 22.624325 
" style="fill:none;stroke:#cc78bc;stroke-linecap:round;stroke-width:2;"/>
   </g>
   <g id="line2d_11">
    <path clip-path="url(#pc8380b9025)" d="M 54.824871 100.36 
L 54.868438 100.36 
L 56.393271 92.825241 
L 61.098471 74.083173 
L 62.754004 68.814014 
L 63.886737 65.551825 
L 65.019471 62.44309 
L 65.324438 61.772376 
L 65.760104 60.560263 
L 66.065071 59.825753 
L 66.762138 58.213625 
L 69.811804 51.701317 
L 70.988104 49.785729 
L 71.423771 48.875351 
L 74.647704 44.054484 
L 74.734838 43.976895 
L 75.998271 42.121655 
L 76.346804 41.740606 
L 76.651771 41.337143 
L 76.782471 41.294038 
L 80.921304 36.835254 
L 81.095571 36.728353 
L 81.269838 36.542139 
L 81.444104 36.428342 
L 81.661938 36.254198 
L 85.408671 33.06615 
L 85.539371 33.062701 
L 87.020638 32.024732 
L 87.238471 31.790241 
L 87.456304 31.690237 
L 87.630571 31.578164 
L 87.804838 31.554025 
L 87.979104 31.459194 
L 88.109804 31.312637 
L 88.371204 31.000557 
L 88.501904 30.941934 
L 89.329671 30.391913 
L 89.591071 30.122938 
L 90.767371 29.512571 
L 90.941638 29.422912 
L 91.159471 29.353944 
L 91.333737 29.21256 
L 91.595138 29.021173 
L 91.900104 28.962551 
L 92.466471 28.622883 
L 92.640737 28.603917 
L 92.771438 28.545294 
L 93.032838 28.584951 
L 93.337804 28.393564 
L 93.860604 28.145279 
L 94.034871 28.052172 
L 94.209138 27.98148 
L 94.688371 27.796991 
L 94.862638 27.746989 
L 95.080471 27.641812 
L 95.516138 27.533188 
L 95.646838 27.524567 
L 95.908237 27.3987 
L 96.169638 27.446978 
L 96.518171 27.288351 
L 97.040971 27.198693 
L 97.302371 27.24697 
L 98.304404 26.984892 
L 98.478671 26.895233 
L 99.001471 26.827989 
L 99.219304 26.819368 
L 99.437138 26.852128 
L 99.611404 26.802126 
L 99.959938 26.743504 
L 100.134204 26.769367 
L 100.395604 26.695226 
L 100.482737 26.688329 
L 100.831271 26.400388 
L 101.049104 26.43832 
L 101.310504 26.309005 
L 101.571904 26.177966 
L 102.094704 25.860713 
L 102.225404 25.791745 
L 102.661071 25.652084 
L 102.791771 25.674499 
L 102.922471 25.660705 
L 103.096737 25.59691 
L 103.532404 25.422765 
L 103.750237 25.395178 
L 104.185904 25.227931 
L 105.318638 25.253794 
L 105.492904 25.181377 
L 105.580037 25.210689 
L 105.710737 25.202068 
L 106.277104 25.117582 
L 106.494938 25.019302 
L 106.712771 25.008957 
L 106.843471 25.01413 
L 107.453404 25.10034 
L 107.627671 25.077925 
L 107.758371 25.069304 
L 108.150471 24.974473 
L 108.716838 24.860676 
L 109.196071 24.8624 
L 109.675304 24.764121 
L 109.849571 24.752051 
L 110.241671 24.546871 
L 111.592237 24.231342 
L 111.984338 24.165823 
L 112.289304 24.16065 
L 112.681404 24.176168 
L 112.855671 24.120994 
L 113.291338 24.039956 
L 113.596304 23.960643 
L 113.727004 23.998575 
L 114.641904 23.857191 
L 114.772604 23.822707 
L 114.946871 23.796844 
L 115.077571 23.838225 
L 115.818204 23.614078 
L 115.948904 23.57787 
L 116.210304 23.514075 
L 116.428138 23.548559 
L 117.038071 23.546835 
L 117.212338 23.629596 
L 118.040104 23.662356 
L 118.170804 23.620975 
L 118.606471 23.598561 
L 119.042138 23.529593 
L 119.477804 23.305446 
L 119.695638 23.383035 
L 119.957037 23.257169 
L 120.871938 23.283032 
L 121.046204 23.176131 
L 122.353204 23.079576 
L 122.527471 23.041644 
L 122.658171 23.0813 
L 122.832438 23.086473 
L 123.050271 22.967503 
L 123.311671 22.920949 
L 123.573071 22.960606 
L 123.965171 22.938191 
L 124.139438 23.001987 
L 124.313704 22.988193 
L 124.749371 22.889914 
L 124.923638 22.796807 
L 125.097904 22.910604 
L 125.272171 22.814049 
L 125.446438 22.939916 
L 125.620704 22.943364 
L 125.794971 22.931295 
L 126.012804 22.907156 
L 126.927704 22.965779 
L 127.189104 23.041644 
L 127.799037 22.917501 
L 128.104004 23.034747 
L 128.234704 23.050265 
L 128.452537 23.155441 
L 128.844638 23.257169 
L 129.280304 23.214064 
L 129.454571 23.201994 
L 129.585271 23.201994 
L 129.672404 23.29855 
L 129.715971 23.25372 
L 129.890238 23.272687 
L 130.108071 23.291653 
L 130.282338 23.289929 
L 130.456604 23.258893 
L 131.589338 22.958882 
L 131.676471 23.053713 
L 131.720037 23.019229 
L 132.329971 23.034747 
L 132.547804 23.115784 
L 132.678504 23.148544 
L 133.506271 23.276135 
L 133.636971 23.291653 
L 133.898371 23.38476 
L 134.072638 23.360621 
L 135.553904 23.403726 
L 135.858871 23.412347 
L 136.076704 23.429589 
L 136.991604 23.464073 
L 137.427271 23.484763 
L 137.601537 23.395105 
L 138.777838 23.389932 
L 138.995671 23.338206 
L 139.692737 23.33993 
L 140.564071 23.334758 
L 141.130438 23.37269 
L 141.609671 23.336482 
L 142.045338 23.367518 
L 142.306737 23.257169 
L 142.568138 23.112336 
L 143.047371 23.036471 
L 144.136537 22.869223 
L 144.485071 22.912328 
L 144.746471 22.803704 
L 146.358438 22.784738 
L 147.229771 22.858878 
L 147.360471 22.84336 
L 150.235871 22.948537 
L 150.410138 23.000263 
L 150.932938 23.079576 
L 151.150771 23.050265 
L 151.325037 23.108887 
L 151.978537 23.086473 
L 152.109238 23.064058 
L 152.414204 23.067507 
L 153.067704 22.972676 
L 153.329104 22.85543 
L 153.677638 22.969227 
L 153.764771 22.907156 
L 153.808338 22.960606 
L 154.374704 22.877844 
L 154.548971 22.839912 
L 155.289604 22.94164 
L 155.463871 22.860602 
L 155.594571 22.87612 
L 155.899537 22.883017 
L 156.030237 22.957158 
L 156.248071 22.834739 
L 156.335204 22.858878 
L 156.509471 22.912328 
L 156.683738 22.874396 
L 157.119404 22.965779 
L 157.380804 22.981297 
L 157.642204 22.993366 
L 158.077871 23.001987 
L 158.731371 22.765771 
L 159.079904 22.76922 
L 159.297738 22.719218 
L 159.472004 22.743357 
L 159.602704 22.657147 
L 159.820537 22.714045 
L 160.169071 22.660595 
L 160.386904 22.681285 
L 160.561171 22.591627 
L 161.171104 22.488175 
L 161.388938 22.388171 
L 161.606771 22.476106 
L 164.090071 22.469209 
L 164.264338 22.543349 
L 164.438604 22.457139 
L 164.656438 22.472657 
L 165.832738 22.519211 
L 166.268404 22.720942 
L 166.965471 22.591627 
L 167.139737 22.664043 
L 167.488271 22.608869 
L 167.662537 22.662319 
L 168.054638 22.61749 
L 168.359604 22.67094 
L 168.577438 22.581282 
L 168.925971 22.601972 
L 169.884438 22.645077 
L 170.058704 22.612317 
L 170.276537 22.603696 
L 170.973604 22.548522 
L 171.104304 22.572661 
L 171.583537 22.486451 
L 171.714238 22.484727 
L 172.411304 22.560591 
L 173.021238 22.400241 
L 173.239071 22.441622 
L 173.369771 22.381274 
L 174.153971 22.493348 
L 174.502504 22.534728 
L 174.633204 22.555419 
L 174.894604 22.514038 
L 175.025304 22.505417 
L 175.243138 22.49852 
L 175.417404 22.503693 
L 175.548104 22.519211 
L 175.853071 22.608869 
L 176.855104 22.838188 
L 177.029371 22.895086 
L 177.944271 23.046816 
L 178.249238 22.919225 
L 179.033438 23.041644 
L 179.512671 22.922674 
L 180.601838 22.862327 
L 180.776104 22.957158 
L 181.560304 22.870948 
L 181.734571 22.684734 
L 181.778138 22.710597 
L 182.083104 22.686458 
L 183.346537 22.545074 
L 183.433671 22.608869 
L 183.477238 22.55197 
L 184.958504 22.762323 
L 185.089204 22.669216 
L 185.132771 22.705424 
L 185.350604 22.684734 
L 185.612004 22.772668 
L 186.483338 22.646801 
L 186.614037 22.612317 
L 187.136838 22.593351 
L 187.311104 22.560591 
L 187.703204 22.401965 
L 187.921037 22.367481 
L 188.051738 22.365757 
L 188.400271 22.446794 
L 188.574537 22.500244 
L 188.661671 22.586454 
L 189.140904 22.641629 
L 189.358738 22.507141 
L 189.707271 22.434725 
L 190.535037 22.462312 
L 190.665738 22.455415 
L 191.014271 22.457139 
L 191.188537 22.496796 
L 191.319238 22.543349 
L 191.449938 22.538177 
L 191.624204 22.507141 
L 191.754904 22.545074 
L 192.277704 22.624387 
L 192.582671 22.731287 
L 192.756938 22.664043 
L 194.325338 22.645077 
L 194.499604 22.63818 
L 194.673871 22.665768 
L 195.719471 22.764047 
L 195.980871 22.615766 
L 198.638438 22.51059 
L 199.161237 22.369205 
L 199.335504 22.434725 
L 199.684037 22.426104 
L 199.901871 22.464036 
L 200.119704 22.46576 
L 200.250404 22.47783 
L 200.468238 22.362308 
L 200.816771 22.396792 
L 200.991037 22.360584 
L 201.208871 22.382999 
L 201.775238 22.284719 
L 201.993071 22.377826 
L 202.167338 22.415759 
L 202.298037 22.410586 
L 202.995104 22.136438 
L 203.082238 22.208854 
L 203.125804 22.165749 
L 203.387204 22.12092 
L 204.302104 21.965742 
L 204.476371 21.991605 
L 204.650638 22.000226 
L 204.868471 22.084712 
L 205.304138 22.188164 
L 205.565537 22.051952 
L 205.826938 22.298513 
L 206.044771 22.284719 
L 206.175471 22.277822 
L 208.876604 22.462312 
L 209.138004 22.557143 
L 209.268704 22.576109 
L 209.442971 22.664043 
L 210.140037 22.53128 
L 210.357871 22.526107 
L 210.749971 22.579558 
L 210.880671 22.56404 
L 211.185638 22.536453 
L 211.316338 22.483002 
L 211.839138 22.512314 
L 212.056971 22.474381 
L 212.187671 22.41231 
L 212.928304 22.605421 
L 213.015438 22.651974 
L 213.059004 22.605421 
L 213.451104 22.520935 
L 214.278871 22.565764 
L 214.409571 22.548522 
L 214.932371 22.553695 
L 214.975938 22.457139 
L 215.063071 22.496796 
L 215.585871 22.467485 
L 215.847271 22.467485 
L 215.934404 22.420931 
L 216.065104 22.455415 
L 216.282938 22.505417 
L 217.023571 22.731287 
L 217.197838 22.776117 
L 217.502804 22.814049 
L 217.764204 22.741633 
L 218.025604 22.803704 
L 218.504838 22.831291 
L 219.376171 22.698528 
L 219.506871 22.827843 
L 219.550438 22.788186 
L 219.811838 22.707149 
L 220.901004 22.696803 
L 221.118838 22.648526 
L 221.903037 22.810601 
L 222.120871 22.762323 
L 222.687238 22.867499 
L 224.037804 22.664043 
L 224.429904 22.55197 
L 225.649771 22.701976 
L 226.303271 22.605421 
L 227.697404 22.677837 
L 227.958804 22.626111 
L 228.873704 22.648526 
L 229.091537 22.626111 
L 229.222238 22.641629 
L 229.440071 22.441622 
L 229.483638 22.484727 
L 230.180704 22.408862 
L 230.616371 22.450243 
L 230.964904 22.567488 
L 231.357004 22.576109 
L 231.487704 22.577833 
L 231.836238 22.49852 
L 232.010504 22.589903 
L 232.184771 22.653698 
L 232.315471 22.639905 
L 232.489738 22.589903 
L 232.838271 22.507141 
L 233.056104 22.419207 
L 233.361071 22.543349 
L 234.145271 22.660595 
L 234.450238 22.886465 
L 234.493804 22.82267 
L 235.060171 22.745081 
L 235.321571 22.808876 
L 235.539404 22.781289 
L 236.062204 22.879569 
L 236.323604 22.820946 
L 237.892004 22.739908 
L 237.892004 22.739908 
" style="fill:none;stroke:#ca9161;stroke-linecap:round;stroke-width:2;"/>
   </g>
   <g id="patch_3">
    <path d="M 54.868438 100.36 
L 54.868438 7.2 
" style="fill:none;stroke:#262626;stroke-linecap:square;stroke-linejoin:miter;stroke-width:0.8;"/>
   </g>
   <g id="patch_4">
    <path d="M 54.868438 100.36 
L 237.848438 100.36 
" style="fill:none;stroke:#262626;stroke-linecap:square;stroke-linejoin:miter;stroke-width:0.8;"/>
   </g>
   <g id="text_10">
    <!-- $P=144$ -->
    <g style="fill:#262626;" transform="translate(109.762438 49.122)">
     <text>
      <tspan style="font-family:DejaVu Sans;font-size:10px;font-style:oblique;font-weight:oblique;" x="0" y="-0.703125">P</tspan>
      <tspan style="font-family:DejaVu Sans;font-size:10px;font-style:book;font-weight:book;" x="7.978516 18.305664 24.667969 31.030273" y="-0.703125">=144</tspan>
     </text>
    </g>
   </g>
   <g id="legend_1">
    <g id="patch_5">
     <path d="M 97.440938 97.465 
L 233.795438 97.465 
Q 234.953438 97.465 234.953438 96.307 
L 234.953438 68.1676 
Q 234.953438 67.0096 233.795438 67.0096 
L 97.440938 67.0096 
Q 96.282938 67.0096 96.282938 68.1676 
L 96.282938 96.307 
Q 96.282938 97.465 97.440938 97.465 
z
" style="fill:#ffffff;opacity:0.8;stroke:#cccccc;stroke-linejoin:miter;"/>
    </g>
    <g id="line2d_12">
     <path d="M 98.598938 72.568 
L 110.178938 72.568 
" style="fill:none;stroke:#d55e00;stroke-linecap:round;stroke-width:2;"/>
    </g>
    <g id="line2d_13"/>
    <g id="text_11">
     <!-- $\langle B \rangle=41\pm5$, $\langle U/A_{spine} \rangle=$$11.2\pm2.4 \#/ \mu m^2$ -->
     <g style="fill:#262626;" transform="translate(114.810938 74.5945)">
      <text>
       <tspan style="font-family:DejaVu Sans;font-size:5.79px;font-style:book;font-weight:book;" x="0 6.221619 9.603424 15.573807 19.252014 24.056549 30.026932 36.917572 43.404541 60.321204 63.703009 69.673392 73.351599 77.029807 78.492499 83.297034 89.267416 92.945624 94.783316 98.461523 103.305579" y="-0.7828125000000004">⟨⟩=41±5⟨/⟩=11.2±2.4#/</tspan>
       <tspan style="font-family:DejaVu Sans;font-size:5.79px;font-style:oblique;font-weight:oblique;" x="2.255478 39.17305 45.352325 105.253363 108.93157" y="-0.7828125000000004">BUAμm</tspan>
       <tspan style="font-family:Arial;font-size:5.79px;font-style:regular;font-weight:regular;" x="33.705139 35.311356" y="-0.7828125000000004">, </tspan>
       <tspan style="font-family:DejaVu Sans;font-size:4.053px;font-style:oblique;font-weight:oblique;" x="49.307175 51.415581 53.984398 55.108749 57.673615" y="0.1640625">spine</tspan>
       <tspan style="font-family:DejaVu Sans;font-size:4.053px;font-style:book;font-weight:book;" x="114.831906" y="-2.9921875">2</tspan>
      </text>
     </g>
    </g>
    <g id="line2d_14">
     <path d="M 98.598938 82.5268 
L 110.178938 82.5268 
" style="fill:none;stroke:#cc78bc;stroke-linecap:round;stroke-width:2;"/>
    </g>
    <g id="line2d_15"/>
    <g id="text_12">
     <!-- $=79\pm6$, $=$$33.5\pm4.0 \#/ \mu m^2$ -->
     <g style="fill:#262626;" transform="translate(114.810938 84.5533)">
      <text>
       <tspan style="font-family:DejaVu Sans;font-size:5.79px;font-style:book;font-weight:book;" x="1.126328 7.09671 10.774918 15.579453 21.549835 29.566803 35.537186 39.215393 42.8936 44.731293 49.535828 55.50621 59.184418 61.02211 64.700317 69.544373" y="-0.7828125000000004">=79±6=33.5±4.0#/</tspan>
       <tspan style="font-family:Arial;font-size:5.79px;font-style:regular;font-weight:regular;" x="25.228043 26.834259" y="-0.7828125000000004">, </tspan>
       <tspan style="font-family:DejaVu Sans;font-size:5.79px;font-style:oblique;font-weight:oblique;" x="71.492157 75.170364" y="-0.7828125000000004">μm</tspan>
       <tspan style="font-family:DejaVu Sans;font-size:4.053px;font-style:book;font-weight:book;" x="81.0707" y="-2.9921875">2</tspan>
      </text>
     </g>
    </g>
    <g id="line2d_16">
     <path d="M 98.598938 91.9066 
L 110.178938 91.9066 
" style="fill:none;stroke:#ca9161;stroke-linecap:round;stroke-width:2;"/>
    </g>
    <g id="line2d_17"/>
    <g id="text_13">
     <!-- $=102\pm5$, $=$$66.8\pm5.6 \#/ \mu m^2$ -->
     <g style="fill:#262626;" transform="translate(114.810938 93.9331)">
      <text>
       <tspan style="font-family:DejaVu Sans;font-size:5.79px;font-style:book;font-weight:book;" x="1.126328 7.09671 10.774918 14.453125 19.25766 25.228043 33.24501 39.215393 42.8936 46.571808 48.2845 53.089035 59.059418 62.737625 64.575317 68.253525 73.09758" y="-0.7828125000000004">=102±5=66.8±5.6#/</tspan>
       <tspan style="font-family:Arial;font-size:5.79px;font-style:regular;font-weight:regular;" x="28.90625 30.512466" y="-0.7828125000000004">, </tspan>
       <tspan style="font-family:DejaVu Sans;font-size:5.79px;font-style:oblique;font-weight:oblique;" x="75.045364 78.723572" y="-0.7828125000000004">μm</tspan>
       <tspan style="font-family:DejaVu Sans;font-size:4.053px;font-style:book;font-weight:book;" x="84.623907" y="-2.9921875">2</tspan>
      </text>
     </g>
    </g>
   </g>
  </g>
 </g>
 <defs>
  <clipPath id="pc8380b9025">
   <rect height="93.16" width="182.98" x="54.868438" y="7.2"/>
  </clipPath>
 </defs>
</svg>
