<?xml version="1.0" encoding="utf-8" standalone="no"?>
<!DOCTYPE svg PUBLIC "-//W3C//DTD SVG 1.1//EN"
  "http://www.w3.org/Graphics/SVG/1.1/DTD/svg11.dtd">
<!-- Created with matplotlib (https://matplotlib.org/) -->
<svg height="137.089688pt" version="1.1" viewBox="0 0 245.048438 137.089688" width="245.048438pt" xmlns="http://www.w3.org/2000/svg" xmlns:xlink="http://www.w3.org/1999/xlink">
 <metadata>
  <rdf:RDF xmlns:cc="http://creativecommons.org/ns#" xmlns:dc="http://purl.org/dc/elements/1.1/" xmlns:rdf="http://www.w3.org/1999/02/22-rdf-syntax-ns#">
   <cc:Work>
    <dc:type rdf:resource="http://purl.org/dc/dcmitype/StillImage"/>
    <dc:date>2021-02-26T13:30:42.375887</dc:date>
    <dc:format>image/svg+xml</dc:format>
    <dc:creator>
     <cc:Agent>
      <dc:title>Matplotlib v3.3.2, https://matplotlib.org/</dc:title>
     </cc:Agent>
    </dc:creator>
   </cc:Work>
  </rdf:RDF>
 </metadata>
 <defs>
  <style type="text/css">*{stroke-linecap:butt;stroke-linejoin:round;}</style>
 </defs>
 <g id="figure_1">
  <g id="patch_1">
   <path d="M 0 137.089688 
L 245.048438 137.089688 
L 245.048438 0 
L 0 0 
z
" style="fill:#ffffff;"/>
  </g>
  <g id="axes_1">
   <g id="patch_2">
    <path d="M 54.868438 100.36 
L 237.848438 100.36 
L 237.848438 7.2 
L 54.868438 7.2 
z
" style="fill:#ffffff;"/>
   </g>
   <g id="line2d_1">
    <path clip-path="url(#pad1084b276)" d="M 54.868438 22.726667 
L 237.848438 22.726667 
" style="fill:none;stroke:#000000;stroke-linecap:round;stroke-width:1.5;"/>
   </g>
   <g id="matplotlib.axis_1">
    <g id="xtick_1">
     <g id="line2d_2">
      <defs>
       <path d="M 0 0 
L 0 3.5 
" id="m2a9f10991b" style="stroke:#262626;stroke-width:0.8;"/>
      </defs>
      <g>
       <use style="fill:#262626;stroke:#262626;stroke-width:0.8;" x="54.868438" xlink:href="#m2a9f10991b" y="100.36"/>
      </g>
     </g>
     <g id="text_1">
      <text style="fill:#262626;font-family:Arial;font-size:10px;font-stretch:normal;font-style:normal;font-weight:normal;text-anchor:middle;" transform="rotate(-0, 54.868438, 114.517813)" x="54.868438" y="114.517813">0</text>
     </g>
    </g>
    <g id="xtick_2">
     <g id="line2d_3">
      <g>
       <use style="fill:#262626;stroke:#262626;stroke-width:0.8;" x="107.148438" xlink:href="#m2a9f10991b" y="100.36"/>
      </g>
     </g>
     <g id="text_2">
      <text style="fill:#262626;font-family:Arial;font-size:10px;font-stretch:normal;font-style:normal;font-weight:normal;text-anchor:middle;" transform="rotate(-0, 107.148438, 114.517813)" x="107.148438" y="114.517813">10</text>
     </g>
    </g>
    <g id="xtick_3">
     <g id="line2d_4">
      <g>
       <use style="fill:#262626;stroke:#262626;stroke-width:0.8;" x="159.428438" xlink:href="#m2a9f10991b" y="100.36"/>
      </g>
     </g>
     <g id="text_3">
      <text style="fill:#262626;font-family:Arial;font-size:10px;font-stretch:normal;font-style:normal;font-weight:normal;text-anchor:middle;" transform="rotate(-0, 159.428438, 114.517813)" x="159.428438" y="114.517813">20</text>
     </g>
    </g>
    <g id="xtick_4">
     <g id="line2d_5">
      <g>
       <use style="fill:#262626;stroke:#262626;stroke-width:0.8;" x="211.708438" xlink:href="#m2a9f10991b" y="100.36"/>
      </g>
     </g>
     <g id="text_4">
      <text style="fill:#262626;font-family:Arial;font-size:10px;font-stretch:normal;font-style:normal;font-weight:normal;text-anchor:middle;" transform="rotate(-0, 211.708438, 114.517813)" x="211.708438" y="114.517813">30</text>
     </g>
    </g>
    <g id="text_5">
     <text style="fill:#262626;font-family:Arial;font-size:10px;font-stretch:normal;font-style:normal;font-weight:normal;text-anchor:middle;" transform="rotate(-0, 146.358438, 127.785)" x="146.358438" y="127.785">Time (min)</text>
    </g>
   </g>
   <g id="matplotlib.axis_2">
    <g id="ytick_1">
     <g id="line2d_6">
      <defs>
       <path d="M 0 0 
L -3.5 0 
" id="m8c74b984af" style="stroke:#262626;stroke-width:0.8;"/>
      </defs>
      <g>
       <use style="fill:#262626;stroke:#262626;stroke-width:0.8;" x="54.868438" xlink:href="#m8c74b984af" y="100.36"/>
      </g>
     </g>
     <g id="text_6">
      <text style="fill:#262626;font-family:Arial;font-size:10px;font-stretch:normal;font-style:normal;font-weight:normal;text-anchor:end;" transform="rotate(-0, 47.868438, 103.938906)" x="47.868438" y="103.938906">0</text>
     </g>
    </g>
    <g id="ytick_2">
     <g id="line2d_7">
      <g>
       <use style="fill:#262626;stroke:#262626;stroke-width:0.8;" x="54.868438" xlink:href="#m8c74b984af" y="61.543333"/>
      </g>
     </g>
     <g id="text_7">
      <text style="fill:#262626;font-family:Arial;font-size:10px;font-stretch:normal;font-style:normal;font-weight:normal;text-anchor:end;" transform="rotate(-0, 47.868438, 65.12224)" x="47.868438" y="65.12224">50</text>
     </g>
    </g>
    <g id="ytick_3">
     <g id="line2d_8">
      <g>
       <use style="fill:#262626;stroke:#262626;stroke-width:0.8;" x="54.868438" xlink:href="#m8c74b984af" y="22.726667"/>
      </g>
     </g>
     <g id="text_8">
      <text style="fill:#262626;font-family:Arial;font-size:10px;font-stretch:normal;font-style:normal;font-weight:normal;text-anchor:end;" transform="rotate(-0, 47.868438, 26.305573)" x="47.868438" y="26.305573">100</text>
     </g>
    </g>
    <g id="text_9">
     <text style="fill:#262626;font-family:Arial;font-size:10px;font-stretch:normal;font-style:normal;font-weight:normal;" transform="translate(14.357813 72.581563)rotate(-90)">AMPAR </text>
     <text style="fill:#262626;font-family:Arial;font-size:10px;font-stretch:normal;font-style:normal;font-weight:normal;" transform="translate(25.080938 85.451094)rotate(-90)"> Recovery (%)</text>
    </g>
   </g>
   <g id="line2d_9">
    <path clip-path="url(#pad1084b276)" d="M 54.824871 100.36 
L 54.868438 100.36 
L 55.739771 97.726779 
L 56.001171 97.098724 
L 56.480404 95.692803 
L 57.177471 93.883544 
L 57.395304 93.382252 
L 58.005237 91.964807 
L 58.397337 90.846985 
L 58.658737 90.316883 
L 58.876571 89.815592 
L 59.442938 88.450004 
L 60.444971 86.110644 
L 62.274771 82.209789 
L 62.361904 82.100311 
L 64.932337 76.586104 
L 65.368004 75.865858 
L 65.672971 75.278137 
L 65.934371 74.949704 
L 66.282904 74.269792 
L 66.413604 74.114218 
L 67.067104 72.898442 
L 68.417671 70.789561 
L 68.809771 70.242173 
L 69.027604 69.879169 
L 69.419704 69.216542 
L 70.029638 68.190911 
L 70.291038 67.724192 
L 72.817904 63.886718 
L 72.905037 63.811813 
L 73.253571 63.437285 
L 73.427838 63.166472 
L 73.776371 62.63637 
L 77.261704 57.761742 
L 77.392404 57.606169 
L 77.828071 57.05302 
L 77.915204 57.012686 
L 78.176604 56.64392 
L 80.703471 53.457549 
L 80.834171 53.474835 
L 81.226271 52.771875 
L 81.313404 52.708493 
L 82.925371 51.319858 
L 83.012504 51.291048 
L 83.535304 50.703327 
L 84.101671 50.115606 
L 84.363071 49.787173 
L 84.450204 49.769887 
L 84.668037 49.57398 
L 84.798737 49.470265 
L 85.190838 49.003545 
L 85.495804 48.8134 
L 85.800771 48.502254 
L 85.931471 48.415824 
L 86.149304 48.219917 
L 86.323571 48.041296 
L 87.151338 47.188524 
L 87.412737 47.073285 
L 87.848404 46.664185 
L 87.979104 46.583517 
L 88.414771 46.145607 
L 88.545471 46.139845 
L 88.719737 46.001558 
L 88.937571 45.863271 
L 89.155404 45.603982 
L 90.201004 44.803068 
L 90.462404 44.555303 
L 92.248638 43.241573 
L 92.379338 43.149382 
L 92.727871 42.849759 
L 93.860604 41.927844 
L 93.947737 41.933606 
L 94.165571 41.720413 
L 94.339838 41.645507 
L 94.688371 41.276741 
L 95.646838 40.487351 
L 95.821104 40.510399 
L 96.082504 40.383635 
L 96.169638 40.360587 
L 97.084537 39.75558 
L 97.215237 39.692199 
L 97.433071 39.513578 
L 97.476638 39.582721 
L 97.520204 39.542387 
L 98.478671 38.804855 
L 98.870771 38.64352 
L 99.001471 38.580138 
L 99.306438 38.476423 
L 100.090638 38.159514 
L 100.352037 37.905987 
L 100.526304 37.946321 
L 101.266938 37.583317 
L 101.310504 37.508411 
L 101.354071 37.542983 
L 101.528338 37.594841 
L 101.702604 37.560269 
L 101.876871 37.450792 
L 103.053171 36.632592 
L 103.227438 36.551924 
L 103.445271 36.425161 
L 103.575971 36.407875 
L 104.142338 36.21773 
L 104.273037 36.263825 
L 104.839404 36.004537 
L 105.013671 35.975727 
L 105.100804 35.860487 
L 105.144371 35.877773 
L 105.710737 35.39953 
L 105.797871 35.353434 
L 106.189971 35.169051 
L 106.364238 35.174813 
L 106.756338 34.892476 
L 107.496971 34.800285 
L 108.019771 34.471852 
L 108.150471 34.4949 
L 108.455438 34.316279 
L 108.673271 34.322041 
L 108.716838 34.241373 
L 108.803971 34.304755 
L 110.285237 33.451983 
L 110.459504 33.348268 
L 110.982304 33.2676 
L 111.243704 33.100503 
L 111.330838 33.129313 
L 111.374404 33.031359 
L 111.461537 33.088979 
L 111.548671 33.071693 
L 111.635804 33.163885 
L 111.679371 33.088979 
L 111.810071 33.106265 
L 111.940771 33.054407 
L 112.420004 32.956454 
L 112.768537 32.789356 
L 112.942804 32.766309 
L 114.424071 32.103682 
L 114.729037 32.063348 
L 114.946871 31.953871 
L 115.208271 31.953871 
L 115.338971 31.919299 
L 115.513238 31.936585 
L 115.948904 31.677296 
L 116.036037 31.769487 
L 116.210304 31.590866 
L 116.384571 31.539009 
L 116.820237 31.579342 
L 116.994504 31.481389 
L 117.822271 31.377673 
L 118.040104 31.273958 
L 118.170804 31.314292 
L 118.432204 31.072289 
L 118.606471 30.980097 
L 118.911438 30.864858 
L 119.216404 30.847572 
L 119.347104 30.89943 
L 119.521371 30.859096 
L 119.782771 30.818762 
L 120.174871 30.674713 
L 120.566971 30.51914 
L 120.654104 30.380852 
L 120.741237 30.473044 
L 120.915504 30.542187 
L 121.089771 30.530663 
L 121.307604 30.426948 
L 121.569004 30.547949 
L 121.917537 30.507616 
L 122.048237 30.547949 
L 122.353204 30.340518 
L 122.701738 30.357804 
L 122.876004 30.265613 
L 123.006704 30.300185 
L 123.268104 30.167659 
L 123.834471 30.213755 
L 124.444404 30.092754 
L 124.662238 29.891085 
L 125.141471 29.960228 
L 125.272171 29.914132 
L 125.794971 29.631796 
L 126.187071 29.447413 
L 126.361338 29.395555 
L 126.666304 29.211172 
L 126.797004 29.165076 
L 127.145537 29.142028 
L 127.319804 29.153552 
L 127.406938 29.159314 
L 127.537638 29.055599 
L 127.755471 29.107456 
L 128.278271 29.021027 
L 128.452537 28.951883 
L 129.280304 28.963407 
L 129.498138 28.813596 
L 129.890238 28.646499 
L 130.020938 28.686832 
L 131.022971 28.191303 
L 131.197237 28.289256 
L 131.981438 28.496687 
L 132.112138 28.560069 
L 132.329971 28.513973 
L 132.504237 28.577355 
L 132.678504 28.560069 
L 133.070604 28.560069 
L 133.375571 28.47364 
L 133.549838 28.560069 
L 133.724104 28.548545 
L 134.377604 28.289256 
L 134.726138 28.392972 
L 135.771738 28.335352 
L 135.946004 28.352638 
L 136.686638 28.341114 
L 136.904471 28.352638 
L 137.035171 28.335352 
L 137.950071 27.851347 
L 138.385738 27.897442 
L 138.603571 27.787965 
L 138.864971 27.903204 
L 139.562037 27.620868 
L 139.692737 27.701535 
L 139.954138 27.517152 
L 140.041271 27.615106 
L 140.084838 27.574772 
L 140.171971 27.522914 
L 140.215537 27.586296 
L 140.433371 27.649678 
L 140.694771 27.551724 
L 140.825471 27.615106 
L 140.869037 27.534438 
L 141.086871 27.603582 
L 141.304704 27.707297 
L 141.478971 27.51139 
L 141.740371 27.407675 
L 141.827504 27.424961 
L 142.132471 27.1311 
L 142.219604 27.15991 
L 142.306737 27.21753 
L 142.350304 27.165672 
L 143.090938 26.964003 
L 143.221638 27.010099 
L 143.657304 27.085004 
L 144.354371 26.900621 
L 144.572204 26.946717 
L 144.702904 26.923669 
L 146.314871 27.24634 
L 146.489138 27.182958 
L 146.706971 27.15991 
L 146.837671 27.171434 
L 147.011938 27.056194 
L 147.534738 27.085004 
L 147.839704 26.992813 
L 147.926838 27.079242 
L 147.970404 27.038909 
L 148.275371 26.946717 
L 148.449638 26.958241 
L 148.623904 26.900621 
L 148.841737 26.969765 
L 149.146704 26.77962 
L 149.277404 26.768096 
L 149.538804 26.710476 
L 149.713071 26.727762 
L 149.930904 26.796906 
L 150.018037 26.843002 
L 150.148738 26.745048 
L 150.235871 26.773858 
L 150.366571 26.641333 
L 150.497271 26.658618 
L 150.889371 26.549141 
L 151.760704 26.871811 
L 151.978537 26.929431 
L 152.457771 26.894859 
L 152.632037 26.745048 
L 152.937004 26.848763 
L 153.329104 26.652856 
L 153.503371 26.554903 
L 153.851904 26.445425 
L 154.113304 26.479997 
L 154.287571 26.456949 
L 154.592537 26.439663 
L 154.810371 26.39933 
L 156.901571 26.232233 
L 157.032271 26.301376 
L 157.162971 26.197661 
L 157.337238 26.209185 
L 157.511504 26.122755 
L 157.729338 26.088183 
L 157.860037 26.053611 
L 158.077871 25.967182 
L 158.600671 26.007516 
L 158.949204 25.788561 
L 159.167037 25.944134 
L 159.428438 25.99023 
L 159.559138 26.013278 
L 159.733404 25.909562 
L 159.907671 25.978706 
L 160.038371 25.995992 
L 160.256204 26.168851 
L 161.040404 26.065135 
L 161.258238 26.145803 
L 162.173138 25.955658 
L 162.347404 25.880752 
L 163.262304 26.036325 
L 163.480138 25.863466 
L 163.567271 25.96142 
L 163.610838 25.915324 
L 163.785104 25.96142 
L 164.002938 25.972944 
L 164.090071 26.013278 
L 164.177204 26.042087 
L 164.220771 25.99023 
L 164.351471 26.024802 
L 164.612871 26.099707 
L 164.787138 26.082421 
L 165.048537 25.99023 
L 165.266371 26.001754 
L 165.876304 26.001754 
L 166.007004 25.955658 
L 166.486238 25.857704 
L 166.747638 25.742465 
L 166.878338 25.742465 
L 166.965471 25.857704 
L 167.009037 25.817371 
L 167.139737 25.753989 
L 167.314004 25.823133 
L 167.618971 25.742465 
L 167.662537 25.702131 
L 167.706104 25.777037 
L 167.880371 25.753989 
L 168.054638 25.638749 
L 168.098204 25.707893 
L 168.621004 25.598416 
L 168.751704 25.615702 
L 169.056671 25.679083 
L 169.187371 25.535034 
L 169.361638 25.55232 
L 169.492338 25.511986 
L 170.363671 25.304555 
L 170.450804 25.321841 
L 170.668638 25.362175 
L 170.973604 25.316079 
L 171.147871 25.269983 
L 171.235004 25.298793 
L 171.539971 25.11441 
L 171.583537 25.17203 
L 171.627104 25.097124 
L 171.975638 24.953075 
L 172.237037 24.745644 
L 172.542004 24.578547 
L 172.629138 24.555499 
L 172.934104 24.307734 
L 173.151938 24.186733 
L 173.195504 24.255876 
L 173.369771 24.330782 
L 173.544037 24.313496 
L 173.805438 24.29621 
L 174.153971 24.227066 
L 174.284671 24.192494 
L 174.502504 24.186733 
L 174.633204 24.186733 
L 174.763904 24.169447 
L 174.894604 24.042683 
L 175.068871 24.134875 
L 175.765938 24.117589 
L 175.853071 24.065731 
L 175.940204 23.956254 
L 175.983771 23.985063 
L 176.985804 24.290448 
L 177.029371 24.255876 
L 177.072938 24.32502 
L 177.247204 24.376878 
L 177.508604 24.273162 
L 177.682871 24.336544 
L 177.987838 24.32502 
L 178.118537 24.365354 
L 178.336371 24.307734 
L 178.554204 24.204018 
L 178.728471 24.261638 
L 178.902738 24.290448 
L 179.817638 24.561261 
L 179.948338 24.463307 
L 180.035471 24.405687 
L 180.122604 24.446021 
L 180.166171 24.399925 
L 180.340438 24.313496 
L 180.427571 24.290448 
L 180.601838 24.32502 
L 181.037504 24.255876 
L 181.211771 24.175209 
L 182.344504 24.048445 
L 182.475204 24.106065 
L 183.215838 24.094541 
L 183.390104 24.180971 
L 183.520804 24.100303 
L 183.738638 23.985063 
L 183.912904 23.881348 
L 184.348571 24.071493 
L 184.522838 24.048445 
L 184.609971 24.002349 
L 184.740671 24.054207 
L 185.089204 24.129113 
L 185.307037 24.20978 
L 185.873404 24.094541 
L 186.047671 23.985063 
L 186.265504 23.985063 
L 186.744738 23.864062 
L 186.919004 23.88711 
L 187.136838 24.013873 
L 187.485371 24.077255 
L 188.008171 23.673917 
L 188.051738 23.731537 
L 188.095304 23.645107 
L 188.356704 23.541392 
L 188.574537 23.437676 
L 188.966638 23.472248 
L 189.140904 23.466486 
L 189.489438 23.426152 
L 190.709304 23.495296 
L 190.840004 23.466486 
L 191.493504 23.547154 
L 191.842037 23.495296 
L 192.495537 23.656631 
L 192.669804 23.668155 
L 192.800504 23.604773 
L 192.974771 23.47801 
L 193.192604 23.495296 
L 193.541138 23.4492 
L 193.758971 23.53563 
L 194.586737 23.679679 
L 194.673871 23.708489 
L 194.891704 23.760347 
L 195.022404 23.760347 
L 195.588771 24.036921 
L 195.806604 23.898634 
L 196.068004 23.835252 
L 196.372971 23.760347 
L 196.721504 23.864062 
L 197.026471 23.841014 
L 197.287871 23.777633 
L 197.505704 23.650869 
L 197.636404 23.662393 
L 197.679971 23.610535 
L 197.723537 23.685441 
L 197.854238 23.656631 
L 197.984938 23.610535 
L 198.072071 23.662393 
L 198.115638 23.622059 
L 198.289904 23.53563 
L 198.420604 23.483772 
L 198.682004 23.328199 
L 199.117671 23.489534 
L 199.814738 23.47801 
L 200.032571 23.512582 
L 200.947471 23.310913 
L 201.121738 23.189911 
L 201.252438 23.201435 
L 201.426704 23.333961 
L 201.644537 23.276341 
L 201.775238 23.230245 
L 202.385171 23.293627 
L 202.559438 23.357009 
L 202.733704 23.339723 
L 202.864404 23.322437 
L 203.038671 23.259055 
L 203.300071 23.06891 
L 203.605037 23.080434 
L 203.735737 23.01129 
L 204.302104 22.936385 
L 204.476371 22.936385 
L 204.650638 22.861479 
L 205.914071 22.775049 
L 206.044771 22.775049 
L 206.480438 22.752002 
L 206.872537 22.855717 
L 206.916104 22.752002 
L 206.959671 22.780811 
L 207.090371 22.924861 
L 207.133938 22.873003 
L 207.177504 22.919099 
L 207.264638 22.896051 
L 207.438904 22.873003 
L 207.831004 22.907575 
L 208.005271 22.849955 
L 208.135971 22.798097 
L 208.223104 22.740478 
L 208.266671 22.821145 
L 208.702338 22.763525 
L 209.181571 22.936385 
L 209.312271 22.930623 
L 209.399404 22.873003 
L 209.442971 22.901813 
L 209.704371 22.855717 
L 210.183604 22.775049 
L 210.662838 22.826907 
L 210.793537 22.873003 
L 211.011371 22.803859 
L 211.054938 22.861479 
L 211.098504 22.815383 
L 211.229204 22.763525 
L 211.359904 22.919099 
L 211.534171 22.780811 
L 211.708438 22.832669 
L 211.839138 22.740478 
L 212.144104 22.959433 
L 212.231238 22.965194 
L 212.405504 22.994004 
L 213.973904 22.942147 
L 214.148171 22.792335 
L 214.278871 22.780811 
L 214.453138 22.71743 
L 215.193771 22.861479 
L 215.280904 22.734716 
L 215.324471 22.786573 
L 215.498738 22.867241 
L 215.760138 22.821145 
L 215.934404 22.884527 
L 216.108671 22.775049 
L 216.326504 22.907575 
L 216.631471 22.677096 
L 216.718604 22.504237 
L 216.762171 22.533047 
L 216.980004 22.509999 
L 217.110704 22.492713 
L 217.328537 22.463903 
L 217.764204 22.515761 
L 217.938471 22.452379 
L 218.156304 22.492713 
L 218.330571 22.475427 
L 218.548404 22.590666 
L 218.853371 22.57338 
L 218.984071 22.648286 
L 219.158338 22.596428 
L 219.289037 22.631 
L 219.594004 22.584904 
L 219.724704 22.533047 
L 219.898971 22.481189 
L 220.073238 22.567618 
L 220.203938 22.607952 
L 220.334638 22.556094 
L 220.465338 22.584904 
L 220.726738 22.619476 
L 220.901004 22.654048 
L 220.988138 22.769287 
L 221.031704 22.71743 
L 221.205971 22.71743 
L 221.380238 22.74624 
L 221.685204 22.786573 
L 221.990171 22.71743 
L 222.208004 22.705906 
L 222.817938 22.538809 
L 222.948638 22.498475 
L 223.166471 22.579142 
L 223.297171 22.521523 
L 223.340738 22.590666 
L 223.602138 22.648286 
L 223.645704 22.711668 
L 223.732838 22.648286 
L 224.342771 22.538809 
L 224.604171 22.469665 
L 224.778438 22.458141 
L 224.865571 22.394759 
L 224.909138 22.429331 
L 225.126971 22.400521 
L 225.301238 22.296806 
L 225.998304 22.435093 
L 226.129004 22.354425 
L 226.346838 22.388997 
L 226.608238 22.383235 
L 226.913204 22.342902 
L 227.305304 22.204614 
L 227.610271 22.371711 
L 227.958804 22.429331 
L 228.133071 22.648286 
L 228.873704 22.550333 
L 229.004404 22.631 
L 229.265804 22.486951 
L 230.093571 22.919099 
L 230.224271 22.907575 
L 230.616371 22.999766 
L 231.095604 22.896051 
L 231.139171 22.809621 
L 231.182738 22.873003 
L 231.879804 23.143816 
L 232.097638 23.034338 
L 232.315471 23.074672 
L 232.359037 23.166863 
L 232.402604 23.080434 
L 232.838271 22.890289 
L 233.099671 22.907575 
L 233.317504 22.838431 
L 233.622471 23.005528 
L 233.796738 22.919099 
L 233.971004 23.022814 
L 234.275971 23.241769 
L 234.493804 23.15534 
L 234.537371 23.224483 
L 234.580938 23.138054 
L 235.147304 22.942147 
L 235.278004 22.878765 
L 236.410738 22.538809 
L 236.759271 22.533047 
L 236.889971 22.492713 
L 237.020671 22.533047 
L 237.151371 22.509999 
L 237.369204 22.521523 
L 237.499904 22.550333 
L 237.674171 22.492713 
L 237.892004 22.538809 
L 237.892004 22.538809 
" style="fill:none;stroke:#d55e00;stroke-linecap:round;stroke-width:2;"/>
   </g>
   <g id="line2d_10">
    <path clip-path="url(#pad1084b276)" d="M 54.824871 100.36 
L 54.868438 100.36 
L 55.914038 97.304404 
L 59.007271 89.608083 
L 59.660771 88.173823 
L 60.488538 86.373456 
L 61.011337 85.387779 
L 61.403438 84.679702 
L 61.534138 84.480555 
L 62.056938 83.490856 
L 63.276804 81.340472 
L 63.799604 80.272321 
L 64.540237 78.98893 
L 64.932337 78.431722 
L 65.368004 77.783992 
L 66.892837 75.416357 
L 67.633471 74.352229 
L 68.984038 72.716811 
L 69.419704 72.073104 
L 69.550404 71.948386 
L 70.029638 71.342899 
L 70.247471 71.105532 
L 70.944537 70.268713 
L 72.992171 68.025797 
L 73.079304 67.977519 
L 73.471404 67.605376 
L 73.602104 67.538994 
L 74.604138 66.523144 
L 74.778404 66.40446 
L 75.214071 66.110769 
L 75.736871 65.561607 
L 76.259671 65.088884 
L 76.608204 64.819332 
L 76.913171 64.521618 
L 77.174571 64.290285 
L 77.828071 63.696868 
L 78.002338 63.590254 
L 78.263737 63.425304 
L 78.525138 63.226157 
L 78.830104 62.976721 
L 79.004371 62.888211 
L 79.570737 62.405431 
L 79.788571 62.151971 
L 81.792638 60.440113 
L 82.054037 60.15648 
L 82.838237 59.6737 
L 84.058104 58.897228 
L 84.275938 58.798661 
L 85.103704 58.265591 
L 85.321537 58.116734 
L 88.153371 56.414934 
L 88.545471 56.189636 
L 88.850438 56.032733 
L 89.024704 56.024686 
L 89.286104 55.76318 
L 89.678204 55.507709 
L 90.026737 55.362875 
L 90.244571 55.216029 
L 90.462404 55.065161 
L 90.941638 54.787562 
L 91.420871 54.650774 
L 91.638704 54.509963 
L 92.815004 53.978905 
L 93.163537 53.811944 
L 93.337804 53.711365 
L 93.599204 53.562507 
L 93.904171 53.516241 
L 95.124037 53.025414 
L 95.429004 52.832302 
L 95.733971 52.775978 
L 96.038938 52.61304 
L 96.256771 52.566773 
L 96.518171 52.450101 
L 97.520204 52.11819 
L 97.738037 52.128248 
L 97.999438 52.047785 
L 98.130138 52.055831 
L 98.870771 51.705815 
L 100.395604 51.009807 
L 100.613438 51.007796 
L 101.179804 50.764394 
L 101.571904 50.533062 
L 111.853638 46.841805 
L 112.071471 46.902152 
L 112.245737 46.833759 
L 112.332871 46.781457 
L 112.594271 46.696971 
L 113.204204 46.588345 
L 113.509171 46.497824 
L 113.683438 46.47972 
L 113.988404 46.401268 
L 114.206237 46.355002 
L 114.816171 46.355002 
L 115.034004 46.27655 
L 115.295404 46.224249 
L 115.731071 46.055275 
L 116.428138 45.854117 
L 117.865838 45.415592 
L 117.996537 45.399499 
L 118.388638 45.276792 
L 120.305571 44.729642 
L 120.566971 44.588831 
L 120.828371 44.631074 
L 121.089771 44.490263 
L 121.394737 44.401753 
L 121.873971 44.337383 
L 122.004671 44.331348 
L 122.614604 44.176456 
L 123.006704 44.051738 
L 123.050271 44.098004 
L 123.093838 44.053749 
L 123.311671 44.02961 
L 123.616638 44.057772 
L 123.747338 44.013518 
L 124.008737 43.971274 
L 124.183004 43.979321 
L 124.400838 43.872707 
L 124.836504 43.814371 
L 125.010771 43.786209 
L 125.315737 43.659479 
L 125.794971 43.589073 
L 126.187071 43.474413 
L 128.104004 43.009737 
L 128.321838 43.041922 
L 128.670371 42.971517 
L 128.931771 42.866915 
L 129.149604 42.834729 
L 129.411004 42.82266 
L 129.759537 42.816625 
L 130.064504 42.748231 
L 130.238771 42.740185 
L 130.500171 42.69593 
L 131.066537 42.585293 
L 131.284371 42.555119 
L 131.458638 42.58127 
L 131.589338 42.601386 
L 131.763604 42.585293 
L 131.937871 42.553108 
L 133.288438 42.516899 
L 133.506271 42.460575 
L 133.767671 42.464598 
L 134.116204 42.456552 
L 134.334037 42.430401 
L 134.769704 42.392181 
L 136.555938 42.166883 
L 136.991604 42.211138 
L 137.906504 42.102513 
L 138.037204 42.146768 
L 141.130438 41.398458 
L 143.526604 41.07057 
L 143.700871 41.110802 
L 143.875138 41.110802 
L 144.049404 41.066547 
L 144.310804 41.016257 
L 144.746471 40.935794 
L 145.225704 40.937806 
L 147.970404 40.467095 
L 148.362504 40.322261 
L 150.235871 40.076848 
L 150.584404 40.06679 
L 151.237904 39.917932 
L 151.586438 39.923967 
L 151.804271 39.86362 
L 151.978537 39.887759 
L 152.327071 39.883735 
L 152.588471 39.86362 
L 153.024138 39.771087 
L 153.329104 39.728843 
L 154.461838 39.781145 
L 154.679671 39.704704 
L 155.420304 39.608148 
L 155.812404 39.435152 
L 155.986671 39.497511 
L 156.335204 39.523662 
L 157.380804 39.376816 
L 157.772904 39.252098 
L 158.339271 39.199797 
L 158.557104 39.105252 
L 159.428438 38.888001 
L 159.820537 39.016743 
L 160.212638 38.952372 
L 160.648304 39.004673 
L 160.909704 38.928233 
L 161.214671 38.938291 
L 161.388938 38.869897 
L 161.650338 38.845758 
L 161.824604 38.735121 
L 162.173138 38.741156 
L 162.303838 38.725063 
L 163.305871 38.871909 
L 163.393004 38.904094 
L 163.436571 38.853804 
L 163.654404 38.773341 
L 163.872238 38.704947 
L 164.612871 38.634542 
L 164.787138 38.626495 
L 164.917838 38.60638 
L 166.137704 38.519881 
L 166.399104 38.568159 
L 166.704071 38.497754 
L 166.878338 38.570171 
L 168.621004 38.586264 
L 168.925971 38.572183 
L 169.056671 38.584252 
L 170.799338 38.574194 
L 171.147871 38.507812 
L 171.365704 38.477638 
L 173.544037 38.379071 
L 173.674738 38.350908 
L 173.892571 38.40321 
L 174.197537 38.423325 
L 174.328238 38.417291 
L 174.589638 38.449476 
L 174.763904 38.383094 
L 174.938171 38.358955 
L 175.243138 38.326769 
L 175.548104 38.171877 
L 176.811537 38.177912 
L 177.465037 38.063252 
L 177.726438 38.069287 
L 177.900704 38.087391 
L 178.292804 38.089402 
L 178.467071 38.093426 
L 179.120571 38.083368 
L 179.904771 38.014974 
L 183.477238 37.741398 
L 183.782204 37.751456 
L 183.825771 37.801746 
L 183.869338 37.757491 
L 184.043604 37.733352 
L 184.217871 37.69312 
L 185.089204 37.554321 
L 185.437737 37.640819 
L 185.786271 37.536217 
L 185.916971 37.475869 
L 186.309071 37.403452 
L 186.614037 37.38736 
L 187.485371 37.351151 
L 187.616071 37.389371 
L 187.877471 37.355174 
L 188.051738 37.292815 
L 188.400271 37.218386 
L 188.705238 37.208329 
L 189.402304 37.09568 
L 189.750838 37.129877 
L 190.186504 37.109761 
L 190.796438 37.198271 
L 191.014271 37.190224 
L 191.275671 37.21034 
L 191.667771 37.254595 
L 193.105471 36.898545 
L 193.889671 36.91866 
L 194.063938 36.896533 
L 194.368904 36.725548 
L 194.543171 36.705433 
L 195.240238 36.624969 
L 195.588771 36.649108 
L 195.850171 36.592784 
L 196.198704 36.560598 
L 197.070037 36.460019 
L 198.072071 36.451973 
L 198.899838 36.313174 
L 199.117671 36.325243 
L 199.727604 36.214606 
L 199.901871 36.242768 
L 200.163271 36.230699 
L 200.816771 36.130119 
L 200.991037 36.134143 
L 201.121738 36.140177 
L 201.252438 36.122073 
L 201.426704 36.152247 
L 201.600971 36.130119 
L 202.603004 36.019482 
L 202.907971 35.918903 
L 203.082238 35.975228 
L 204.912037 35.78815 
L 205.173438 35.725791 
L 207.787438 35.522621 
L 207.961704 35.490436 
L 208.179537 35.47032 
L 208.528071 35.514575 
L 208.920171 35.617166 
L 209.268704 35.63527 
L 212.100537 35.669467 
L 212.361938 35.677513 
L 216.587904 35.574922 
L 216.849304 35.492447 
L 217.023571 35.528656 
L 217.328537 35.518598 
L 217.677071 35.605096 
L 217.938471 35.560841 
L 220.203938 35.450204 
L 220.683171 35.540725 
L 220.857438 35.534691 
L 220.988138 35.540725 
L 222.643671 35.38181 
L 222.817938 35.359683 
L 223.035771 35.407961 
L 223.340738 35.367729 
L 223.602138 35.335544 
L 223.819971 35.25508 
L 224.560604 35.238988 
L 224.778438 35.146455 
L 225.083404 35.194733 
L 227.479571 35.082084 
L 228.263771 35.253069 
L 228.481604 35.315428 
L 228.612304 35.31744 
L 228.960838 35.283243 
L 229.178671 35.291289 
L 231.923371 35.01369 
L 232.489738 34.969435 
L 233.012537 34.901042 
L 233.317504 34.890984 
L 233.622471 34.866845 
L 233.753171 34.862822 
L 234.145271 34.701895 
L 234.450238 34.713964 
L 237.412771 34.812532 
L 237.674171 34.840694 
L 237.892004 34.78437 
L 237.892004 34.78437 
" style="fill:none;stroke:#cc78bc;stroke-linecap:round;stroke-width:2;"/>
   </g>
   <g id="line2d_11">
    <path clip-path="url(#pad1084b276)" d="M 54.824871 100.36 
L 54.868438 100.36 
L 55.609071 97.082564 
L 56.959638 91.853497 
L 57.613138 89.575605 
L 59.094404 84.874487 
L 60.880638 79.802618 
L 63.538204 73.467231 
L 64.453104 71.657968 
L 64.801638 70.944643 
L 66.457171 68.126938 
L 69.419704 63.48514 
L 69.593971 63.255275 
L 69.898938 62.825204 
L 71.772304 60.634809 
L 75.998271 57.038528 
L 77.348838 55.951487 
L 78.263737 55.012746 
L 79.614304 54.065108 
L 79.875704 53.893079 
L 80.529204 53.565336 
L 80.790604 53.299878 
L 81.313404 53.058149 
L 81.661938 52.840148 
L 81.879771 52.700745 
L 84.668037 51.287444 
L 84.929438 51.238505 
L 85.190838 51.014571 
L 85.844338 50.799536 
L 86.062171 50.642338 
L 86.323571 50.571154 
L 87.194904 50.077314 
L 87.412737 50.05062 
L 87.717704 49.903802 
L 87.979104 49.834101 
L 88.327638 49.635379 
L 88.458338 49.567161 
L 89.111838 49.316533 
L 89.242537 49.291322 
L 89.634638 49.217172 
L 89.983171 49.054042 
L 90.331704 48.831592 
L 90.462404 48.735196 
L 90.810938 48.603209 
L 91.028771 48.563168 
L 91.508004 48.367412 
L 92.684304 47.946239 
L 93.163537 47.915096 
L 93.337804 47.92696 
L 96.038938 46.991185 
L 96.256771 46.902205 
L 96.648871 46.722762 
L 96.910271 46.543319 
L 97.128104 46.466202 
L 97.389504 46.412814 
L 97.607338 46.429127 
L 98.086571 46.439508 
L 98.435104 46.409848 
L 99.916371 46.009438 
L 100.090638 45.987193 
L 100.744138 45.835926 
L 101.354071 45.74398 
L 101.833304 45.617925 
L 102.181838 45.482972 
L 102.530371 45.368781 
L 102.791771 45.404373 
L 103.227438 45.254589 
L 103.401704 45.201201 
L 103.750237 45.063282 
L 103.968071 45.026207 
L 104.098771 44.926846 
L 104.621571 44.69698 
L 105.580037 44.501224 
L 105.797871 44.495292 
L 106.146404 44.461183 
L 106.364238 44.413727 
L 106.538504 44.410761 
L 109.239638 44.050391 
L 109.457471 44.022214 
L 109.631737 44.008867 
L 109.936704 43.999969 
L 110.503071 43.851669 
L 110.808037 43.783451 
L 111.113004 43.740444 
L 111.853638 43.712267 
L 112.027904 43.774553 
L 113.683438 43.492782 
L 114.075537 43.415666 
L 114.249804 43.420115 
L 114.293371 43.458673 
L 114.336938 43.406768 
L 114.772604 43.301475 
L 116.253871 43.191733 
L 117.604438 43.050847 
L 118.040104 42.883268 
L 118.214371 42.914411 
L 118.737171 42.869921 
L 118.998571 42.852125 
L 119.477804 42.5926 
L 119.826338 42.515484 
L 120.044171 42.473959 
L 120.392704 42.334557 
L 120.566971 42.353836 
L 120.828371 42.38053 
L 121.612571 42.29155 
L 122.004671 42.144733 
L 123.747338 42.180325 
L 123.878037 42.156597 
L 124.226571 42.066134 
L 124.400838 42.123971 
L 124.836504 42.138801 
L 125.315737 42.230747 
L 125.490004 42.257441 
L 125.794971 42.144733 
L 125.925671 42.116556 
L 126.535604 42.097277 
L 126.753438 42.119522 
L 126.927704 42.051304 
L 127.886171 41.811057 
L 128.496104 41.778431 
L 128.888204 41.757669 
L 130.543737 41.444756 
L 130.718004 41.410647 
L 130.892271 41.423994 
L 131.066537 41.385436 
L 131.240804 41.369123 
L 131.632904 41.219339 
L 132.025004 41.047311 
L 132.634938 41.088835 
L 132.852771 41.115529 
L 133.027037 41.063624 
L 133.288438 41.039896 
L 133.724104 41.019134 
L 133.767671 41.078454 
L 133.811238 41.025066 
L 134.116204 40.924222 
L 134.377604 40.887147 
L 134.726138 40.812997 
L 135.728171 40.821895 
L 137.862938 40.734397 
L 138.080771 40.645417 
L 138.211471 40.681009 
L 138.560004 40.651349 
L 138.995671 40.67656 
L 139.126371 40.69139 
L 139.474904 40.695839 
L 139.649171 40.624655 
L 139.954138 40.63207 
L 140.171971 40.578682 
L 140.956171 40.387375 
L 141.261138 40.338436 
L 141.653237 40.359198 
L 141.871071 40.286531 
L 142.176037 40.16789 
L 142.960238 40.055182 
L 143.221638 39.997345 
L 143.831571 39.849045 
L 144.136537 39.688881 
L 144.310804 39.705194 
L 145.530671 39.550961 
L 145.835638 39.644391 
L 145.966338 39.622145 
L 146.097037 39.601383 
L 146.314871 39.588036 
L 146.663404 39.54058 
L 146.881237 39.553927 
L 147.142638 39.662187 
L 147.447604 39.582104 
L 147.796138 39.697779 
L 147.926838 39.622145 
L 148.362504 39.568757 
L 148.580338 39.550961 
L 149.364537 39.456049 
L 149.625938 39.402661 
L 149.843771 39.473845 
L 150.105171 39.420457 
L 150.715104 39.473845 
L 151.150771 39.380416 
L 151.325037 39.386348 
L 151.673571 39.373001 
L 152.762738 39.395246 
L 152.893438 39.349273 
L 153.590504 39.251395 
L 153.808338 39.300334 
L 154.461838 39.254361 
L 154.679671 39.251395 
L 154.897504 39.270674 
L 155.638138 39.295885 
L 155.943104 39.324062 
L 156.160938 39.294402 
L 156.335204 39.264742 
L 156.596604 39.343341 
L 157.162971 39.160932 
L 157.685771 39.153517 
L 157.990737 39.116442 
L 158.077871 39.212837 
L 158.121438 39.171313 
L 158.731371 39.144619 
L 158.992771 39.111993 
L 159.167037 39.037842 
L 159.341304 39.073435 
L 159.602704 39.137204 
L 159.820537 39.146102 
L 159.994804 39.163898 
L 160.604737 39.071952 
L 162.173138 39.152034 
L 162.347404 39.203939 
L 163.262304 39.33296 
L 163.785104 39.16983 
L 163.959371 39.159449 
L 164.090071 39.177245 
L 164.438604 39.224701 
L 164.787138 39.328511 
L 166.050571 39.218769 
L 166.529804 39.232116 
L 166.747638 39.226184 
L 169.230938 39.33296 
L 169.535904 39.306266 
L 169.884438 39.266225 
L 171.365704 39.269191 
L 171.583537 39.316647 
L 172.498438 39.242497 
L 172.672704 39.282538 
L 172.890537 39.324062 
L 173.456904 39.423423 
L 174.502504 39.138687 
L 175.286704 39.186143 
L 175.460971 39.266225 
L 175.765938 39.208388 
L 175.853071 39.263259 
L 175.896638 39.217286 
L 176.332304 39.236565 
L 176.506571 39.252878 
L 176.985804 39.163898 
L 177.203638 39.098646 
L 178.772037 39.248429 
L 179.033438 39.254361 
L 179.164138 39.272157 
L 179.338404 39.241014 
L 179.599804 39.220252 
L 181.429604 39.282538 
L 181.647438 39.373001 
L 182.083104 39.389314 
L 182.388071 39.427872 
L 182.605904 39.423423 
L 182.780171 39.40711 
L 182.954438 39.371518 
L 183.085138 39.39228 
L 183.607938 39.322579 
L 183.956471 39.327028 
L 184.217871 39.301817 
L 184.392138 39.304783 
L 184.566404 39.249912 
L 184.697104 39.192075 
L 185.829838 39.205422 
L 186.091238 39.082333 
L 186.483338 39.00225 
L 186.919004 38.925134 
L 189.228037 38.799079 
L 189.533004 38.770902 
L 189.968671 38.707133 
L 190.142938 38.69082 
L 190.622171 38.692303 
L 190.709304 38.609255 
L 190.752871 38.64633 
L 191.188537 38.622602 
L 191.929171 38.762004 
L 192.103438 38.812426 
L 192.277704 38.781283 
L 192.931204 38.57218 
L 193.061904 38.545486 
L 193.323304 38.481716 
L 193.584704 38.526207 
L 193.933238 38.47875 
L 194.107504 38.452056 
L 196.982904 38.457988 
L 197.070037 38.391253 
L 197.113604 38.432777 
L 197.462138 38.435743 
L 197.636404 38.425362 
L 198.202771 38.30079 
L 198.377037 38.333416 
L 198.682004 38.281511 
L 198.943404 38.340831 
L 199.117671 38.355661 
L 199.509771 38.290409 
L 199.727604 38.194014 
L 203.474338 38.217742 
L 205.086304 37.947836 
L 205.434838 37.947836 
L 205.609104 37.86627 
L 205.826938 37.835127 
L 206.175471 37.809916 
L 207.395338 37.482173 
L 207.613171 37.477724 
L 207.874571 37.538527 
L 208.789471 37.803984 
L 210.575704 37.789154 
L 210.837104 37.833644 
L 211.098504 37.689793 
L 211.403471 37.640854 
L 212.797604 37.443615 
L 213.102571 37.492554 
L 213.320404 37.489588 
L 213.538238 37.443615 
L 214.061037 37.452513 
L 214.322438 37.48069 
L 214.496704 37.433234 
L 214.975938 37.424336 
L 215.193771 37.511833 
L 215.542304 37.502935 
L 215.847271 37.501452 
L 216.065104 37.468826 
L 216.936438 37.572636 
L 217.328537 37.400608 
L 217.633504 37.415438 
L 218.243438 37.452513 
L 218.461271 37.48069 
L 218.940504 37.453996 
L 219.071204 37.476241 
L 219.463304 37.583017 
L 219.594004 37.593398 
L 219.855404 37.603779 
L 220.247504 37.608228 
L 220.421771 37.686827 
L 220.639604 37.683861 
L 222.164438 37.42137 
L 222.425838 37.459928 
L 222.905071 37.482173 
L 223.253604 37.712038 
L 223.863537 37.615643 
L 224.037804 37.663099 
L 224.299204 37.660133 
L 224.909138 37.667548 
L 225.126971 37.661616 
L 225.431938 37.631956 
L 225.562638 37.633439 
L 225.954738 37.624541 
L 227.087471 37.550391 
L 227.261738 37.59933 
L 227.610271 37.418404 
L 227.784537 37.516282 
L 228.045938 37.446581 
L 228.699438 37.489588 
L 232.968971 37.534078 
L 233.143238 37.453996 
L 233.535338 37.402091 
L 234.014571 37.416921 
L 234.275971 37.385778 
L 234.493804 37.446581 
L 235.060171 37.31311 
L 235.321571 37.353151 
L 235.931504 37.213749 
L 236.105771 37.197436 
L 236.454304 37.130701 
L 236.759271 37.354634 
L 236.933537 37.365016 
L 237.717738 37.192987 
L 237.892004 37.16481 
L 237.892004 37.16481 
" style="fill:none;stroke:#ca9161;stroke-linecap:round;stroke-width:2;"/>
   </g>
   <g id="line2d_12">
    <path clip-path="url(#pad1084b276)" d="M 55.78481 100.518297 
L 65.984434 76.54762 
L 75.518864 66.642756 
L 87.048874 60.129968 
L 108.556775 49.637143 
L 159.998355 38.284993 
L 246.048438 32.887167 
" style="fill:none;stroke:#000000;stroke-linecap:round;stroke-opacity:0.6;stroke-width:2;"/>
    <defs>
     <path d="M -3 3 
L 3 3 
L 3 -3 
L -3 -3 
z
" id="m1c896f841d" style="stroke:#ffffff;stroke-linejoin:miter;stroke-opacity:0.6;stroke-width:0.75;"/>
    </defs>
    <g clip-path="url(#pad1084b276)">
     <use style="fill-opacity:0.6;stroke:#ffffff;stroke-linejoin:miter;stroke-opacity:0.6;stroke-width:0.75;" x="55.78481" xlink:href="#m1c896f841d" y="100.518297"/>
     <use style="fill-opacity:0.6;stroke:#ffffff;stroke-linejoin:miter;stroke-opacity:0.6;stroke-width:0.75;" x="65.984434" xlink:href="#m1c896f841d" y="76.54762"/>
     <use style="fill-opacity:0.6;stroke:#ffffff;stroke-linejoin:miter;stroke-opacity:0.6;stroke-width:0.75;" x="75.518864" xlink:href="#m1c896f841d" y="66.642756"/>
     <use style="fill-opacity:0.6;stroke:#ffffff;stroke-linejoin:miter;stroke-opacity:0.6;stroke-width:0.75;" x="87.048874" xlink:href="#m1c896f841d" y="60.129968"/>
     <use style="fill-opacity:0.6;stroke:#ffffff;stroke-linejoin:miter;stroke-opacity:0.6;stroke-width:0.75;" x="108.556775" xlink:href="#m1c896f841d" y="49.637143"/>
     <use style="fill-opacity:0.6;stroke:#ffffff;stroke-linejoin:miter;stroke-opacity:0.6;stroke-width:0.75;" x="159.998355" xlink:href="#m1c896f841d" y="38.284993"/>
     <use style="fill-opacity:0.6;stroke:#ffffff;stroke-linejoin:miter;stroke-opacity:0.6;stroke-width:0.75;" x="265.985748" xlink:href="#m1c896f841d" y="31.636522"/>
     <use style="fill-opacity:0.6;stroke:#ffffff;stroke-linejoin:miter;stroke-opacity:0.6;stroke-width:0.75;" x="370.642756" xlink:href="#m1c896f841d" y="22.636211"/>
     <use style="fill-opacity:0.6;stroke:#ffffff;stroke-linejoin:miter;stroke-opacity:0.6;stroke-width:0.75;" x="474.63457" xlink:href="#m1c896f841d" y="22.817122"/>
    </g>
   </g>
   <g id="patch_3">
    <path d="M 54.868438 100.36 
L 54.868438 7.2 
" style="fill:none;stroke:#262626;stroke-linecap:square;stroke-linejoin:miter;stroke-width:0.8;"/>
   </g>
   <g id="patch_4">
    <path d="M 54.868438 100.36 
L 237.848438 100.36 
" style="fill:none;stroke:#262626;stroke-linecap:square;stroke-linejoin:miter;stroke-width:0.8;"/>
   </g>
   <g id="text_10">
    <!-- $P=144$ -->
    <g style="fill:#262626;" transform="translate(109.762438 49.122)">
     <text>
      <tspan style="font-family:DejaVu Sans;font-size:10px;font-style:oblique;font-weight:oblique;" x="0" y="-0.703125">P</tspan>
      <tspan style="font-family:DejaVu Sans;font-size:10px;font-style:book;font-weight:book;" x="7.978516 18.305664 24.667969 31.030273" y="-0.703125">=144</tspan>
     </text>
    </g>
   </g>
   <g id="legend_1">
    <g id="patch_5">
     <path d="M 93.445838 97.465 
L 233.795438 97.465 
Q 234.953438 97.465 234.953438 96.307 
L 234.953438 59.892423 
Q 234.953438 58.734423 233.795438 58.734423 
L 93.445838 58.734423 
Q 92.287838 58.734423 92.287838 59.892423 
L 92.287838 96.307 
Q 92.287838 97.465 93.445838 97.465 
z
" style="fill:#ffffff;opacity:0.8;stroke:#cccccc;stroke-linejoin:miter;"/>
    </g>
    <g id="line2d_13">
     <path d="M 94.603838 64.292823 
L 106.183838 64.292823 
" style="fill:none;stroke:#d55e00;stroke-linecap:round;stroke-width:2;"/>
    </g>
    <g id="line2d_14"/>
    <g id="text_11">
     <!-- $\langle B \rangle=47\pm12$, $\langle U/A_{spine} \rangle=$$11.1\pm2.4 \#/ \mu m^2$ -->
     <g style="fill:#262626;" transform="translate(110.815838 66.319323)">
      <text>
       <tspan style="font-family:DejaVu Sans;font-size:5.79px;font-style:book;font-weight:book;" x="0 6.221619 9.603424 15.573807 19.252014 24.056549 30.026932 33.705139 40.595779 47.082748 63.999411 67.381216 73.351599 77.029807 80.708014 82.545706 87.350241 93.320624 96.998831 98.836523 102.514731 107.358786" y="-0.7828125000000004">⟨⟩=47±12⟨/⟩=11.1±2.4#/</tspan>
       <tspan style="font-family:DejaVu Sans;font-size:5.79px;font-style:oblique;font-weight:oblique;" x="2.255478 42.851257 49.030533 109.30657 112.984778" y="-0.7828125000000004">BUAμm</tspan>
       <tspan style="font-family:Arial;font-size:5.79px;font-style:regular;font-weight:regular;" x="37.383347 38.989563" y="-0.7828125000000004">, </tspan>
       <tspan style="font-family:DejaVu Sans;font-size:4.053px;font-style:oblique;font-weight:oblique;" x="52.985382 55.093788 57.662605 58.786957 61.351822" y="0.1640625">spine</tspan>
       <tspan style="font-family:DejaVu Sans;font-size:4.053px;font-style:book;font-weight:book;" x="118.885113" y="-2.9921875">2</tspan>
      </text>
     </g>
    </g>
    <g id="line2d_15">
     <path d="M 94.603838 74.251623 
L 106.183838 74.251623 
" style="fill:none;stroke:#cc78bc;stroke-linecap:round;stroke-width:2;"/>
    </g>
    <g id="line2d_16"/>
    <g id="text_12">
     <!-- $=131\pm4$, $=$$33.4\pm3.9 \#/ \mu m^2$ -->
     <g style="fill:#262626;" transform="translate(110.815838 76.278123)">
      <text>
       <tspan style="font-family:DejaVu Sans;font-size:5.79px;font-style:book;font-weight:book;" x="1.126328 7.09671 10.774918 14.453125 19.25766 25.228043 33.24501 39.215393 42.8936 46.571808 48.4095 53.214035 59.184418 62.862625 64.700317 68.378525 73.22258" y="-0.7828125000000004">=131±4=33.4±3.9#/</tspan>
       <tspan style="font-family:Arial;font-size:5.79px;font-style:regular;font-weight:regular;" x="28.90625 30.512466" y="-0.7828125000000004">, </tspan>
       <tspan style="font-family:DejaVu Sans;font-size:5.79px;font-style:oblique;font-weight:oblique;" x="75.170364 78.848572" y="-0.7828125000000004">μm</tspan>
       <tspan style="font-family:DejaVu Sans;font-size:4.053px;font-style:book;font-weight:book;" x="84.748907" y="-2.9921875">2</tspan>
      </text>
     </g>
    </g>
    <g id="line2d_17">
     <path d="M 94.603838 83.631423 
L 106.183838 83.631423 
" style="fill:none;stroke:#ca9161;stroke-linecap:round;stroke-width:2;"/>
    </g>
    <g id="line2d_18"/>
    <g id="text_13">
     <!-- $=138\pm2$, $=$$66.8\pm5.5 \#/ \mu m^2$ -->
     <g style="fill:#262626;" transform="translate(110.815838 85.657923)">
      <text>
       <tspan style="font-family:DejaVu Sans;font-size:5.79px;font-style:book;font-weight:book;" x="1.126328 7.09671 10.774918 14.453125 19.25766 25.228043 33.24501 39.215393 42.8936 46.571808 48.2845 53.089035 59.059418 62.737625 64.575317 68.253525 73.09758" y="-0.7828125000000004">=138±2=66.8±5.5#/</tspan>
       <tspan style="font-family:Arial;font-size:5.79px;font-style:regular;font-weight:regular;" x="28.90625 30.512466" y="-0.7828125000000004">, </tspan>
       <tspan style="font-family:DejaVu Sans;font-size:5.79px;font-style:oblique;font-weight:oblique;" x="75.045364 78.723572" y="-0.7828125000000004">μm</tspan>
       <tspan style="font-family:DejaVu Sans;font-size:4.053px;font-style:book;font-weight:book;" x="84.623907" y="-2.9921875">2</tspan>
      </text>
     </g>
    </g>
    <g id="line2d_19">
     <path d="M 94.603838 91.903886 
L 106.183838 91.903886 
" style="fill:none;stroke:#000000;stroke-linecap:round;stroke-opacity:0.6;stroke-width:2;"/>
    </g>
    <g id="line2d_20">
     <g>
      <use style="fill-opacity:0.6;stroke:#ffffff;stroke-linejoin:miter;stroke-opacity:0.6;stroke-width:0.75;" x="100.393838" xlink:href="#m1c896f841d" y="91.903886"/>
     </g>
    </g>
    <g id="text_14">
     <text style="fill:#262626;font-family:Arial;font-size:5.79px;font-stretch:normal;font-style:normal;font-weight:normal;text-anchor:start;" transform="rotate(-0, 110.815838, 93.930386)" x="110.815838" y="93.930386">Tatavarty 2013</text>
    </g>
   </g>
  </g>
 </g>
 <defs>
  <clipPath id="pad1084b276">
   <rect height="93.16" width="182.98" x="54.868438" y="7.2"/>
  </clipPath>
 </defs>
</svg>
