<?xml version="1.0" encoding="utf-8" standalone="no"?>
<!DOCTYPE svg PUBLIC "-//W3C//DTD SVG 1.1//EN"
  "http://www.w3.org/Graphics/SVG/1.1/DTD/svg11.dtd">
<!-- Created with matplotlib (https://matplotlib.org/) -->
<svg height="137.068594pt" version="1.1" viewBox="0 0 206.461063 137.068594" width="206.461063pt" xmlns="http://www.w3.org/2000/svg" xmlns:xlink="http://www.w3.org/1999/xlink">
 <metadata>
  <rdf:RDF xmlns:cc="http://creativecommons.org/ns#" xmlns:dc="http://purl.org/dc/elements/1.1/" xmlns:rdf="http://www.w3.org/1999/02/22-rdf-syntax-ns#">
   <cc:Work>
    <dc:type rdf:resource="http://purl.org/dc/dcmitype/StillImage"/>
    <dc:date>2021-02-26T17:51:45.812573</dc:date>
    <dc:format>image/svg+xml</dc:format>
    <dc:creator>
     <cc:Agent>
      <dc:title>Matplotlib v3.3.2, https://matplotlib.org/</dc:title>
     </cc:Agent>
    </dc:creator>
   </cc:Work>
  </rdf:RDF>
 </metadata>
 <defs>
  <style type="text/css">*{stroke-linecap:butt;stroke-linejoin:round;}</style>
 </defs>
 <g id="figure_1">
  <g id="patch_1">
   <path d="M 0 137.068594 
L 206.461063 137.068594 
L 206.461063 0 
L 0 0 
z
" style="fill:#ffffff;"/>
  </g>
  <g id="axes_1">
   <g id="patch_2">
    <path d="M 54.988125 100.338906 
L 193.700125 100.338906 
L 193.700125 10.778906 
L 54.988125 10.778906 
z
" style="fill:#ffffff;"/>
   </g>
   <g id="matplotlib.axis_1">
    <g id="xtick_1">
     <g id="line2d_1">
      <defs>
       <path d="M 0 0 
L 0 3.5 
" id="md347d341f6" style="stroke:#262626;stroke-width:0.8;"/>
      </defs>
      <g>
       <use style="fill:#262626;stroke:#262626;stroke-width:0.8;" x="54.988125" xlink:href="#md347d341f6" y="100.338906"/>
      </g>
     </g>
     <g id="text_1">
      <text style="fill:#262626;font-family:Arial;font-size:10px;font-stretch:normal;font-style:normal;font-weight:normal;text-anchor:middle;" transform="rotate(-0, 54.988125, 114.496719)" x="54.988125" y="114.496719">0</text>
     </g>
    </g>
    <g id="xtick_2">
     <g id="line2d_2">
      <g>
       <use style="fill:#262626;stroke:#262626;stroke-width:0.8;" x="101.225458" xlink:href="#md347d341f6" y="100.338906"/>
      </g>
     </g>
     <g id="text_2">
      <text style="fill:#262626;font-family:Arial;font-size:10px;font-stretch:normal;font-style:normal;font-weight:normal;text-anchor:middle;" transform="rotate(-0, 101.225458, 114.496719)" x="101.225458" y="114.496719">20</text>
     </g>
    </g>
    <g id="xtick_3">
     <g id="line2d_3">
      <g>
       <use style="fill:#262626;stroke:#262626;stroke-width:0.8;" x="147.462792" xlink:href="#md347d341f6" y="100.338906"/>
      </g>
     </g>
     <g id="text_3">
      <text style="fill:#262626;font-family:Arial;font-size:10px;font-stretch:normal;font-style:normal;font-weight:normal;text-anchor:middle;" transform="rotate(-0, 147.462792, 114.496719)" x="147.462792" y="114.496719">40</text>
     </g>
    </g>
    <g id="xtick_4">
     <g id="line2d_4">
      <g>
       <use style="fill:#262626;stroke:#262626;stroke-width:0.8;" x="193.700125" xlink:href="#md347d341f6" y="100.338906"/>
      </g>
     </g>
     <g id="text_4">
      <text style="fill:#262626;font-family:Arial;font-size:10px;font-stretch:normal;font-style:normal;font-weight:normal;text-anchor:middle;" transform="rotate(-0, 193.700125, 114.496719)" x="193.700125" y="114.496719">60</text>
     </g>
    </g>
    <g id="text_5">
     <text style="fill:#262626;font-family:Arial;font-size:10px;font-stretch:normal;font-style:normal;font-weight:normal;text-anchor:middle;" transform="rotate(-0, 124.344125, 127.763906)" x="124.344125" y="127.763906">Time (min)</text>
    </g>
   </g>
   <g id="matplotlib.axis_2">
    <g id="ytick_1">
     <g id="line2d_5">
      <defs>
       <path d="M 0 0 
L -3.5 0 
" id="m113cf31358" style="stroke:#262626;stroke-width:0.8;"/>
      </defs>
      <g>
       <use style="fill:#262626;stroke:#262626;stroke-width:0.8;" x="54.988125" xlink:href="#m113cf31358" y="77.119647"/>
      </g>
     </g>
     <g id="text_6">
      <text style="fill:#262626;font-family:Arial;font-size:10px;font-stretch:normal;font-style:normal;font-weight:normal;text-anchor:end;" transform="rotate(-0, 47.988125, 80.698553)" x="47.988125" y="80.698553">0</text>
     </g>
    </g>
    <g id="ytick_2">
     <g id="line2d_6">
      <g>
       <use style="fill:#262626;stroke:#262626;stroke-width:0.8;" x="54.988125" xlink:href="#m113cf31358" y="43.949277"/>
      </g>
     </g>
     <g id="text_7">
      <text style="fill:#262626;font-family:Arial;font-size:10px;font-stretch:normal;font-style:normal;font-weight:normal;text-anchor:end;" transform="rotate(-0, 47.988125, 47.528183)" x="47.988125" y="47.528183">50</text>
     </g>
    </g>
    <g id="ytick_3">
     <g id="line2d_7">
      <g>
       <use style="fill:#262626;stroke:#262626;stroke-width:0.8;" x="54.988125" xlink:href="#m113cf31358" y="10.778906"/>
      </g>
     </g>
     <g id="text_8">
      <text style="fill:#262626;font-family:Arial;font-size:10px;font-stretch:normal;font-style:normal;font-weight:normal;text-anchor:end;" transform="rotate(-0, 47.988125, 14.357812)" x="47.988125" y="14.357812">100</text>
     </g>
    </g>
    <g id="text_9">
     <text style="fill:#262626;font-family:Arial;font-size:10px;font-stretch:normal;font-style:normal;font-weight:normal;" transform="translate(14.357813 92.431562)rotate(-90)">Bound AMPARs </text>
     <!--  $B$ (#) -->
     <g style="fill:#262626;" transform="translate(25.105313 67.908906)rotate(-90)">
      <text>
       <tspan style="font-family:Arial;font-size:10px;font-style:regular;font-weight:regular;" x="0 9.638672 12.416992 15.74707 21.308594" y="-0.703125">  (#)</tspan>
       <tspan style="font-family:DejaVu Sans;font-size:10px;font-style:oblique;font-weight:oblique;" x="2.77832" y="-0.703125">B</tspan>
      </text>
     </g>
    </g>
   </g>
   <g id="line2d_8">
    <path clip-path="url(#pe73f03babb)" d="M 54.988125 77.119647 
L 55.180781 77.119647 
L 55.373436 76.45624 
L 55.566092 72.475795 
L 55.758747 71.14898 
L 55.951403 73.139203 
L 56.144058 73.80261 
L 56.336714 73.139203 
L 56.529369 71.812388 
L 56.722025 71.812388 
L 57.107336 67.831943 
L 57.492647 67.831943 
L 57.877958 65.178314 
L 58.070614 65.178314 
L 58.263269 70.485573 
L 58.455925 66.505128 
L 58.648581 66.505128 
L 58.841236 68.495351 
L 59.033892 68.495351 
L 59.226547 69.822166 
L 59.419203 65.178314 
L 59.611858 67.831943 
L 59.804514 63.851499 
L 59.997169 67.168536 
L 60.189825 66.505128 
L 60.382481 64.514906 
L 60.575136 60.534462 
L 60.767792 61.861277 
L 60.960447 66.505128 
L 61.345758 64.514906 
L 61.538414 65.178314 
L 61.731069 64.514906 
L 61.923725 62.524684 
L 62.116381 62.524684 
L 62.309036 67.831943 
L 62.501692 69.822166 
L 63.079658 65.841721 
L 63.272314 66.505128 
L 63.657625 69.822166 
L 63.850281 71.812388 
L 64.235592 66.505128 
L 64.428247 65.841721 
L 64.620903 65.841721 
L 64.813558 61.197869 
L 65.006214 62.524684 
L 65.198869 60.534462 
L 65.391525 61.197869 
L 65.584181 61.197869 
L 66.162147 63.188091 
L 66.354803 66.505128 
L 66.740114 65.178314 
L 66.932769 67.831943 
L 67.125425 65.841721 
L 67.318081 62.524684 
L 68.088703 57.880832 
L 68.281358 61.861277 
L 68.666669 57.217425 
L 68.859325 57.217425 
L 69.051981 55.227203 
L 69.244636 57.217425 
L 69.437292 57.880832 
L 69.822603 54.563795 
L 70.207914 56.554017 
L 70.400569 57.217425 
L 70.785881 55.227203 
L 70.978536 54.563795 
L 71.556503 59.207647 
L 71.749158 58.54424 
L 71.941814 56.554017 
L 72.134469 55.89061 
L 72.327125 53.23698 
L 72.519781 55.89061 
L 72.712436 55.89061 
L 73.097747 57.217425 
L 73.290403 61.197869 
L 73.675714 57.880832 
L 73.868369 58.54424 
L 74.061025 57.880832 
L 74.253681 59.207647 
L 74.446336 57.880832 
L 74.638992 58.54424 
L 74.831647 56.554017 
L 75.024303 55.89061 
L 75.216958 58.54424 
L 75.602269 57.217425 
L 76.180236 57.217425 
L 76.372892 55.227203 
L 76.565547 57.217425 
L 76.758203 57.217425 
L 76.950858 55.227203 
L 77.143514 51.910166 
L 77.721481 55.227203 
L 78.106792 53.900388 
L 78.299447 51.910166 
L 78.684758 51.910166 
L 78.877414 54.563795 
L 79.070069 55.227203 
L 79.455381 53.900388 
L 79.648036 57.217425 
L 79.840692 58.54424 
L 80.033347 55.227203 
L 80.226003 53.900388 
L 80.418658 53.900388 
L 80.611314 55.89061 
L 81.189281 52.573573 
L 81.767247 59.207647 
L 82.152558 55.89061 
L 82.345214 53.900388 
L 82.537869 55.227203 
L 82.730525 53.23698 
L 82.923181 53.23698 
L 83.693803 57.880832 
L 83.886458 57.217425 
L 84.079114 55.89061 
L 84.271769 57.880832 
L 84.464425 57.217425 
L 84.657081 58.54424 
L 84.849736 57.880832 
L 85.042392 59.207647 
L 85.235047 56.554017 
L 85.427703 55.89061 
L 85.620358 57.217425 
L 85.813014 59.871054 
L 86.005669 60.534462 
L 86.198325 55.227203 
L 86.390981 57.217425 
L 86.968947 53.23698 
L 87.161603 56.554017 
L 87.354258 56.554017 
L 87.546914 55.89061 
L 87.932225 59.207647 
L 88.124881 56.554017 
L 88.317536 57.217425 
L 88.510192 56.554017 
L 88.702847 57.217425 
L 88.895503 63.851499 
L 89.280814 60.534462 
L 89.473469 61.197869 
L 89.666125 55.227203 
L 89.858781 55.227203 
L 90.051436 54.563795 
L 90.436747 56.554017 
L 90.629403 61.861277 
L 90.822058 62.524684 
L 91.207369 57.880832 
L 91.785336 55.89061 
L 91.977992 53.900388 
L 92.363303 57.880832 
L 92.555958 58.54424 
L 92.748614 58.54424 
L 92.941269 59.207647 
L 93.133925 59.207647 
L 93.326581 56.554017 
L 93.519236 56.554017 
L 93.711892 55.227203 
L 93.904547 57.217425 
L 94.097203 53.900388 
L 94.289858 55.89061 
L 94.482514 55.89061 
L 94.675169 56.554017 
L 94.867825 59.871054 
L 95.060481 60.534462 
L 95.253136 59.871054 
L 95.445792 57.217425 
L 95.831103 57.217425 
L 96.023758 53.900388 
L 96.216414 55.227203 
L 96.409069 57.880832 
L 96.987036 51.246758 
L 97.372347 53.23698 
L 97.565003 56.554017 
L 97.950314 53.900388 
L 98.528281 57.880832 
L 98.720936 57.880832 
L 98.913592 59.871054 
L 99.106247 57.217425 
L 99.298903 57.217425 
L 99.491558 59.207647 
L 99.684214 62.524684 
L 100.069525 61.197869 
L 100.647492 55.89061 
L 100.840147 57.880832 
L 101.032803 56.554017 
L 101.418114 57.880832 
L 101.610769 59.871054 
L 101.803425 57.880832 
L 101.996081 57.217425 
L 102.188736 58.54424 
L 102.381392 61.197869 
L 102.574047 55.89061 
L 102.766703 56.554017 
L 103.152014 61.861277 
L 103.537325 59.207647 
L 103.729981 61.197869 
L 103.922636 59.871054 
L 104.115292 63.188091 
L 104.307947 62.524684 
L 104.500603 66.505128 
L 104.693258 61.197869 
L 104.885914 59.207647 
L 105.078569 58.54424 
L 105.271225 61.197869 
L 105.463881 57.880832 
L 105.656536 59.207647 
L 105.849192 56.554017 
L 106.234503 58.54424 
L 106.427158 59.207647 
L 106.619814 56.554017 
L 106.812469 57.217425 
L 107.197781 61.197869 
L 107.583092 64.514906 
L 107.775747 59.871054 
L 107.968403 61.861277 
L 108.161058 61.197869 
L 108.353714 59.871054 
L 108.546369 59.871054 
L 108.739025 60.534462 
L 108.931681 59.871054 
L 109.124336 56.554017 
L 109.509647 62.524684 
L 109.702303 65.841721 
L 109.894958 67.168536 
L 110.087614 63.851499 
L 110.280269 63.851499 
L 110.472925 67.168536 
L 110.665581 68.495351 
L 110.858236 65.841721 
L 111.050892 66.505128 
L 111.243547 64.514906 
L 111.436203 65.178314 
L 111.821514 67.168536 
L 112.014169 63.851499 
L 112.206825 63.851499 
L 112.399481 65.841721 
L 112.592136 63.188091 
L 112.784792 63.188091 
L 112.977447 67.168536 
L 113.170103 67.831943 
L 113.362758 66.505128 
L 113.555414 63.851499 
L 113.748069 67.168536 
L 113.940725 63.851499 
L 114.326036 68.495351 
L 114.518692 63.851499 
L 114.711347 66.505128 
L 114.904003 67.168536 
L 115.096658 65.178314 
L 115.289314 65.841721 
L 115.481969 65.841721 
L 115.867281 69.822166 
L 116.059936 69.822166 
L 116.252592 67.168536 
L 116.445247 68.495351 
L 116.637903 66.505128 
L 116.830558 67.168536 
L 117.023214 66.505128 
L 117.215869 67.168536 
L 117.408525 65.841721 
L 117.601181 69.822166 
L 117.793836 67.168536 
L 117.986492 69.158758 
L 118.179147 65.178314 
L 118.371803 65.178314 
L 118.564458 61.861277 
L 118.757114 64.514906 
L 119.142425 60.534462 
L 119.335081 62.524684 
L 119.720392 63.851499 
L 119.913047 60.534462 
L 120.105703 61.861277 
L 120.298358 61.197869 
L 120.491014 64.514906 
L 120.683669 61.197869 
L 120.876325 64.514906 
L 121.068981 65.178314 
L 121.261636 63.188091 
L 121.454292 62.524684 
L 121.646947 62.524684 
L 121.839603 65.178314 
L 122.032258 62.524684 
L 122.224914 65.178314 
L 122.417569 64.514906 
L 122.610225 65.178314 
L 122.802881 59.871054 
L 123.188192 57.217425 
L 123.573503 58.54424 
L 123.766158 59.871054 
L 124.151469 55.227203 
L 124.344125 55.89061 
L 124.536781 55.227203 
L 124.729436 59.207647 
L 124.922092 60.534462 
L 125.114747 57.880832 
L 125.307403 57.217425 
L 125.500058 55.227203 
L 125.885369 55.227203 
L 126.078025 57.217425 
L 126.270681 57.880832 
L 126.463336 57.217425 
L 126.655992 57.880832 
L 126.848647 59.871054 
L 127.041303 57.217425 
L 127.233958 59.871054 
L 127.426614 56.554017 
L 127.619269 58.54424 
L 127.811925 57.217425 
L 128.004581 57.217425 
L 128.197236 54.563795 
L 128.389892 53.900388 
L 128.582547 55.227203 
L 128.775203 53.23698 
L 128.967858 53.900388 
L 129.160514 57.217425 
L 129.353169 56.554017 
L 129.545825 53.900388 
L 129.738481 55.227203 
L 130.123792 59.871054 
L 130.316447 57.217425 
L 130.701758 61.861277 
L 131.087069 56.554017 
L 131.279725 53.900388 
L 131.472381 55.89061 
L 131.665036 55.227203 
L 131.857692 57.217425 
L 132.050347 55.89061 
L 132.243003 57.217425 
L 132.820969 53.900388 
L 133.013625 56.554017 
L 133.398936 51.910166 
L 133.591592 54.563795 
L 133.784247 53.900388 
L 133.976903 59.871054 
L 134.169558 57.217425 
L 134.362214 59.871054 
L 134.554869 57.217425 
L 134.747525 59.871054 
L 134.940181 60.534462 
L 135.132836 60.534462 
L 135.518147 62.524684 
L 135.710803 60.534462 
L 135.903458 57.217425 
L 136.096114 57.217425 
L 136.288769 60.534462 
L 136.481425 55.89061 
L 136.866736 58.54424 
L 137.059392 56.554017 
L 137.252047 56.554017 
L 137.830014 59.871054 
L 138.215325 57.880832 
L 138.407981 58.54424 
L 138.600636 57.880832 
L 138.793292 59.871054 
L 139.178603 57.880832 
L 139.371258 58.54424 
L 139.563914 55.89061 
L 139.949225 62.524684 
L 140.141881 63.188091 
L 140.334536 61.197869 
L 140.527192 61.197869 
L 140.719847 59.871054 
L 140.912503 62.524684 
L 141.105158 59.207647 
L 141.490469 59.207647 
L 141.683125 60.534462 
L 142.068436 57.217425 
L 142.261092 58.54424 
L 142.453747 57.217425 
L 142.646403 59.207647 
L 142.839058 56.554017 
L 143.031714 57.217425 
L 143.609681 61.861277 
L 143.994992 55.89061 
L 144.380303 57.880832 
L 144.572958 61.197869 
L 145.150925 56.554017 
L 145.343581 60.534462 
L 145.728892 59.207647 
L 145.921547 60.534462 
L 146.114203 58.54424 
L 146.306858 59.207647 
L 146.692169 57.880832 
L 147.077481 61.861277 
L 147.270136 59.871054 
L 147.462792 59.871054 
L 147.655447 58.54424 
L 147.848103 59.207647 
L 148.040758 56.554017 
L 148.233414 57.217425 
L 148.426069 58.54424 
L 148.618725 57.880832 
L 148.811381 58.54424 
L 149.004036 57.880832 
L 149.196692 59.871054 
L 149.389347 59.207647 
L 149.582003 59.871054 
L 149.774658 59.871054 
L 150.352625 56.554017 
L 150.545281 57.217425 
L 150.737936 59.871054 
L 151.315903 53.23698 
L 151.508558 53.900388 
L 151.701214 52.573573 
L 151.893869 53.23698 
L 152.086525 53.23698 
L 152.279181 52.573573 
L 152.471836 53.23698 
L 152.664492 53.23698 
L 153.049803 57.217425 
L 153.242458 56.554017 
L 153.435114 56.554017 
L 153.627769 57.217425 
L 153.820425 51.910166 
L 154.013081 57.217425 
L 154.398392 61.197869 
L 154.591047 61.197869 
L 154.976358 55.227203 
L 155.169014 56.554017 
L 155.361669 55.227203 
L 155.554325 59.207647 
L 155.939636 61.197869 
L 156.324947 57.217425 
L 156.517603 60.534462 
L 156.710258 59.871054 
L 156.902914 61.861277 
L 157.095569 60.534462 
L 157.288225 61.197869 
L 157.480881 58.54424 
L 158.058847 65.178314 
L 158.251503 63.188091 
L 158.444158 63.188091 
L 158.636814 60.534462 
L 158.829469 61.861277 
L 159.022125 59.871054 
L 159.214781 60.534462 
L 159.407436 57.880832 
L 159.600092 57.217425 
L 159.792747 58.54424 
L 159.985403 56.554017 
L 160.178058 56.554017 
L 160.563369 61.197869 
L 160.756025 59.871054 
L 160.948681 57.217425 
L 161.141336 56.554017 
L 161.526647 51.910166 
L 161.911958 54.563795 
L 162.104614 54.563795 
L 162.297269 56.554017 
L 162.489925 55.89061 
L 162.682581 57.217425 
L 162.875236 60.534462 
L 163.067892 59.871054 
L 163.260547 61.197869 
L 163.453203 59.207647 
L 163.645858 61.861277 
L 163.838514 59.871054 
L 164.031169 61.197869 
L 164.223825 63.851499 
L 164.609136 55.89061 
L 164.801792 58.54424 
L 164.994447 58.54424 
L 165.187103 59.207647 
L 165.379758 61.197869 
L 165.572414 61.861277 
L 165.765069 59.871054 
L 166.150381 67.831943 
L 166.343036 65.841721 
L 166.728347 59.207647 
L 166.921003 59.871054 
L 167.306314 63.851499 
L 167.498969 62.524684 
L 167.691625 59.207647 
L 167.884281 62.524684 
L 168.076936 63.851499 
L 168.269592 66.505128 
L 168.847558 64.514906 
L 169.040214 65.178314 
L 169.232869 62.524684 
L 169.425525 65.178314 
L 169.618181 63.851499 
L 169.810836 61.197869 
L 170.003492 61.861277 
L 170.196147 60.534462 
L 170.581458 61.861277 
L 170.774114 64.514906 
L 170.966769 63.851499 
L 171.352081 59.871054 
L 171.544736 60.534462 
L 171.737392 61.861277 
L 171.930047 59.871054 
L 172.122703 59.207647 
L 172.315358 60.534462 
L 172.508014 59.871054 
L 172.893325 63.188091 
L 173.085981 61.197869 
L 173.278636 61.197869 
L 173.471292 60.534462 
L 173.663947 61.197869 
L 174.049258 59.871054 
L 174.241914 61.197869 
L 174.627225 61.197869 
L 174.819881 62.524684 
L 175.012536 61.861277 
L 175.205192 58.54424 
L 175.397847 60.534462 
L 175.590503 59.207647 
L 175.783158 59.207647 
L 175.975814 60.534462 
L 176.168469 59.871054 
L 176.361125 61.197869 
L 176.553781 60.534462 
L 176.746436 60.534462 
L 176.939092 59.871054 
L 177.131747 57.217425 
L 177.324403 57.217425 
L 177.517058 55.89061 
L 177.902369 58.54424 
L 178.095025 61.197869 
L 178.287681 60.534462 
L 178.480336 59.207647 
L 178.672992 61.861277 
L 178.865647 60.534462 
L 179.058303 60.534462 
L 179.250958 61.197869 
L 179.443614 59.871054 
L 179.636269 61.861277 
L 180.021581 59.207647 
L 180.214236 63.851499 
L 180.599547 60.534462 
L 180.792203 56.554017 
L 181.177514 58.54424 
L 181.370169 57.880832 
L 181.755481 61.861277 
L 181.948136 61.197869 
L 182.140792 61.861277 
L 182.333447 59.871054 
L 182.526103 61.861277 
L 182.718758 61.861277 
L 182.911414 63.188091 
L 183.104069 63.188091 
L 183.296725 66.505128 
L 183.682036 62.524684 
L 183.874692 61.861277 
L 184.067347 62.524684 
L 184.260003 62.524684 
L 184.452658 60.534462 
L 184.645314 56.554017 
L 184.837969 57.880832 
L 185.030625 57.217425 
L 185.223281 58.54424 
L 185.415936 58.54424 
L 185.608592 59.871054 
L 185.801247 58.54424 
L 185.993903 58.54424 
L 186.379214 61.861277 
L 186.571869 58.54424 
L 186.764525 57.217425 
L 186.957181 57.217425 
L 187.342492 59.871054 
L 187.535147 59.207647 
L 187.727803 61.197869 
L 187.920458 57.880832 
L 188.113114 61.197869 
L 188.305769 61.197869 
L 188.498425 63.188091 
L 188.691081 61.861277 
L 188.883736 61.861277 
L 189.076392 59.871054 
L 189.461703 65.178314 
L 189.654358 60.534462 
L 189.847014 59.207647 
L 190.039669 60.534462 
L 190.232325 58.54424 
L 190.424981 58.54424 
L 190.617636 57.880832 
L 191.002947 60.534462 
L 191.195603 59.871054 
L 191.388258 55.227203 
L 191.580914 55.227203 
L 191.773569 56.554017 
L 191.966225 56.554017 
L 192.158881 57.217425 
L 192.351536 57.217425 
L 192.544192 55.89061 
L 192.736847 56.554017 
L 193.122158 52.573573 
L 193.314814 51.910166 
L 193.700125 55.89061 
L 193.892781 57.880832 
L 193.892781 57.880832 
" style="fill:none;stroke:#0173b2;stroke-linecap:round;stroke-width:1.5;"/>
   </g>
   <g id="line2d_9">
    <path clip-path="url(#pe73f03babb)" d="M 54.988125 77.119647 
L 55.180781 75.129425 
L 55.758747 65.841721 
L 55.951403 65.178314 
L 56.336714 58.54424 
L 56.529369 58.54424 
L 56.722025 60.534462 
L 56.914681 59.871054 
L 57.107336 57.880832 
L 57.299992 59.871054 
L 57.685303 59.871054 
L 57.877958 59.207647 
L 58.070614 57.880832 
L 58.263269 59.871054 
L 58.841236 54.563795 
L 59.033892 54.563795 
L 59.226547 53.900388 
L 59.419203 54.563795 
L 59.611858 51.910166 
L 59.804514 53.23698 
L 60.189825 48.593128 
L 60.382481 49.919943 
L 60.575136 47.266314 
L 60.767792 47.266314 
L 60.960447 45.276091 
L 61.153103 47.266314 
L 61.345758 51.910166 
L 61.538414 49.256536 
L 61.731069 50.583351 
L 61.923725 49.256536 
L 62.116381 49.256536 
L 62.309036 51.246758 
L 62.694347 49.256536 
L 62.887003 51.246758 
L 63.272314 52.573573 
L 63.464969 50.583351 
L 63.657625 50.583351 
L 63.850281 47.929721 
L 64.042936 47.266314 
L 64.235592 50.583351 
L 64.428247 48.593128 
L 64.813558 53.23698 
L 65.198869 47.929721 
L 65.391525 49.256536 
L 65.584181 48.593128 
L 65.776836 50.583351 
L 65.969492 49.919943 
L 66.162147 51.910166 
L 66.354803 49.919943 
L 66.547458 51.910166 
L 66.740114 51.910166 
L 66.932769 49.256536 
L 67.125425 48.593128 
L 67.318081 48.593128 
L 67.510736 49.256536 
L 67.703392 48.593128 
L 67.896047 49.919943 
L 68.088703 52.573573 
L 68.281358 51.910166 
L 68.666669 47.929721 
L 68.859325 49.919943 
L 69.051981 49.256536 
L 69.244636 49.256536 
L 69.629947 53.900388 
L 69.822603 53.900388 
L 70.207914 49.256536 
L 70.593225 50.583351 
L 70.785881 49.256536 
L 70.978536 51.910166 
L 71.171192 50.583351 
L 71.363847 50.583351 
L 71.556503 51.246758 
L 71.749158 51.246758 
L 71.941814 52.573573 
L 72.519781 47.929721 
L 72.712436 48.593128 
L 72.905092 51.246758 
L 73.097747 51.246758 
L 73.483058 47.266314 
L 73.675714 49.256536 
L 73.868369 53.23698 
L 74.061025 51.246758 
L 74.253681 52.573573 
L 74.638992 48.593128 
L 74.831647 49.919943 
L 75.024303 49.919943 
L 75.409614 46.602906 
L 75.602269 48.593128 
L 75.987581 48.593128 
L 76.180236 51.910166 
L 76.372892 51.246758 
L 76.565547 51.910166 
L 76.758203 50.583351 
L 76.950858 51.246758 
L 77.143514 49.256536 
L 77.336169 51.246758 
L 77.528825 51.910166 
L 77.721481 49.919943 
L 77.914136 49.919943 
L 78.106792 52.573573 
L 78.299447 52.573573 
L 78.492103 53.900388 
L 78.684758 53.23698 
L 79.070069 48.593128 
L 79.262725 47.266314 
L 79.455381 50.583351 
L 79.840692 48.593128 
L 80.033347 47.929721 
L 80.226003 48.593128 
L 80.611314 45.939499 
L 80.803969 47.266314 
L 80.996625 45.939499 
L 81.189281 46.602906 
L 81.381936 47.929721 
L 81.574592 46.602906 
L 81.767247 47.929721 
L 81.959903 47.266314 
L 82.152558 47.266314 
L 82.345214 48.593128 
L 82.537869 48.593128 
L 82.730525 47.929721 
L 82.923181 48.593128 
L 83.115836 51.246758 
L 83.308492 50.583351 
L 83.693803 50.583351 
L 83.886458 51.246758 
L 84.079114 49.919943 
L 84.271769 49.919943 
L 84.464425 47.929721 
L 84.657081 47.266314 
L 84.849736 49.256536 
L 85.042392 49.256536 
L 85.427703 46.602906 
L 85.620358 47.266314 
L 85.813014 45.939499 
L 86.005669 46.602906 
L 86.198325 47.929721 
L 86.390981 47.266314 
L 86.583636 47.929721 
L 86.776292 47.929721 
L 86.968947 47.266314 
L 87.161603 47.266314 
L 87.354258 49.256536 
L 87.546914 48.593128 
L 87.739569 46.602906 
L 87.932225 48.593128 
L 88.317536 48.593128 
L 88.510192 46.602906 
L 88.702847 47.929721 
L 88.895503 47.929721 
L 89.280814 50.583351 
L 89.473469 48.593128 
L 89.666125 48.593128 
L 89.858781 47.929721 
L 90.051436 51.910166 
L 90.244092 49.256536 
L 90.436747 49.919943 
L 90.629403 49.256536 
L 90.822058 51.910166 
L 91.014714 48.593128 
L 91.207369 50.583351 
L 91.400025 50.583351 
L 91.592681 51.246758 
L 91.785336 49.256536 
L 92.170647 50.583351 
L 92.363303 47.266314 
L 92.555958 49.256536 
L 92.748614 46.602906 
L 92.941269 45.939499 
L 93.133925 47.266314 
L 93.326581 45.939499 
L 93.519236 51.246758 
L 93.711892 47.929721 
L 93.904547 49.256536 
L 94.289858 49.256536 
L 94.675169 45.939499 
L 94.867825 46.602906 
L 95.060481 49.919943 
L 95.253136 50.583351 
L 95.445792 52.573573 
L 95.638447 51.246758 
L 95.831103 48.593128 
L 96.216414 48.593128 
L 96.409069 46.602906 
L 96.794381 47.929721 
L 96.987036 45.939499 
L 97.179692 45.939499 
L 97.372347 47.929721 
L 97.565003 48.593128 
L 97.757658 45.939499 
L 97.950314 46.602906 
L 98.142969 49.919943 
L 98.335625 46.602906 
L 98.528281 47.266314 
L 98.720936 46.602906 
L 98.913592 48.593128 
L 99.106247 46.602906 
L 99.298903 45.939499 
L 99.491558 46.602906 
L 99.684214 45.939499 
L 99.876869 45.939499 
L 100.069525 49.256536 
L 100.262181 49.919943 
L 100.454836 47.266314 
L 100.840147 50.583351 
L 101.032803 48.593128 
L 101.225458 50.583351 
L 101.418114 49.256536 
L 101.610769 49.256536 
L 101.803425 53.900388 
L 101.996081 55.227203 
L 102.188736 50.583351 
L 102.381392 49.919943 
L 102.574047 50.583351 
L 102.959358 49.256536 
L 103.152014 49.256536 
L 103.537325 52.573573 
L 103.729981 57.217425 
L 104.307947 49.256536 
L 104.693258 49.256536 
L 105.078569 47.266314 
L 105.271225 50.583351 
L 105.463881 51.246758 
L 105.656536 53.23698 
L 106.041847 47.929721 
L 106.234503 51.246758 
L 106.427158 51.910166 
L 106.619814 50.583351 
L 106.812469 52.573573 
L 107.005125 51.246758 
L 107.197781 51.246758 
L 107.390436 51.910166 
L 107.583092 51.246758 
L 107.775747 49.256536 
L 107.968403 49.919943 
L 108.161058 51.910166 
L 108.353714 52.573573 
L 108.546369 51.910166 
L 108.739025 52.573573 
L 108.931681 51.910166 
L 109.124336 52.573573 
L 109.316992 47.929721 
L 109.702303 52.573573 
L 109.894958 53.23698 
L 110.087614 50.583351 
L 110.280269 51.246758 
L 110.472925 49.919943 
L 110.665581 47.266314 
L 110.858236 49.919943 
L 111.050892 50.583351 
L 111.243547 51.910166 
L 111.821514 48.593128 
L 112.014169 49.256536 
L 112.399481 47.929721 
L 112.592136 47.929721 
L 113.170103 54.563795 
L 113.555414 51.246758 
L 114.326036 48.593128 
L 114.518692 47.266314 
L 114.711347 50.583351 
L 114.904003 50.583351 
L 115.096658 47.266314 
L 115.481969 49.256536 
L 115.674625 49.256536 
L 116.059936 50.583351 
L 116.252592 48.593128 
L 116.445247 47.929721 
L 116.637903 45.939499 
L 116.830558 49.256536 
L 117.023214 48.593128 
L 117.215869 49.256536 
L 117.408525 53.23698 
L 117.601181 53.900388 
L 117.793836 50.583351 
L 117.986492 49.919943 
L 118.179147 51.246758 
L 118.371803 51.246758 
L 118.564458 49.256536 
L 118.757114 49.256536 
L 119.142425 47.266314 
L 119.527736 49.919943 
L 119.720392 48.593128 
L 119.913047 51.246758 
L 120.105703 51.910166 
L 120.298358 53.900388 
L 120.491014 54.563795 
L 120.683669 50.583351 
L 121.068981 49.256536 
L 121.261636 51.246758 
L 121.646947 52.573573 
L 121.839603 50.583351 
L 122.032258 50.583351 
L 122.224914 48.593128 
L 122.417569 49.256536 
L 122.610225 48.593128 
L 122.802881 49.919943 
L 122.995536 47.929721 
L 123.188192 49.919943 
L 123.380847 47.266314 
L 123.573503 46.602906 
L 123.766158 46.602906 
L 123.958814 50.583351 
L 124.151469 50.583351 
L 124.344125 49.256536 
L 124.536781 52.573573 
L 124.729436 52.573573 
L 125.307403 49.256536 
L 125.500058 49.919943 
L 125.692714 49.256536 
L 125.885369 49.919943 
L 126.078025 47.266314 
L 126.270681 48.593128 
L 126.463336 47.266314 
L 126.655992 47.929721 
L 126.848647 47.266314 
L 127.041303 47.929721 
L 127.426614 47.929721 
L 127.619269 48.593128 
L 127.811925 51.910166 
L 128.004581 49.919943 
L 128.389892 49.919943 
L 128.582547 50.583351 
L 128.775203 55.227203 
L 128.967858 51.910166 
L 129.160514 52.573573 
L 129.353169 49.256536 
L 129.738481 51.246758 
L 129.931136 48.593128 
L 130.316447 49.919943 
L 130.509103 47.929721 
L 130.701758 47.929721 
L 130.894414 49.256536 
L 131.279725 49.256536 
L 131.472381 50.583351 
L 131.857692 45.276091 
L 132.050347 48.593128 
L 132.243003 45.939499 
L 132.435658 46.602906 
L 132.628314 45.939499 
L 132.820969 47.929721 
L 133.013625 48.593128 
L 133.206281 47.929721 
L 133.398936 45.939499 
L 133.591592 51.246758 
L 133.784247 52.573573 
L 133.976903 49.919943 
L 134.169558 51.246758 
L 134.362214 50.583351 
L 134.554869 48.593128 
L 134.747525 49.919943 
L 134.940181 49.256536 
L 135.132836 51.246758 
L 135.325492 50.583351 
L 135.518147 48.593128 
L 135.710803 48.593128 
L 135.903458 53.23698 
L 136.096114 53.23698 
L 136.288769 50.583351 
L 136.481425 50.583351 
L 136.674081 49.919943 
L 136.866736 49.919943 
L 137.059392 47.929721 
L 137.252047 49.256536 
L 137.444703 49.256536 
L 137.830014 50.583351 
L 138.022669 47.266314 
L 138.215325 47.266314 
L 138.407981 48.593128 
L 138.600636 46.602906 
L 138.793292 50.583351 
L 138.985947 49.256536 
L 139.178603 51.246758 
L 139.371258 49.256536 
L 139.563914 48.593128 
L 139.756569 49.256536 
L 139.949225 49.256536 
L 140.141881 51.246758 
L 140.334536 49.919943 
L 140.719847 49.919943 
L 140.912503 51.910166 
L 141.105158 51.910166 
L 141.297814 50.583351 
L 141.490469 51.246758 
L 141.683125 53.23698 
L 141.875781 57.217425 
L 142.068436 53.900388 
L 142.261092 54.563795 
L 142.453747 53.900388 
L 142.646403 54.563795 
L 142.839058 53.900388 
L 143.031714 52.573573 
L 143.224369 56.554017 
L 143.417025 53.23698 
L 144.187647 58.54424 
L 144.380303 56.554017 
L 144.572958 57.217425 
L 144.958269 53.900388 
L 145.150925 49.919943 
L 145.343581 54.563795 
L 145.536236 55.227203 
L 145.728892 54.563795 
L 145.921547 51.910166 
L 146.114203 51.246758 
L 146.306858 51.246758 
L 146.499514 55.227203 
L 146.692169 56.554017 
L 146.884825 51.246758 
L 147.462792 56.554017 
L 147.655447 54.563795 
L 147.848103 53.900388 
L 148.040758 54.563795 
L 148.426069 54.563795 
L 148.618725 51.910166 
L 148.811381 52.573573 
L 149.004036 51.246758 
L 149.389347 52.573573 
L 149.582003 51.246758 
L 149.967314 52.573573 
L 150.159969 55.227203 
L 150.545281 51.910166 
L 150.737936 52.573573 
L 151.123247 45.939499 
L 151.315903 48.593128 
L 151.508558 47.929721 
L 151.893869 51.246758 
L 152.086525 47.929721 
L 152.279181 50.583351 
L 152.471836 49.919943 
L 152.857147 47.929721 
L 153.242458 53.23698 
L 153.435114 50.583351 
L 153.627769 50.583351 
L 153.820425 53.900388 
L 154.013081 55.227203 
L 154.205736 50.583351 
L 154.398392 51.246758 
L 154.591047 52.573573 
L 154.783703 51.246758 
L 154.976358 51.246758 
L 155.361669 47.266314 
L 155.554325 52.573573 
L 155.746981 52.573573 
L 156.132292 50.583351 
L 156.324947 49.919943 
L 156.517603 48.593128 
L 156.710258 48.593128 
L 156.902914 49.256536 
L 157.095569 50.583351 
L 157.288225 54.563795 
L 157.480881 51.246758 
L 157.866192 49.919943 
L 158.251503 53.23698 
L 158.444158 49.919943 
L 158.829469 49.919943 
L 159.214781 52.573573 
L 159.407436 51.246758 
L 159.600092 51.246758 
L 159.792747 51.910166 
L 159.985403 53.900388 
L 160.178058 53.23698 
L 160.563369 49.256536 
L 160.756025 49.919943 
L 160.948681 48.593128 
L 161.141336 49.919943 
L 161.333992 47.266314 
L 161.526647 49.256536 
L 161.719303 48.593128 
L 162.104614 53.900388 
L 162.297269 53.900388 
L 162.489925 54.563795 
L 162.875236 51.246758 
L 163.260547 53.23698 
L 163.453203 51.910166 
L 163.645858 49.256536 
L 163.838514 52.573573 
L 164.031169 50.583351 
L 164.416481 54.563795 
L 164.609136 53.23698 
L 164.801792 54.563795 
L 164.994447 49.919943 
L 165.379758 51.910166 
L 165.957725 48.593128 
L 166.150381 50.583351 
L 166.343036 47.929721 
L 166.728347 50.583351 
L 166.921003 50.583351 
L 167.113658 49.919943 
L 167.306314 50.583351 
L 167.498969 49.919943 
L 167.884281 53.900388 
L 168.076936 50.583351 
L 168.269592 49.919943 
L 168.462247 49.919943 
L 168.654903 50.583351 
L 168.847558 50.583351 
L 169.040214 48.593128 
L 169.232869 50.583351 
L 169.425525 49.919943 
L 169.618181 47.266314 
L 169.810836 49.256536 
L 170.003492 47.929721 
L 170.196147 49.256536 
L 170.388803 47.266314 
L 170.581458 49.256536 
L 170.774114 47.266314 
L 170.966769 48.593128 
L 171.159425 48.593128 
L 171.352081 50.583351 
L 171.544736 47.929721 
L 171.737392 53.23698 
L 171.930047 52.573573 
L 172.122703 53.23698 
L 172.315358 52.573573 
L 172.508014 53.23698 
L 172.700669 55.89061 
L 173.085981 52.573573 
L 173.471292 47.929721 
L 173.663947 48.593128 
L 173.856603 47.929721 
L 174.049258 48.593128 
L 174.241914 51.910166 
L 174.434569 53.23698 
L 174.627225 48.593128 
L 174.819881 51.910166 
L 175.012536 49.256536 
L 175.205192 49.919943 
L 175.397847 48.593128 
L 175.590503 48.593128 
L 175.783158 50.583351 
L 175.975814 49.919943 
L 176.361125 47.266314 
L 176.553781 47.266314 
L 176.746436 51.246758 
L 176.939092 47.929721 
L 177.131747 48.593128 
L 177.324403 50.583351 
L 177.517058 47.929721 
L 177.709714 47.929721 
L 177.902369 49.256536 
L 178.095025 46.602906 
L 178.480336 49.919943 
L 178.672992 49.256536 
L 179.250958 52.573573 
L 179.636269 52.573573 
L 179.828925 53.900388 
L 180.021581 53.23698 
L 180.214236 51.910166 
L 180.406892 52.573573 
L 180.599547 51.246758 
L 180.792203 51.910166 
L 180.984858 53.23698 
L 181.177514 51.246758 
L 181.370169 50.583351 
L 181.562825 48.593128 
L 181.755481 52.573573 
L 182.140792 52.573573 
L 182.526103 48.593128 
L 182.718758 49.919943 
L 182.911414 49.919943 
L 183.104069 51.246758 
L 183.296725 48.593128 
L 183.489381 49.919943 
L 183.682036 48.593128 
L 183.874692 51.910166 
L 184.067347 50.583351 
L 184.260003 47.929721 
L 184.452658 47.266314 
L 184.645314 50.583351 
L 184.837969 49.919943 
L 185.223281 47.929721 
L 185.608592 53.23698 
L 185.801247 52.573573 
L 185.993903 49.919943 
L 186.186558 49.256536 
L 186.571869 49.256536 
L 186.764525 48.593128 
L 186.957181 49.256536 
L 187.149836 47.266314 
L 187.535147 47.266314 
L 187.727803 46.602906 
L 188.113114 46.602906 
L 188.305769 47.929721 
L 188.498425 47.266314 
L 188.691081 47.929721 
L 188.883736 45.939499 
L 189.461703 49.919943 
L 189.654358 48.593128 
L 189.847014 49.919943 
L 190.039669 49.919943 
L 190.232325 48.593128 
L 190.617636 51.246758 
L 190.810292 49.256536 
L 191.002947 51.910166 
L 191.195603 49.919943 
L 191.388258 49.256536 
L 191.580914 50.583351 
L 191.773569 49.919943 
L 191.966225 51.246758 
L 192.158881 51.246758 
L 192.351536 49.919943 
L 192.544192 50.583351 
L 192.929503 47.929721 
L 193.122158 47.929721 
L 193.314814 46.602906 
L 193.700125 49.256536 
L 193.892781 48.593128 
L 193.892781 48.593128 
" style="fill:none;stroke:#de8f05;stroke-linecap:round;stroke-width:1.5;"/>
   </g>
   <g id="line2d_10">
    <path clip-path="url(#pe73f03babb)" d="M 54.988125 76.45624 
L 55.373436 68.495351 
L 55.566092 65.841721 
L 55.951403 65.841721 
L 56.144058 69.158758 
L 56.336714 70.485573 
L 56.529369 69.822166 
L 56.914681 67.168536 
L 57.107336 68.495351 
L 57.299992 67.168536 
L 57.492647 67.168536 
L 57.685303 63.851499 
L 57.877958 64.514906 
L 58.070614 63.851499 
L 58.263269 64.514906 
L 58.648581 57.880832 
L 58.841236 57.217425 
L 59.033892 54.563795 
L 59.226547 55.89061 
L 59.419203 55.89061 
L 59.611858 58.54424 
L 59.804514 57.217425 
L 59.997169 53.900388 
L 60.189825 53.900388 
L 60.382481 55.227203 
L 60.575136 52.573573 
L 60.767792 54.563795 
L 60.960447 53.900388 
L 61.153103 51.246758 
L 61.345758 55.89061 
L 61.538414 52.573573 
L 61.731069 53.900388 
L 61.923725 58.54424 
L 62.116381 56.554017 
L 62.309036 59.871054 
L 62.501692 58.54424 
L 62.694347 55.89061 
L 62.887003 58.54424 
L 63.079658 54.563795 
L 63.272314 56.554017 
L 63.464969 54.563795 
L 63.850281 56.554017 
L 64.042936 57.217425 
L 64.428247 53.900388 
L 64.813558 53.900388 
L 65.006214 56.554017 
L 65.391525 56.554017 
L 65.584181 55.89061 
L 65.776836 50.583351 
L 65.969492 51.246758 
L 66.162147 47.929721 
L 66.740114 51.246758 
L 66.932769 50.583351 
L 67.318081 48.593128 
L 67.510736 49.919943 
L 67.703392 47.929721 
L 68.088703 49.919943 
L 68.281358 46.602906 
L 68.474014 47.929721 
L 68.666669 47.929721 
L 68.859325 47.266314 
L 69.051981 47.929721 
L 69.244636 47.266314 
L 69.437292 44.612684 
L 69.629947 45.276091 
L 69.822603 43.949277 
L 70.015258 47.266314 
L 70.207914 45.939499 
L 70.400569 46.602906 
L 70.593225 43.949277 
L 70.785881 45.939499 
L 70.978536 50.583351 
L 71.171192 45.939499 
L 71.363847 47.266314 
L 71.556503 46.602906 
L 71.749158 46.602906 
L 71.941814 43.949277 
L 72.134469 44.612684 
L 72.327125 48.593128 
L 72.905092 43.285869 
L 73.097747 41.959054 
L 73.290403 39.305425 
L 73.483058 39.305425 
L 73.675714 38.642017 
L 73.868369 39.968832 
L 74.061025 43.285869 
L 74.253681 39.968832 
L 74.638992 38.642017 
L 75.024303 38.642017 
L 75.216958 40.63224 
L 75.602269 32.671351 
L 75.794925 32.007943 
L 75.987581 33.998166 
L 76.180236 32.671351 
L 76.372892 32.671351 
L 76.565547 31.344536 
L 76.758203 32.007943 
L 76.950858 36.651795 
L 77.143514 33.998166 
L 77.336169 33.334758 
L 77.528825 33.998166 
L 77.721481 30.681128 
L 78.106792 36.651795 
L 78.299447 36.651795 
L 78.492103 39.968832 
L 78.684758 36.651795 
L 78.877414 38.642017 
L 79.070069 37.315203 
L 79.455381 32.007943 
L 79.648036 32.007943 
L 79.840692 30.017721 
L 80.033347 31.344536 
L 80.226003 30.017721 
L 80.418658 33.334758 
L 80.611314 31.344536 
L 80.803969 30.681128 
L 80.996625 32.671351 
L 81.189281 36.651795 
L 81.381936 35.32498 
L 81.574592 35.32498 
L 81.767247 33.998166 
L 81.959903 35.32498 
L 82.152558 33.334758 
L 82.345214 28.027499 
L 82.730525 33.334758 
L 82.923181 27.364091 
L 83.115836 26.700684 
L 83.308492 31.344536 
L 83.501147 32.007943 
L 83.693803 31.344536 
L 83.886458 28.027499 
L 84.079114 27.364091 
L 84.271769 28.027499 
L 84.464425 28.027499 
L 84.657081 30.017721 
L 84.849736 27.364091 
L 85.042392 31.344536 
L 85.235047 26.700684 
L 85.620358 28.027499 
L 85.813014 29.354314 
L 86.005669 28.027499 
L 86.198325 29.354314 
L 86.390981 27.364091 
L 86.583636 26.700684 
L 86.776292 28.690906 
L 86.968947 26.700684 
L 87.161603 30.017721 
L 87.354258 30.017721 
L 87.739569 23.383647 
L 87.932225 26.037277 
L 88.124881 26.037277 
L 88.317536 28.690906 
L 88.510192 28.690906 
L 88.702847 25.373869 
L 88.895503 24.710462 
L 89.088158 25.373869 
L 89.280814 26.700684 
L 89.473469 26.037277 
L 89.666125 23.383647 
L 89.858781 24.710462 
L 90.051436 28.690906 
L 90.244092 28.690906 
L 90.822058 26.700684 
L 91.014714 27.364091 
L 91.400025 24.047054 
L 91.592681 30.017721 
L 91.785336 28.027499 
L 91.977992 24.710462 
L 92.363303 26.700684 
L 92.941269 26.700684 
L 93.133925 27.364091 
L 93.326581 26.700684 
L 93.519236 27.364091 
L 93.711892 26.037277 
L 93.904547 26.700684 
L 94.097203 28.690906 
L 94.289858 26.037277 
L 94.675169 28.690906 
L 94.867825 26.037277 
L 95.060481 25.373869 
L 95.445792 30.017721 
L 95.831103 28.690906 
L 96.023758 28.690906 
L 96.409069 30.017721 
L 96.601725 31.344536 
L 96.794381 30.017721 
L 96.987036 30.681128 
L 97.179692 28.690906 
L 97.372347 31.344536 
L 97.565003 30.017721 
L 97.757658 31.344536 
L 97.950314 30.681128 
L 98.142969 32.007943 
L 98.335625 27.364091 
L 98.528281 34.661573 
L 98.720936 32.007943 
L 98.913592 32.671351 
L 99.106247 32.007943 
L 99.491558 35.988388 
L 99.684214 33.334758 
L 99.876869 32.671351 
L 100.069525 33.334758 
L 100.262181 32.007943 
L 100.454836 33.334758 
L 100.647492 31.344536 
L 100.840147 33.998166 
L 101.032803 33.998166 
L 101.225458 35.32498 
L 101.418114 34.661573 
L 101.610769 37.315203 
L 101.803425 36.651795 
L 102.188736 36.651795 
L 102.381392 39.305425 
L 102.574047 39.968832 
L 102.766703 39.968832 
L 102.959358 38.642017 
L 103.152014 39.305425 
L 103.344669 37.97861 
L 103.537325 38.642017 
L 103.729981 36.651795 
L 103.922636 39.305425 
L 104.115292 39.968832 
L 104.307947 39.968832 
L 104.500603 38.642017 
L 104.693258 35.988388 
L 105.078569 39.305425 
L 105.271225 34.661573 
L 105.463881 34.661573 
L 105.656536 35.988388 
L 106.041847 40.63224 
L 106.234503 37.315203 
L 106.427158 38.642017 
L 106.812469 45.939499 
L 107.005125 43.285869 
L 107.197781 43.949277 
L 107.390436 42.622462 
L 107.583092 43.949277 
L 107.775747 39.968832 
L 107.968403 39.305425 
L 108.161058 39.968832 
L 108.546369 42.622462 
L 108.931681 37.97861 
L 109.124336 37.97861 
L 109.316992 37.315203 
L 109.509647 42.622462 
L 109.702303 39.305425 
L 109.894958 37.97861 
L 110.087614 39.305425 
L 110.280269 38.642017 
L 110.665581 42.622462 
L 110.858236 42.622462 
L 111.243547 36.651795 
L 111.436203 36.651795 
L 111.628858 35.988388 
L 111.821514 36.651795 
L 112.014169 35.32498 
L 112.206825 36.651795 
L 112.592136 34.661573 
L 112.977447 40.63224 
L 113.362758 33.998166 
L 113.555414 35.988388 
L 113.748069 33.998166 
L 114.133381 39.305425 
L 114.518692 40.63224 
L 114.711347 38.642017 
L 114.904003 35.32498 
L 115.096658 38.642017 
L 115.481969 35.988388 
L 115.674625 36.651795 
L 116.059936 38.642017 
L 116.252592 36.651795 
L 116.445247 37.315203 
L 116.830558 35.32498 
L 117.023214 32.007943 
L 117.215869 35.32498 
L 117.408525 35.988388 
L 117.601181 35.32498 
L 117.793836 37.97861 
L 117.986492 38.642017 
L 118.179147 33.998166 
L 118.371803 35.32498 
L 118.564458 33.334758 
L 118.757114 35.988388 
L 118.949769 33.334758 
L 119.142425 35.32498 
L 119.335081 32.007943 
L 119.527736 33.998166 
L 119.720392 30.681128 
L 119.913047 32.671351 
L 120.298358 28.027499 
L 120.491014 28.690906 
L 120.876325 26.700684 
L 121.068981 27.364091 
L 121.261636 32.671351 
L 121.454292 30.681128 
L 121.646947 33.998166 
L 121.839603 33.334758 
L 122.032258 33.998166 
L 122.224914 33.334758 
L 122.417569 30.681128 
L 122.610225 35.32498 
L 122.802881 33.334758 
L 122.995536 35.32498 
L 123.188192 41.295647 
L 123.573503 30.681128 
L 123.958814 32.007943 
L 124.151469 28.690906 
L 124.344125 33.998166 
L 124.536781 33.334758 
L 124.729436 34.661573 
L 125.307403 31.344536 
L 125.500058 35.32498 
L 125.885369 30.017721 
L 126.078025 29.354314 
L 126.270681 31.344536 
L 126.655992 29.354314 
L 126.848647 32.007943 
L 127.041303 29.354314 
L 127.233958 32.007943 
L 127.426614 32.007943 
L 127.619269 29.354314 
L 127.811925 30.017721 
L 128.004581 31.344536 
L 128.389892 30.017721 
L 128.582547 33.334758 
L 128.775203 33.334758 
L 128.967858 32.671351 
L 129.160514 28.690906 
L 129.353169 34.661573 
L 129.545825 31.344536 
L 129.738481 30.681128 
L 129.931136 33.334758 
L 130.123792 32.671351 
L 130.316447 31.344536 
L 130.509103 31.344536 
L 130.701758 34.661573 
L 130.894414 29.354314 
L 131.087069 28.690906 
L 131.279725 32.007943 
L 131.472381 31.344536 
L 131.665036 36.651795 
L 131.857692 36.651795 
L 132.050347 35.988388 
L 132.243003 32.671351 
L 132.435658 35.988388 
L 132.628314 37.315203 
L 133.013625 33.334758 
L 133.206281 39.968832 
L 133.591592 34.661573 
L 133.784247 40.63224 
L 133.976903 41.959054 
L 134.554869 33.998166 
L 134.940181 40.63224 
L 135.132836 38.642017 
L 135.325492 41.295647 
L 135.518147 37.315203 
L 135.710803 41.295647 
L 135.903458 41.959054 
L 136.096114 38.642017 
L 136.288769 41.295647 
L 136.481425 39.305425 
L 136.674081 39.305425 
L 136.866736 38.642017 
L 137.252047 39.968832 
L 137.444703 35.988388 
L 137.830014 41.959054 
L 138.215325 37.97861 
L 138.407981 37.97861 
L 138.600636 39.968832 
L 138.793292 37.97861 
L 139.178603 46.602906 
L 139.371258 43.285869 
L 139.563914 45.276091 
L 140.141881 41.295647 
L 140.527192 46.602906 
L 140.912503 42.622462 
L 141.105158 45.939499 
L 141.297814 40.63224 
L 141.490469 39.968832 
L 141.683125 41.959054 
L 141.875781 41.959054 
L 142.068436 39.305425 
L 142.453747 43.949277 
L 142.646403 43.285869 
L 143.031714 41.295647 
L 143.224369 40.63224 
L 143.417025 40.63224 
L 143.609681 37.97861 
L 143.802336 38.642017 
L 143.994992 37.315203 
L 144.187647 34.661573 
L 144.380303 35.32498 
L 144.572958 33.334758 
L 144.765614 32.671351 
L 144.958269 32.671351 
L 145.150925 28.690906 
L 145.343581 33.334758 
L 145.536236 32.671351 
L 145.728892 33.998166 
L 146.114203 26.037277 
L 146.692169 33.998166 
L 146.884825 33.334758 
L 147.077481 34.661573 
L 147.270136 38.642017 
L 147.462792 30.681128 
L 147.655447 32.007943 
L 147.848103 37.97861 
L 148.040758 32.007943 
L 148.233414 32.671351 
L 148.426069 31.344536 
L 148.618725 32.007943 
L 148.811381 30.017721 
L 149.004036 30.017721 
L 149.389347 27.364091 
L 149.582003 31.344536 
L 149.774658 30.681128 
L 149.967314 31.344536 
L 150.159969 34.661573 
L 150.545281 28.027499 
L 150.930592 30.017721 
L 151.123247 30.681128 
L 151.315903 33.334758 
L 151.701214 28.690906 
L 151.893869 24.047054 
L 152.086525 24.047054 
L 152.664492 30.681128 
L 153.049803 33.998166 
L 153.242458 31.344536 
L 153.435114 32.007943 
L 153.627769 28.027499 
L 153.820425 26.700684 
L 154.013081 29.354314 
L 154.205736 26.700684 
L 154.398392 30.017721 
L 154.591047 28.690906 
L 154.783703 32.007943 
L 154.976358 32.007943 
L 155.169014 30.681128 
L 155.361669 26.037277 
L 155.554325 28.690906 
L 155.746981 28.690906 
L 155.939636 30.017721 
L 156.324947 26.037277 
L 156.517603 28.027499 
L 156.902914 24.047054 
L 157.095569 25.373869 
L 157.288225 22.056832 
L 157.480881 21.393425 
L 157.673536 22.72024 
L 157.866192 25.373869 
L 158.058847 26.037277 
L 158.251503 24.710462 
L 158.444158 22.056832 
L 158.829469 28.690906 
L 159.022125 24.047054 
L 159.214781 25.373869 
L 159.407436 25.373869 
L 159.600092 22.056832 
L 159.792747 25.373869 
L 159.985403 24.710462 
L 160.178058 24.710462 
L 160.370714 25.373869 
L 160.563369 26.700684 
L 160.756025 24.710462 
L 160.948681 26.700684 
L 161.141336 26.037277 
L 161.911958 33.998166 
L 162.104614 28.690906 
L 162.297269 31.344536 
L 162.489925 31.344536 
L 162.682581 35.988388 
L 162.875236 37.315203 
L 163.067892 35.32498 
L 163.260547 35.32498 
L 163.645858 37.315203 
L 163.838514 37.97861 
L 164.031169 36.651795 
L 164.223825 38.642017 
L 164.609136 39.968832 
L 164.801792 39.968832 
L 165.187103 32.671351 
L 165.379758 35.32498 
L 165.572414 34.661573 
L 165.765069 30.681128 
L 165.957725 35.32498 
L 166.343036 38.642017 
L 166.535692 35.988388 
L 166.728347 39.968832 
L 166.921003 39.305425 
L 167.113658 37.97861 
L 167.306314 40.63224 
L 167.498969 40.63224 
L 167.691625 39.305425 
L 167.884281 39.305425 
L 168.076936 40.63224 
L 168.462247 37.97861 
L 168.654903 37.97861 
L 168.847558 38.642017 
L 169.232869 36.651795 
L 169.425525 37.97861 
L 169.618181 35.32498 
L 169.810836 37.97861 
L 170.003492 35.988388 
L 170.196147 35.988388 
L 170.388803 37.97861 
L 170.581458 34.661573 
L 170.966769 36.651795 
L 171.159425 36.651795 
L 171.352081 34.661573 
L 171.544736 36.651795 
L 171.737392 35.32498 
L 171.930047 36.651795 
L 172.122703 36.651795 
L 172.315358 33.998166 
L 172.508014 37.97861 
L 172.893325 35.988388 
L 173.085981 32.007943 
L 173.278636 34.661573 
L 173.471292 35.32498 
L 173.663947 34.661573 
L 173.856603 35.32498 
L 174.049258 34.661573 
L 174.241914 32.671351 
L 174.434569 34.661573 
L 174.627225 33.334758 
L 174.819881 37.315203 
L 175.012536 37.315203 
L 175.397847 38.642017 
L 175.590503 35.32498 
L 175.783158 35.988388 
L 175.975814 31.344536 
L 176.168469 30.681128 
L 176.361125 31.344536 
L 176.553781 31.344536 
L 176.746436 30.017721 
L 176.939092 32.007943 
L 177.131747 38.642017 
L 177.324403 36.651795 
L 177.517058 37.315203 
L 177.902369 32.007943 
L 178.095025 35.988388 
L 178.480336 32.671351 
L 178.672992 33.998166 
L 178.865647 32.671351 
L 179.058303 34.661573 
L 179.250958 33.334758 
L 179.443614 33.334758 
L 179.636269 37.97861 
L 179.828925 37.97861 
L 180.021581 40.63224 
L 180.214236 39.968832 
L 180.406892 34.661573 
L 180.599547 33.998166 
L 180.792203 33.998166 
L 180.984858 37.315203 
L 181.177514 36.651795 
L 181.370169 37.315203 
L 181.562825 34.661573 
L 181.755481 34.661573 
L 182.140792 39.968832 
L 182.333447 37.315203 
L 182.526103 32.007943 
L 182.718758 33.998166 
L 182.911414 33.998166 
L 183.104069 31.344536 
L 183.296725 35.32498 
L 183.682036 32.007943 
L 183.874692 33.334758 
L 184.067347 37.97861 
L 184.260003 33.998166 
L 184.452658 33.334758 
L 184.645314 32.007943 
L 184.837969 37.315203 
L 185.030625 32.007943 
L 185.415936 32.007943 
L 185.608592 31.344536 
L 185.801247 32.671351 
L 186.186558 30.681128 
L 186.379214 32.671351 
L 186.571869 33.334758 
L 186.957181 32.007943 
L 187.535147 28.690906 
L 187.727803 28.690906 
L 188.113114 33.998166 
L 188.305769 28.690906 
L 188.498425 32.007943 
L 188.883736 33.334758 
L 189.076392 28.027499 
L 189.269047 28.027499 
L 189.654358 32.007943 
L 189.847014 30.017721 
L 190.039669 30.681128 
L 190.232325 30.681128 
L 190.617636 34.661573 
L 190.810292 35.32498 
L 191.195603 32.671351 
L 191.388258 34.661573 
L 191.580914 30.017721 
L 191.773569 30.681128 
L 191.966225 30.017721 
L 192.158881 31.344536 
L 192.351536 29.354314 
L 192.544192 32.671351 
L 192.736847 32.007943 
L 192.929503 33.334758 
L 193.122158 32.671351 
L 193.314814 33.334758 
L 193.507469 30.017721 
L 193.700125 30.681128 
L 193.892781 32.007943 
L 193.892781 32.007943 
" style="fill:none;stroke:#029e73;stroke-linecap:round;stroke-width:1.5;"/>
   </g>
   <g id="line2d_11">
    <path clip-path="url(#pe73f03babb)" d="M 54.988125 77.119647 
L 55.180781 67.168536 
L 55.373436 66.505128 
L 55.566092 63.851499 
L 55.758747 64.514906 
L 55.951403 65.841721 
L 56.336714 63.188091 
L 56.722025 57.880832 
L 56.914681 59.207647 
L 57.107336 57.880832 
L 57.299992 60.534462 
L 57.685303 53.23698 
L 57.877958 52.573573 
L 58.263269 47.929721 
L 58.455925 49.919943 
L 59.033892 43.285869 
L 59.226547 41.295647 
L 59.419203 41.295647 
L 59.611858 41.959054 
L 59.804514 37.97861 
L 59.997169 37.97861 
L 60.189825 35.988388 
L 60.382481 35.988388 
L 60.575136 35.32498 
L 60.767792 31.344536 
L 60.960447 30.017721 
L 61.345758 30.017721 
L 61.923725 22.72024 
L 62.116381 25.373869 
L 62.309036 26.037277 
L 62.694347 18.739795 
L 62.887003 21.393425 
L 63.079658 18.076388 
L 63.464969 18.076388 
L 63.657625 18.739795 
L 63.850281 20.730017 
L 64.042936 20.06661 
L 64.235592 20.730017 
L 64.428247 20.06661 
L 64.620903 16.749573 
L 64.813558 18.076388 
L 65.006214 18.076388 
L 65.198869 16.086166 
L 65.391525 16.749573 
L 65.584181 18.739795 
L 65.776836 23.383647 
L 65.969492 22.72024 
L 66.162147 16.086166 
L 66.354803 20.06661 
L 66.740114 18.739795 
L 66.932769 20.06661 
L 67.125425 18.076388 
L 67.318081 18.739795 
L 67.510736 16.086166 
L 67.703392 18.076388 
L 67.896047 17.41298 
L 68.088703 16.086166 
L 68.474014 18.076388 
L 68.666669 16.749573 
L 68.859325 14.095943 
L 69.051981 18.739795 
L 69.244636 15.422758 
L 69.437292 20.06661 
L 69.629947 13.432536 
L 69.822603 14.759351 
L 70.207914 19.403203 
L 70.593225 19.403203 
L 70.785881 14.095943 
L 70.978536 19.403203 
L 71.171192 20.06661 
L 71.556503 16.749573 
L 71.749158 17.41298 
L 72.134469 14.095943 
L 72.327125 13.432536 
L 72.519781 17.41298 
L 72.712436 18.739795 
L 72.905092 17.41298 
L 73.097747 14.095943 
L 73.483058 16.749573 
L 73.675714 15.422758 
L 73.868369 18.739795 
L 74.061025 16.086166 
L 74.253681 16.086166 
L 74.446336 16.749573 
L 75.024303 16.749573 
L 75.216958 13.432536 
L 75.409614 13.432536 
L 75.602269 16.749573 
L 75.794925 16.086166 
L 75.987581 14.759351 
L 76.180236 14.759351 
L 76.372892 16.086166 
L 76.565547 14.759351 
L 76.758203 15.422758 
L 77.143514 15.422758 
L 77.336169 17.41298 
L 77.528825 15.422758 
L 77.721481 18.076388 
L 77.914136 18.076388 
L 78.299447 16.086166 
L 78.492103 16.749573 
L 79.070069 16.749573 
L 79.262725 17.41298 
L 79.455381 17.41298 
L 79.648036 21.393425 
L 80.033347 17.41298 
L 80.418658 20.06661 
L 80.611314 20.06661 
L 80.803969 19.403203 
L 80.996625 18.076388 
L 81.189281 21.393425 
L 81.381936 18.739795 
L 81.574592 19.403203 
L 81.767247 18.076388 
L 81.959903 18.739795 
L 82.152558 18.076388 
L 82.345214 16.749573 
L 82.537869 18.076388 
L 82.730525 17.41298 
L 82.923181 18.076388 
L 83.115836 22.72024 
L 83.308492 21.393425 
L 83.501147 23.383647 
L 83.693803 20.06661 
L 83.886458 22.056832 
L 84.079114 21.393425 
L 84.464425 14.759351 
L 84.657081 16.749573 
L 84.849736 20.730017 
L 85.235047 16.086166 
L 85.427703 15.422758 
L 85.620358 16.086166 
L 85.813014 17.41298 
L 86.005669 16.749573 
L 86.198325 18.076388 
L 86.583636 14.095943 
L 86.968947 20.06661 
L 87.161603 20.730017 
L 87.354258 22.72024 
L 87.546914 20.06661 
L 87.739569 19.403203 
L 87.932225 20.06661 
L 88.124881 21.393425 
L 88.317536 19.403203 
L 88.510192 21.393425 
L 88.702847 16.749573 
L 88.895503 20.730017 
L 89.088158 20.730017 
L 89.280814 21.393425 
L 89.473469 18.739795 
L 89.666125 18.076388 
L 89.858781 19.403203 
L 90.051436 22.72024 
L 90.436747 17.41298 
L 90.629403 18.739795 
L 90.822058 18.739795 
L 91.014714 16.749573 
L 91.207369 19.403203 
L 91.400025 18.739795 
L 91.592681 21.393425 
L 91.785336 20.06661 
L 91.977992 20.06661 
L 92.170647 22.72024 
L 92.748614 18.739795 
L 92.941269 22.056832 
L 93.133925 20.730017 
L 93.326581 21.393425 
L 93.711892 21.393425 
L 93.904547 18.739795 
L 94.097203 18.076388 
L 94.289858 22.056832 
L 94.482514 21.393425 
L 94.675169 21.393425 
L 94.867825 20.730017 
L 95.060481 18.739795 
L 95.253136 18.739795 
L 95.445792 16.749573 
L 95.638447 18.076388 
L 95.831103 17.41298 
L 96.023758 15.422758 
L 96.216414 15.422758 
L 96.409069 17.41298 
L 96.601725 15.422758 
L 96.794381 18.076388 
L 96.987036 16.749573 
L 97.179692 18.739795 
L 97.372347 15.422758 
L 97.757658 17.41298 
L 97.950314 21.393425 
L 98.528281 19.403203 
L 98.913592 15.422758 
L 99.106247 16.086166 
L 99.298903 14.759351 
L 99.491558 14.759351 
L 99.684214 17.41298 
L 99.876869 16.749573 
L 100.069525 18.739795 
L 100.262181 16.086166 
L 100.647492 19.403203 
L 100.840147 20.730017 
L 101.418114 17.41298 
L 101.610769 18.076388 
L 101.803425 20.06661 
L 101.996081 16.749573 
L 102.188736 19.403203 
L 102.381392 20.06661 
L 102.574047 18.076388 
L 102.766703 18.739795 
L 102.959358 20.730017 
L 103.537325 14.095943 
L 103.729981 12.769128 
L 103.922636 14.095943 
L 104.115292 12.105721 
L 104.307947 13.432536 
L 104.500603 17.41298 
L 104.693258 17.41298 
L 104.885914 16.086166 
L 105.078569 17.41298 
L 105.271225 17.41298 
L 105.656536 19.403203 
L 105.849192 16.749573 
L 106.041847 17.41298 
L 106.234503 17.41298 
L 106.427158 18.076388 
L 106.619814 17.41298 
L 106.812469 20.06661 
L 107.005125 18.739795 
L 107.197781 20.06661 
L 107.583092 18.076388 
L 107.775747 18.739795 
L 107.968403 18.076388 
L 108.161058 20.06661 
L 108.353714 20.06661 
L 108.739025 16.086166 
L 109.124336 20.06661 
L 109.316992 20.730017 
L 109.509647 18.739795 
L 109.894958 17.41298 
L 110.087614 19.403203 
L 110.472925 25.373869 
L 110.665581 22.72024 
L 110.858236 24.710462 
L 111.050892 20.06661 
L 111.243547 19.403203 
L 111.436203 17.41298 
L 111.628858 18.076388 
L 111.821514 20.06661 
L 112.014169 18.739795 
L 112.206825 22.056832 
L 112.399481 20.730017 
L 112.592136 22.056832 
L 112.784792 17.41298 
L 112.977447 18.076388 
L 113.170103 17.41298 
L 113.362758 19.403203 
L 113.555414 20.06661 
L 113.748069 18.739795 
L 113.940725 20.06661 
L 114.133381 18.076388 
L 114.326036 18.076388 
L 114.711347 21.393425 
L 114.904003 20.730017 
L 115.096658 16.749573 
L 115.289314 16.086166 
L 115.481969 14.759351 
L 115.674625 19.403203 
L 116.059936 14.095943 
L 116.252592 13.432536 
L 116.445247 14.095943 
L 116.637903 16.086166 
L 116.830558 16.749573 
L 117.023214 18.076388 
L 117.408525 14.095943 
L 117.601181 21.393425 
L 117.793836 21.393425 
L 118.179147 18.076388 
L 118.371803 18.076388 
L 118.564458 17.41298 
L 118.757114 14.759351 
L 118.949769 18.739795 
L 119.142425 18.739795 
L 119.335081 16.749573 
L 119.527736 18.739795 
L 119.720392 18.739795 
L 119.913047 19.403203 
L 120.105703 18.739795 
L 120.298358 21.393425 
L 120.683669 16.749573 
L 120.876325 16.749573 
L 121.068981 17.41298 
L 121.261636 20.730017 
L 121.454292 18.076388 
L 121.646947 18.739795 
L 121.839603 21.393425 
L 122.224914 18.739795 
L 122.417569 16.086166 
L 122.802881 17.41298 
L 122.995536 14.759351 
L 123.380847 16.749573 
L 123.573503 15.422758 
L 123.958814 17.41298 
L 124.151469 21.393425 
L 124.344125 17.41298 
L 124.536781 17.41298 
L 124.729436 18.739795 
L 124.922092 18.076388 
L 125.114747 16.749573 
L 125.307403 14.095943 
L 125.500058 15.422758 
L 125.692714 12.769128 
L 125.885369 12.105721 
L 126.078025 19.403203 
L 126.270681 18.076388 
L 126.655992 21.393425 
L 126.848647 18.739795 
L 127.041303 18.739795 
L 127.233958 21.393425 
L 127.426614 16.086166 
L 127.619269 19.403203 
L 128.389892 14.759351 
L 128.582547 16.749573 
L 128.775203 14.759351 
L 128.967858 15.422758 
L 129.160514 15.422758 
L 129.353169 14.095943 
L 129.545825 18.076388 
L 129.738481 14.759351 
L 129.931136 15.422758 
L 130.123792 17.41298 
L 130.316447 17.41298 
L 130.509103 18.739795 
L 130.701758 21.393425 
L 130.894414 20.730017 
L 131.087069 16.086166 
L 131.279725 14.759351 
L 131.472381 18.076388 
L 131.665036 16.086166 
L 131.857692 22.056832 
L 132.243003 18.739795 
L 132.435658 19.403203 
L 132.820969 16.086166 
L 133.013625 18.076388 
L 133.206281 15.422758 
L 133.398936 15.422758 
L 133.591592 14.095943 
L 133.976903 16.749573 
L 134.169558 12.769128 
L 134.554869 16.086166 
L 134.747525 14.759351 
L 134.940181 18.739795 
L 135.132836 18.739795 
L 135.325492 14.759351 
L 135.518147 18.076388 
L 135.710803 16.086166 
L 135.903458 15.422758 
L 136.096114 19.403203 
L 136.288769 18.739795 
L 136.481425 20.730017 
L 136.674081 20.06661 
L 136.866736 18.739795 
L 137.059392 16.086166 
L 137.252047 15.422758 
L 137.444703 17.41298 
L 137.637358 17.41298 
L 137.830014 18.076388 
L 138.022669 17.41298 
L 138.215325 19.403203 
L 138.600636 16.086166 
L 138.793292 18.076388 
L 138.985947 16.086166 
L 139.178603 16.749573 
L 139.563914 14.759351 
L 139.756569 14.759351 
L 139.949225 13.432536 
L 140.141881 20.730017 
L 140.334536 17.41298 
L 140.527192 19.403203 
L 140.719847 19.403203 
L 140.912503 18.076388 
L 141.105158 21.393425 
L 141.297814 19.403203 
L 141.490469 16.086166 
L 141.683125 15.422758 
L 141.875781 15.422758 
L 142.068436 18.739795 
L 142.261092 14.095943 
L 142.453747 18.739795 
L 142.646403 20.06661 
L 142.839058 17.41298 
L 143.031714 17.41298 
L 143.417025 20.06661 
L 143.609681 20.06661 
L 143.802336 16.749573 
L 143.994992 15.422758 
L 144.187647 16.086166 
L 144.380303 19.403203 
L 144.572958 18.739795 
L 144.765614 20.06661 
L 144.958269 18.076388 
L 145.343581 16.749573 
L 145.536236 16.749573 
L 145.728892 14.095943 
L 146.114203 18.739795 
L 146.306858 18.076388 
L 146.499514 18.739795 
L 146.692169 17.41298 
L 146.884825 14.759351 
L 147.077481 16.086166 
L 147.270136 14.095943 
L 147.462792 17.41298 
L 147.655447 15.422758 
L 147.848103 14.759351 
L 148.233414 16.086166 
L 148.426069 16.086166 
L 148.618725 18.739795 
L 148.811381 18.739795 
L 149.004036 16.749573 
L 149.196692 19.403203 
L 149.389347 19.403203 
L 149.582003 21.393425 
L 149.967314 16.086166 
L 150.545281 22.056832 
L 150.737936 20.06661 
L 150.930592 19.403203 
L 151.123247 21.393425 
L 151.315903 21.393425 
L 151.508558 19.403203 
L 151.701214 19.403203 
L 151.893869 22.056832 
L 152.086525 20.06661 
L 152.471836 20.06661 
L 152.664492 19.403203 
L 152.857147 22.056832 
L 153.049803 21.393425 
L 153.435114 17.41298 
L 153.627769 17.41298 
L 153.820425 16.749573 
L 154.013081 18.739795 
L 154.205736 16.086166 
L 154.398392 16.749573 
L 154.591047 15.422758 
L 154.783703 15.422758 
L 154.976358 17.41298 
L 155.361669 17.41298 
L 155.554325 15.422758 
L 155.746981 16.749573 
L 155.939636 15.422758 
L 156.132292 16.749573 
L 156.324947 16.086166 
L 156.517603 20.06661 
L 156.710258 18.076388 
L 156.902914 20.06661 
L 157.095569 19.403203 
L 157.673536 16.086166 
L 158.058847 20.06661 
L 158.251503 22.056832 
L 158.444158 16.086166 
L 158.636814 14.095943 
L 159.022125 22.056832 
L 159.214781 17.41298 
L 159.407436 16.086166 
L 159.600092 17.41298 
L 159.792747 20.06661 
L 159.985403 18.076388 
L 160.178058 19.403203 
L 160.370714 18.076388 
L 160.756025 20.730017 
L 160.948681 16.086166 
L 161.141336 17.41298 
L 161.333992 15.422758 
L 161.526647 14.759351 
L 161.719303 18.076388 
L 161.911958 14.095943 
L 162.104614 14.095943 
L 162.297269 16.086166 
L 162.489925 14.095943 
L 162.682581 16.086166 
L 162.875236 14.759351 
L 163.067892 15.422758 
L 163.260547 16.749573 
L 163.453203 14.759351 
L 163.645858 14.095943 
L 163.838514 14.759351 
L 164.031169 16.086166 
L 164.223825 15.422758 
L 164.416481 18.076388 
L 164.609136 18.739795 
L 164.801792 17.41298 
L 164.994447 17.41298 
L 165.572414 14.095943 
L 165.765069 15.422758 
L 165.957725 18.739795 
L 166.150381 19.403203 
L 166.343036 14.095943 
L 166.728347 19.403203 
L 166.921003 20.730017 
L 167.113658 23.383647 
L 167.498969 16.749573 
L 167.884281 16.749573 
L 168.076936 18.076388 
L 168.269592 15.422758 
L 168.462247 16.086166 
L 168.654903 18.076388 
L 168.847558 17.41298 
L 169.040214 17.41298 
L 169.232869 15.422758 
L 169.425525 15.422758 
L 169.618181 17.41298 
L 169.810836 14.759351 
L 170.003492 18.076388 
L 170.196147 19.403203 
L 170.388803 18.739795 
L 170.581458 20.730017 
L 170.966769 16.749573 
L 171.159425 18.076388 
L 171.544736 15.422758 
L 171.737392 18.076388 
L 172.122703 16.086166 
L 172.315358 17.41298 
L 172.508014 16.749573 
L 172.700669 15.422758 
L 172.893325 16.086166 
L 173.085981 15.422758 
L 173.278636 16.086166 
L 173.663947 18.739795 
L 173.856603 18.076388 
L 174.049258 18.739795 
L 174.241914 16.749573 
L 174.434569 16.086166 
L 174.627225 18.739795 
L 174.819881 18.739795 
L 175.205192 14.759351 
L 175.397847 14.759351 
L 175.590503 16.749573 
L 175.783158 16.086166 
L 175.975814 18.739795 
L 176.168469 18.076388 
L 176.361125 18.076388 
L 176.553781 16.749573 
L 176.746436 14.095943 
L 176.939092 14.759351 
L 177.131747 16.749573 
L 177.324403 15.422758 
L 177.517058 16.749573 
L 177.902369 14.759351 
L 178.095025 19.403203 
L 178.287681 18.739795 
L 178.480336 22.056832 
L 178.672992 16.749573 
L 179.058303 20.730017 
L 179.250958 20.730017 
L 179.443614 17.41298 
L 179.828925 14.095943 
L 180.214236 18.739795 
L 180.406892 18.739795 
L 180.792203 17.41298 
L 180.984858 21.393425 
L 181.370169 17.41298 
L 181.562825 17.41298 
L 181.948136 16.086166 
L 182.140792 20.06661 
L 182.526103 18.076388 
L 182.718758 18.076388 
L 182.911414 20.06661 
L 183.104069 19.403203 
L 183.296725 19.403203 
L 183.489381 21.393425 
L 183.682036 21.393425 
L 183.874692 16.749573 
L 184.067347 17.41298 
L 184.260003 16.086166 
L 184.452658 17.41298 
L 184.837969 14.095943 
L 185.223281 19.403203 
L 185.415936 18.739795 
L 185.608592 19.403203 
L 185.801247 17.41298 
L 185.993903 19.403203 
L 186.186558 20.06661 
L 186.379214 18.739795 
L 186.571869 19.403203 
L 186.764525 18.076388 
L 187.342492 23.383647 
L 187.535147 24.710462 
L 187.727803 21.393425 
L 187.920458 23.383647 
L 188.305769 19.403203 
L 188.498425 21.393425 
L 188.691081 18.739795 
L 188.883736 21.393425 
L 189.076392 19.403203 
L 189.269047 19.403203 
L 189.654358 17.41298 
L 189.847014 22.72024 
L 190.039669 20.06661 
L 190.232325 20.06661 
L 190.424981 16.086166 
L 190.617636 17.41298 
L 190.810292 16.749573 
L 191.195603 14.759351 
L 191.388258 15.422758 
L 191.580914 14.759351 
L 191.773569 16.086166 
L 191.966225 16.086166 
L 192.351536 20.730017 
L 192.544192 20.06661 
L 192.736847 20.06661 
L 192.929503 20.730017 
L 193.122158 20.06661 
L 193.314814 18.076388 
L 193.507469 21.393425 
L 193.700125 22.056832 
L 193.892781 18.076388 
L 193.892781 18.076388 
" style="fill:none;stroke:#d55e00;stroke-linecap:round;stroke-width:1.5;"/>
   </g>
   <g id="patch_3">
    <path d="M 54.988125 100.338906 
L 54.988125 10.778906 
" style="fill:none;stroke:#262626;stroke-linecap:square;stroke-linejoin:miter;stroke-width:0.8;"/>
   </g>
   <g id="patch_4">
    <path d="M 54.988125 100.338906 
L 193.700125 100.338906 
" style="fill:none;stroke:#262626;stroke-linecap:square;stroke-linejoin:miter;stroke-width:0.8;"/>
   </g>
   <g id="text_10">
    <!-- $k_{UB}=0.0005$ $\mu m^2/(\# s)^{-1}$ -->
    <g style="fill:#262626;" transform="translate(68.859325 73.470906)">
     <text>
      <tspan style="font-family:DejaVu Sans;font-size:10px;font-style:oblique;font-weight:oblique;" x="0 66.03418 72.396484 102.978275" y="-0.9765625">kμms</tspan>
      <tspan style="font-family:DejaVu Sans;font-size:7px;font-style:oblique;font-weight:oblique;" x="5.791016 10.914551" y="0.6640625">UB</tspan>
      <tspan style="font-family:DejaVu Sans;font-size:10px;font-style:book;font-weight:book;" x="17.938477 28.265625 34.62793 37.806641 44.168945 50.53125 56.893555 87.328861 90.698001 94.599368 108.188236" y="-0.9765625">=0.0005/(#)</tspan>
      <tspan style="font-family:Arial;font-size:10px;font-style:regular;font-weight:regular;" x="63.255859" y="-0.9765625"> </tspan>
      <tspan style="font-family:DejaVu Sans;font-size:7px;font-style:book;font-weight:book;" x="82.60181 112.185306 118.05054" y="-4.8046875">2−1</tspan>
     </text>
    </g>
   </g>
   <g id="text_11">
    <!-- $P=49$ -->
    <g style="fill:#262626;" transform="translate(82.730525 64.514906)">
     <text>
      <tspan style="font-family:DejaVu Sans;font-size:10px;font-style:oblique;font-weight:oblique;" x="0" y="-0.578125">P</tspan>
      <tspan style="font-family:DejaVu Sans;font-size:10px;font-style:book;font-weight:book;" x="7.978516 18.305664 24.667969" y="-0.578125">=49</tspan>
     </text>
    </g>
   </g>
   <g id="text_12">
    <!-- $P=100$ -->
    <g style="fill:#262626;" transform="translate(82.730525 55.558906)">
     <text>
      <tspan style="font-family:DejaVu Sans;font-size:10px;font-style:oblique;font-weight:oblique;" x="0" y="-0.578125">P</tspan>
      <tspan style="font-family:DejaVu Sans;font-size:10px;font-style:book;font-weight:book;" x="7.978516 18.305664 24.667969 31.030273" y="-0.578125">=100</tspan>
     </text>
    </g>
   </g>
   <g id="legend_1">
    <g id="patch_5">
     <path d="M 45.169925 95.383342 
L 189.283025 95.383342 
Q 190.441025 95.383342 190.441025 94.225342 
L 190.441025 77.523906 
Q 190.441025 76.365906 189.283025 76.365906 
L 45.169925 76.365906 
Q 44.011925 76.365906 44.011925 77.523906 
L 44.011925 94.225342 
Q 44.011925 95.383342 45.169925 95.383342 
z
" style="fill:#ffffff;opacity:0.8;stroke:#cccccc;stroke-linejoin:miter;"/>
    </g>
    <g id="line2d_12">
     <path d="M 46.327925 81.055806 
L 57.907925 81.055806 
" style="fill:none;stroke:#0173b2;stroke-linecap:round;stroke-width:1.5;"/>
    </g>
    <g id="line2d_13"/>
    <g id="text_13">
     <!-- $\langle U/A_{spine} \rangle =$$16.2\pm4.2$ -->
     <g style="fill:#262626;" transform="translate(62.539925 83.082306)">
      <text>
       <tspan style="font-family:DejaVu Sans;font-size:5.79px;font-style:book;font-weight:book;" x="0 6.486969 23.403632 26.785437 32.75582 36.434027 40.112234 41.574927 46.379462 52.349844 56.028052 57.490744" y="-0.609375">⟨/⟩=16.2±4.2</tspan>
       <tspan style="font-family:DejaVu Sans;font-size:5.79px;font-style:oblique;font-weight:oblique;" x="2.255478 8.434753" y="-0.609375">UA</tspan>
       <tspan style="font-family:DejaVu Sans;font-size:4.053px;font-style:oblique;font-weight:oblique;" x="12.389603 14.498009 17.066826 18.191177 20.756042" y="0.33750000000000036">spine</tspan>
      </text>
     </g>
    </g>
    <g id="line2d_14">
     <path d="M 46.327925 89.89008 
L 57.907925 89.89008 
" style="fill:none;stroke:#de8f05;stroke-linecap:round;stroke-width:1.5;"/>
    </g>
    <g id="line2d_15"/>
    <g id="text_14">
     <!-- $=33.2\pm5.8$ -->
     <g style="fill:#262626;" transform="translate(62.539925 91.91658)">
      <text>
       <tspan style="font-family:DejaVu Sans;font-size:5.79px;font-style:book;font-weight:book;" x="1.126328 7.09671 10.774918 14.453125 15.915817 20.720352 26.690735 30.368942 32.081635" y="-0.703125">=33.2±5.8</tspan>
      </text>
     </g>
    </g>
    <g id="line2d_16">
     <path d="M 135.551825 81.055806 
L 147.131825 81.055806 
" style="fill:none;stroke:#029e73;stroke-linecap:round;stroke-width:1.5;"/>
    </g>
    <g id="line2d_17"/>
    <g id="text_15">
     <!-- $=16.5\pm4.3$ -->
     <g style="fill:#262626;" transform="translate(151.763825 83.082306)">
      <text>
       <tspan style="font-family:DejaVu Sans;font-size:5.79px;font-style:book;font-weight:book;" x="1.126328 7.09671 10.774918 14.453125 16.290817 21.095352 27.065735 30.743942 32.581635" y="-0.703125">=16.5±4.3</tspan>
      </text>
     </g>
    </g>
    <g id="line2d_18">
     <path d="M 135.551825 89.245942 
L 147.131825 89.245942 
" style="fill:none;stroke:#d55e00;stroke-linecap:round;stroke-width:1.5;"/>
    </g>
    <g id="line2d_19"/>
    <g id="text_16">
     <!-- $=33.0\pm5.6$ -->
     <g style="fill:#262626;" transform="translate(151.763825 91.272442)">
      <text>
       <tspan style="font-family:DejaVu Sans;font-size:5.79px;font-style:book;font-weight:book;" x="1.126328 7.09671 10.774918 14.453125 16.290817 21.095352 27.065735 30.743942 32.581635" y="-0.703125">=33.0±5.6</tspan>
      </text>
     </g>
    </g>
   </g>
  </g>
 </g>
 <defs>
  <clipPath id="pe73f03babb">
   <rect height="89.56" width="138.712" x="54.988125" y="10.778906"/>
  </clipPath>
 </defs>
</svg>
